<svg xmlns="http://www.w3.org/2000/svg"
  xmlns:xlink="http://www.w3.org/1999/xlink" viewBox="0 0 217 400">
  <defs>
    <clipPath>
      <path d="M-96,200V0h400v400H-96v-200M120.71,29.4c-1.67-.68-8.29-1.32-8.74-.85-.13.13-1.75.52-3.6.87-1.85.35-4.09.97-4.97,1.38-.88.41-2.32.94-3.2,1.17-1.02.27-2.78,1.44-4.85,3.22l-3.26,2.8-.16,4.11c-.15,3.81-.27,4.31-1.62,6.81-2.96,5.52-1.06,13.49,3.22,13.5,2.64,0,3.02.35,4.89,4.39.26.55.62,1.27.81,1.6.19.33.81,1.42,1.37,2.41,1.24,2.19,5.8,4.02,7.95,3.2.6-.23,2.01-.42,3.12-.42,4.14,0,7.24-1.9,8.58-5.24.74-1.84,3.36-3.79,5.63-4.18,5.02-.86,7.71-2.45,7.71-4.57,0-2.6-.75-3.93-2.59-4.63-2.41-.92-3.09-1.76-2.93-3.64l.13-1.54,2.4-.23c4.21-.41,4.87-1.31,4.42-6.07-.38-4.06-4.07-9.07-7.42-10.1-1.75-.54-4.18-1.9-4.69-2.61-.27-.38-1.26-1.01-2.2-1.39M112.4,47.8c.61-.74,3.04-.76,5.8-.06,5.39,1.37,4.63,8.26-.91,8.25-2.73,0-6.48-6.29-4.89-8.2M100,47.82c4.02-.85,5.19,1.85,3.07,7.05-1.25,3.06-1.7,3.53-3.45,3.53-4.97,0-6.5-9.44-1.65-10.22.79-.13,1.7-.29,2.03-.36M107.72,58.5c1.96-2.15,5.44,1.55,5.01,5.31-.3,2.66-5.67,3.3-6.8.81-.52-1.15.52-4.73,1.79-6.12M76.44,75.31c-2.54-1.7-5.54-1.32-7.98.99-2.43,2.31-4.46,5.47-4.46,6.95,0,2.24-6,9.13-10.72,12.32-.94.64-4.27,3.6-7.4,6.59s-6.82,6.25-8.22,7.26c-2.89,2.09-5.57,4.25-10.74,8.64-1.98,1.68-4.22,3.37-4.96,3.74-3.28,1.65-5.59,5.38-3.96,6.39.22.14.4,1.76.4,3.61,0,2.37.23,3.98.79,5.49,1.37,3.66,1.71,9.56,1.88,32.6l.16,22.09,2.4,2.51q4.29,4.47-3.99,11.91c-7.37,6.61-8.06,7.34-9.14,9.56-.6,1.23-1.7,3.1-2.44,4.15-1.55,2.18-1.64,2.91-.67,5.69,2.59,7.49,4.87,8.07,4.67,1.2-.11-3.65-.07-3.85,1.11-5.56.67-.98,1.22-1.96,1.22-2.18,0-.87,2.08-2.09,2.7-1.58.74.61.39,3.79-.68,6.12-.4.88-.93,2.66-1.17,3.96-.24,1.3-.75,2.71-1.14,3.13-.93,1.03-1.02,5.74-.12,6.32,1.6,1.01,2.29-.12,3.83-6.3.51-2.03,1.45-4.73,2.1-6,1.36-2.67,2.29-5.26,2.66-7.43.28-1.64-.1-1.35,6.93-5.44,1.82-1.06,3.67-2.25,4.11-2.65.77-.7.84-.69,1.91.1.61.45,2.04,1.29,3.17,1.86,1.13.57,2.69,1.7,3.47,2.49,1.64,1.68,3.19,1.66,3.84-.05.84-2.21-.49-4.85-2.94-5.83-.69-.28-2.38-1.6-3.75-2.93-1.37-1.34-3.22-3.08-4.1-3.89-1.88-1.7-2.1-3.36-.91-6.63.92-2.51.53-20.44-1.01-46.32-.17-2.86-.17-8.42,0-12.37.35-8.34-.03-7.56,5.51-11.26,3.86-2.57,7.25-5.63,8.88-8.02.5-.72,1.58-1.7,2.41-2.16.83-.47,1.51-1.03,1.51-1.26s1.57-2.08,3.5-4.12c4.91-5.2,9.35-10.81,14.1-17.81,1.92-2.82,3.04-3.12,8.06-2.17,2.03.39,2.43,8.28.65,12.56-.23.55-.47,2.17-.53,3.6-.07,1.77-.51,3.61-1.37,5.78-1.77,4.47-2.46,9.46-2.63,19.02l-.15,8.2,1.05,1.1c1.41,1.47,8.96,1.65,12.8.3,1.25-.44,2.52-.8,2.81-.8s1.29-.34,2.21-.75c3.91-1.75,7.48-1.32,7.48.9,0,1.2-1.81,2.16-5,2.64-1.32.2-3.44.74-4.71,1.2-1.27.46-3.41.95-4.76,1.09-3.4.36-4.88,1.92-3.3,3.5.78.78,3.11.82,3.74.06.26-.31,1.4-.69,2.55-.84,1.14-.15,3.05-.7,4.23-1.23,4.71-2.12,9.18-.19,8.24,3.56-.4,1.58-.84,1.75-5.35,2.05-5.95.39-7.66,1.26-7.08,3.58.31,1.24,1.51,1.52,3.58.83,8.08-2.68,10.92-1.92,8.35,2.21-1.76,2.83-1.82,3.28-.69,4.83,3.94,5.41,2.29,10.39-5.52,16.65-2.41,1.93-7.28,2.99-8.05,1.74-.13-.2-1.09-.66-2.15-1.01-2.26-.75-4.36-2.8-5.71-5.58-2.78-5.72-5.96-5.82-9.21-.32-1.12,1.91-2.57,3.92-3.21,4.47-1.06.91-1.21,1.34-1.58,4.75-.23,2.06-.58,4.19-.78,4.73-.8,2.09-.46,3.33,1.41,5.17,1.92,1.89,2.12,1.96,4.2,1.36,3.54-1.02,3.79.92.57,4.3-2.75,2.88-2.83,5.18-.42,11.89.32.89.7,4.05.85,7.11.15,3.03.53,7.17.85,9.2.32,2.03.87,5.49,1.22,7.69.73,4.59.51,12.99-.46,17.4-1.17,5.3-1.86,9.48-2.07,12.4-.14,1.9-.49,3.46-.96,4.25-1.99,3.31.65,5.57,3.75,3.2,2.12-1.62,4.49-1.49,5.07.26.6,1.81,2.58,3.89,3.71,3.88,1.93-.01,2.14-.48,1.61-3.58-.27-1.56-.49-3.68-.49-4.73s-.2-2.52-.44-3.29c-.27-.87-.5-7.18-.6-16.8-.09-8.47-.34-16.39-.54-17.6-.21-1.21-.58-5.17-.82-8.8-.24-3.63-.71-8.04-1.04-9.8-1.38-7.38-1.38-7.29-.49-10.54,1.15-4.2,1.31-4.46,2.98-4.46,1.3,0,5.51,3.14,6.12,4.57.09.2.99,1.19,2,2.21,1.01,1.01,2.74,3.1,3.85,4.63l2,2.79,7.53.53c8.65.6,8.92.54,9.89-2.38.83-2.51,2.91-5.34,6.35-8.65,5.46-5.24,6.17-4.1,5.52,8.92-.24,4.83-.37,14.9-.28,22.38.31,26.3.19,28.03-2.26,33.32-1.36,2.95-2.13,6.91-2.15,11.17-.02,2.88,3.29,3.18,4.59.42,2.11-4.5,5.82-8.84,7.93-9.29.59-.12,1.5-.31,2.01-.42,2.66-.54,3.46-3.79,1.62-6.5-.53-.78-.96-1.89-.96-2.47s-.3-1.48-.66-1.99c-1.27-1.82-1.54-38.69-.32-44.04.33-1.43.8-4.95,1.05-7.82l.46-5.22-1.15-2.38c-1.88-3.87-1.66-6.52.95-11.59,3.06-5.94,3.06-12.45.01-14.47-1.66-1.1-6.61-1.21-7.65-.17-.25.25-.77.45-1.17.45s-2.33,1.53-4.31,3.4-4.06,3.58-4.63,3.8c-2.26.86-6.6.24-6.59-.93,0-.04.45-1.75,1-3.8,1.23-4.58,1.23-4.95,0-9.65-2.11-8.05.62-10.17,8.05-6.22,2.66,1.41,4.76.87,3.77-.98-.61-1.13-8.66-4.82-10.54-4.82-2.32,0-3.47-2.26-1.73-3.4,1.59-1.04,8.37-.52,10.38.8,2.19,1.43,4.29-.59,2.37-2.28-1.22-1.07-4.02-2.31-5.23-2.31-.64,0-1.94-.27-2.88-.6-.94-.33-2.67-.72-3.84-.85-2.65-.31-3.7-1.26-3.02-2.74.53-1.17,2.06-1.33,4.16-.44.72.31,2.48.77,3.9,1.03,1.42.26,3.1.74,3.74,1.07,1.18.61,7.15,2.62,9.22,3.11,1.88.44,5.65-3.87,6.88-7.88.15-.49.9-1.97,1.67-3.29,2.57-4.43,2.65-13.06.17-18.77-2.62-6.03-2.12-10.05,1.61-13.02,2.38-1.89,2.9-1.96,4.74-.58.76.57,1.93,1.26,2.61,1.55,2.16.92,15.8,14.35,23.24,22.89,2.46,2.82,4.8,5.49,5.2,5.93,2.11,2.32,4.9,5.81,5.9,7.4.62.99,1.74,2.31,2.49,2.94,3.77,3.17,3.79,8.81.07,15.86-.4.77-.74,1.6-.74,1.85s-.25.66-.55.91c-.3.25-.66,1.04-.8,1.75-.24,1.24-2.17,6.2-3.23,8.29-.28.55-.62,1.85-.75,2.9-.14,1.04-.7,2.79-1.25,3.89s-1.01,2.33-1.01,2.75-.26.98-.57,1.24c-.31.26-.77,1.77-1.02,3.35-.25,1.58-.71,3.97-1.03,5.3-.82,3.42-.81,16.72,0,18.68.67,1.59.47,2.62-1.08,5.7-1.11,2.2-1.41,8.85-.45,9.81,1.54,1.54,3.67-.97,4.01-4.7.82-9.24,5.69-9.02,6.3.28.31,4.77,4.05,14.63,5.7,15.05,2.41.61,3.18-1.01,1.79-3.74-.68-1.33-1.69-5.19-2.35-8.96-.26-1.48.48-2.72,1.47-2.47.75.2,4.02,4.12,4.02,4.82,0,.19.55,1.09,1.23,2.01.68.92,1.92,3.67,2.76,6.1,1.71,4.95,2.47,6.08,3.99,5.9,1.42-.16,1.48-1.32.25-4.41-2.33-5.82-1.54-10.42,1.27-7.4.98,1.06,2.5,4.86,2.51,6.3.01,1.95.45,2.8,1.43,2.8,2.63,0,2.37-5-.61-11.6-2.68-5.95-2.55-5.72-3.67-6.29-.53-.27-1.41-1-1.96-1.63-1.31-1.5-4.12-3.67-6.56-5.1-1.08-.63-3.74-2.86-5.9-4.97l-3.94-3.82v-2.28c0-1.84.32-2.92,1.61-5.6,1.49-3.08,3.19-8.97,3.77-13.04.14-.95.5-2.12.8-2.6.48-.75,1.99-7.45,3.04-13.47.17-.99.6-2.34.95-3,.4-.75.63-2.22.64-3.91,0-1.86.32-3.61,1.01-5.6,1.83-5.23,1.49-7.74-1.18-8.86-2.31-.97-2.62-2.35-1.12-5.05.71-1.28,1.29-2.78,1.29-3.34,0-2.06-7.04-10.12-9.86-11.3-2.32-.97-4.39-2.56-8.4-6.46-2.01-1.96-4.68-4.14-5.92-4.84-1.24-.7-2.86-1.94-3.6-2.76-3.68-4.07-7.28-8.04-8.48-9.35-.74-.81-1.67-2.24-2.09-3.2-.41-.96-1.24-2.19-1.83-2.74-.59-.55-1.72-2.23-2.52-3.74-1.69-3.22-2.16-3.47-6.6-3.47-3.08,0-3.39.08-5.95,1.6-1.48.88-3.83,1.88-5.22,2.22-1.39.34-3.18.87-3.99,1.18-2.34.89-11.77.96-13.54.1-2.56-1.25-4.12-2.26-5.37-3.46-2-1.93-4.67-2.08-7.59-.43-2.42,1.36-2.1,1.34-7.45.57-2.14-.31-6.57-1.97-8.06-3.03-.58-.41-1.19-.75-1.35-.75-1.73,0-6.38-4.17-7.98-7.14-.66-1.24-1.81-2.64-2.56-3.15M121.18,74.97c-.77-.93-2.36-.67-3.52.56-2.44,2.61-12.78,2.95-16.05.54-1.53-1.13-2.32-1.1-2.87.1-1,2.19,1.15,4.27,7.06,6.83,1.7.74,9.29,1.31,11.15.84,1.86-.47,5.27-7.62,4.22-8.87M83.62,91.18c.46-.45,1.12-.73,1.5-.62.37.11,1.94.56,3.48.98,1.54.43,3.35,1.06,4.02,1.41s2.5.81,4.05,1.03c5.73.81,8.11,3.7,4.03,4.87-7.24,2.07-20.75-4-17.08-7.68M112.85,97.95c.73-.73,1.15-.81,3.1-.61,2.13.23,14.88.33,17.45.14,1.11-.08,1.21.02,1.32,1.37.23,2.81-3.13,3.32-11.34,1.71-1.83-.36-4.01-.47-6.23-.31-4.69.33-6.16-.46-4.31-2.31M82.8,101.89c1.42-.72,5.34-.65,7.43.13.46.17,2.53.44,4.6.59,5.85.43,9.05,2.36,6.33,3.81-1.27.68-17.86.09-19.09-.69-1.46-.92-1.08-2.93.72-3.84M115.44,103.63c6.04-.7,8.88-.39,15.76,1.71,2.84.87,4.06,2.99,2.5,4.36-1.17,1.02-2.33,1.17-4.16.5-2-.72-7.05-1.42-11.87-1.63-7.02-.31-8.76-4.18-2.23-4.94M81.47,111.17c2.87-1.43,18.26-.82,19.87.79,2.2,2.19.03,3.04-9.74,3.81-4.07.32-7.8.7-8.29.85-2.7.82-4.39-4.18-1.84-5.45M114.6,113.12c2.03-.25,7.46.13,10.12.72,1.39.31,3.53.56,4.76.56,3.63,0,6.75,4.11,4.68,6.17-.91.91-2.34.78-6.01-.53-3.85-1.38-8.71-2.36-11.8-2.39-4.98-.04-6.49-3.94-1.76-4.53M88.6,120.42c7.23-.93,10.2-.42,10.2,1.75,0,1.42-.82,1.84-3.6,1.84-.61,0-1.88.27-2.83.61-.95.33-3.45.77-5.55.97s-4.19.48-4.65.62c-.53.17-1.17-.03-1.8-.54l-.98-.79.82-1.1c.99-1.33,4.93-2.9,8.38-3.34M110.47,121.73c1.03-1.09,3.46-1.24,6.33-.38.99.3,2.88.67,4.2.83s3.15.64,4.08,1.05c.92.42,2.2.76,2.83.76,5.62,0,8.67,3.12,5.99,6.12l-1.3,1.46-2.4-1c-1.46-.61-3.82-1.15-6-1.38-3.78-.39-5.16-.76-7.66-2.03-.83-.42-1.84-.77-2.24-.77-.85,0-2.98-1.02-4-1.91-.93-.82-.88-1.64.17-2.76M92.8,129.01c4.01-.78,5.29-.63,5.94.74,1.11,2.33-1.19,4.3-5.59,4.8-1.23.14-4.51.79-7.28,1.46-5.96,1.42-6.82,1.46-7.9.38-2.5-2.5,3.98-6.64,10.68-6.82.85-.02,2.71-.27,4.14-.55M110.7,132.03c.97-.56,1.73-.53,3.72.17.94.33,3.44.79,5.55,1.01,12.38,1.31,13.23,1.78,9.54,5.33-1.74,1.67-3.89,1.89-5.44.54-1.22-1.06-5.83-2.35-10.41-2.91-3.15-.39-4.99-2.96-2.96-4.15M26.82,133.56c1.35-2.52,2.95-.31,2.65,3.65-.14,1.75-.08,5.57.12,8.49.2,2.92.57,11.34.82,18.71.25,7.37.6,13.58.77,13.8.54.68.82,2.77.45,3.35-.43.66-3.21.28-3.42-.48-.24-.87-1.41-11.57-1.87-17.08-.53-6.28-.17-29.24.47-30.44M186.86,163.22c1.85-1.99,3.19-.24,2.18,2.85-.31.95-.67,2.71-.8,3.93-.13,1.21-.77,4-1.42,6.2-.65,2.2-1.31,4.72-1.47,5.6-.16.88-.78,2.7-1.39,4.05-.6,1.35-1.31,3.42-1.56,4.6-.59,2.76-2.03,5.71-2.87,5.87-2.7.5-1.3-11.91,2.3-20.32.8-1.87,1.7-4.21,2-5.2,1.3-4.27,2.31-6.81,3.02-7.58M110.8,187.02c5.19-1.49,6.43.66,3.54,6.14-.63,1.19-1.14,2.36-1.14,2.61,0,.87-6.54,7.19-7.86,7.6-3.02.94-9.83-2-12.25-5.28-.49-.67-1.75-2.33-2.79-3.69-3.01-3.93-2.41-5.29,2.56-5.8,3.71-.38,5.42.27,5.96,2.27,1.19,4.43,5.14,3.92,7.28-.93.82-1.86,1.22-2.35,1.97-2.37.51-.02,1.74-.26,2.73-.55M139.44,276.39c-1.94-2.93-6.92-1.15-6.09,2.17.7,2.78,5.07,3.42,6.35.92l.78-1.51-1.05-1.59M73.68,277.9c-1.18-1.25-1.93-1.37-3.19-.48-1.83,1.28-.72,6.87,1.51,7.58,2.89.92,4.17-4.46,1.69-7.1M135.29,287.62c-1.16-1.43-3.77-1.46-6.53-.07-.79.4-1.41.42-2.57.1-3.92-1.08-3.81-1.7-3.1,17.55.23,6.27.31,17.07.17,24-.38,20-.36,21.18.47,22.93,1.55,3.25,1.4,5.69-.46,7.4-3.78,3.49-4.97,5.96-3.3,6.85.97.52,2,.16,3.03-1.05.48-.57,2.32-1.49,4.63-2.31l3.83-1.36,4.15,1.42c2.92,1,5.05,1.46,7.17,1.57,2.35.11,3.63.43,5.82,1.44,2.39,1.1,3.2,1.28,5.55,1.22,2.79-.08,4.03.32,6.27,1.97.73.54,2.01.82,4.49,1,4.28.3,4.7.05,4.7-2.85,0-2.38.89-3.54,3.07-4,1.62-.34,2.45-1.25,1.77-1.93-.34-.34-2.63-.49-7.76-.5-6.58-.01-7.48-.1-9.39-.9-1.16-.48-2.44-.88-2.85-.88s-1.61-.69-2.68-1.53c-3.92-3.07-7.99-5.59-9.45-5.84-2.03-.36-3.04-2.14-2.32-4.12.72-2,.6-11.04-.19-13.51-.39-1.22-.75-4.35-.92-8.04-.17-3.68-.46-6.27-.75-6.62-1.22-1.46-3.19-26.79-2.35-30.13.14-.58-.03-1.25-.47-1.79M80.73,287.53c-.93-.93-2.58-.88-4.18.11-.69.43-2.31,1.05-3.6,1.38-3.31.84-3.85,1.62-3.62,5.16,1.23,18.48,1.17,37.8-.16,53.51-.34,4.04-.31,4.86.24,5.93.96,1.85.65,3.29-.81,3.73-2.77.84-6.52,2.54-8.28,3.74-1.04.71-2.75,1.49-3.8,1.72-1.06.23-3.38.98-5.16,1.65l-3.24,1.23-2.84-.65c-3.72-.85-8.01-.85-9.21-.01-1.21.85-.49,1.76,1.4,1.76,4.32,0,3.98,2.75-.43,3.56-3.32.61-4.84,1.58-4.84,3.06s1.44,1.77,3.84.81c1.83-.73,7.05-.85,9.16-.2,2.08.64,6.83.51,8.22-.21.65-.34,1.31-.61,1.47-.62.16,0,1.51-.84,3-1.86,11.45-7.88,22-10.06,28.01-5.81,2.51,1.77,5.45,1.41,5.21-.65-.1-.86-.62-1.32-2.72-2.39-5.56-2.83-5.82-3.74-3.95-14.07.41-2.3.75-5.36.75-6.8,0-1.44.21-5.07.47-8.05.53-6.03-.06-25.01-.88-28.37-.24-.99-.59-2.88-.77-4.2s-.61-3.57-.95-5-.85-3.76-1.12-5.17c-.27-1.41-.82-2.9-1.22-3.3M126.83,296.16c1.47-1.77,2.77-.1,2.77,3.55,0,2.22.15,2.76,1.14,4.01.94,1.18,1.26,2.19,1.81,5.76.37,2.38.94,5.51,1.28,6.96.33,1.45.71,5.5.84,9,.18,5.04.4,6.75,1.02,8.23,1.66,3.94.62,16.48-1.49,18.02-3.15,2.31-5.6-3.37-6.22-14.41-1.02-18.29-1.2-22.11-1.19-24.88,0-1.65-.09-5.85-.21-9.33-.16-4.55-.09-6.49.24-6.9M75.43,297.03c2.14-2.14,3.67.62,4.76,8.62.31,2.28.85,5.68,1.21,7.55,1.87,9.93.36,33.35-2.27,35.31-3.4,2.54-5.14-.18-3.93-6.11.2-.99.46-7.83.58-15.2.11-7.37.31-15.11.44-17.2.24-3.94-.38-10.72-1.04-11.38-.53-.53-.47-.87.25-1.59M177.77,366.39c-1.38-.52-1.55-.5-2.56.32-1.35,1.09-.54,2.89,1.29,2.89,2.36,0,3.32-2.43,1.26-3.21" style="clip-rule: evenodd; fill: none;"/>
    </clipPath>
  </defs>
  <g>
    <rect width="217" height="400" style="fill: #fff;"/>
  </g>
  <g>
    <g style="clip-path: url(#clippath);">
      <rect width="217" height="400"/>
    </g>
  </g>
</svg>