<?xml version="1.0" encoding="UTF-8"?>
<svg xmlns="http://www.w3.org/2000/svg" version="1.1" xmlns:inkscape="http://www.inkscape.org/namespaces/inkscape" xmlns:sodipodi="http://sodipodi.sourceforge.net/DTD/sodipodi-0.dtd" xmlns:svg="http://www.w3.org/2000/svg" xmlns:xlink="http://www.w3.org/1999/xlink" viewBox="0 0 217 400">
  <!-- Generator: Adobe Illustrator 29.6.0, SVG Export Plug-In . SVG Version: 2.1.1 Build 207)  -->
  <defs>
    <style>
      .st0 {
        filter: url(#filter2313);
      }

      .st1 {
        clip-rule: evenodd;
        fill: none;
      }

      .st2, .st3 {
        display: none;
      }

      .st4, .st3 {
        fill-rule: evenodd;
      }

      .st3 {
        fill: #fff;
      }

      .st5 {
        clip-path: url(#clippath);
      }
    </style>
    <filter id="filter2313" x="0" y="0" width="1" height="1">
      <feColorMatrix result="color1" type="hueRotate" values="180"/>
    </filter>
    <clipPath id="clippath">
      <path id="path12" data-name="path1" class="st1" d="M-96,200V0h400v400H-96v-200M120.7,29.4c-1.7-.7-8.3-1.3-8.7-.9-.1.1-1.7.5-3.6.9-1.9.3-4.1,1-5,1.4-.9.4-2.3.9-3.2,1.2-1,.3-2.8,1.4-4.9,3.2l-3.3,2.8-.2,4.1c-.2,3.8-.3,4.3-1.6,6.8-3,5.5-1.1,13.5,3.2,13.5,2.6,0,3,.4,4.9,4.4.3.5.6,1.3.8,1.6.2.3.8,1.4,1.4,2.4,1.2,2.2,5.8,4,7.9,3.2.6-.2,2-.4,3.1-.4,4.1,0,7.2-1.9,8.6-5.2.7-1.8,3.4-3.8,5.6-4.2,5-.9,7.7-2.5,7.7-4.6,0-2.6-.7-3.9-2.6-4.6-2.4-.9-3.1-1.8-2.9-3.6v-1.5c.1,0,2.5-.2,2.5-.2,4.2-.4,4.9-1.3,4.4-6.1-.4-4.1-4.1-9.1-7.4-10.1-1.7-.5-4.2-1.9-4.7-2.6-.3-.4-1.3-1-2.2-1.4M112.4,47.8c.6-.7,3-.8,5.8,0,5.4,1.4,4.6,8.3-.9,8.3-2.7,0-6.5-6.3-4.9-8.2M100,47.8c4-.9,5.2,1.8,3.1,7.1-1.2,3.1-1.7,3.5-3.4,3.5-5,0-6.5-9.4-1.7-10.2.8-.1,1.7-.3,2-.4M107.7,58.5c2-2.1,5.4,1.5,5,5.3-.3,2.7-5.7,3.3-6.8.8-.5-1.2.5-4.7,1.8-6.1M76.4,75.3c-2.5-1.7-5.5-1.3-8,1-2.4,2.3-4.5,5.5-4.5,7,0,2.2-6,9.1-10.7,12.3-.9.6-4.3,3.6-7.4,6.6s-6.8,6.3-8.2,7.3c-2.9,2.1-5.6,4.2-10.7,8.6-2,1.7-4.2,3.4-5,3.7-3.3,1.7-5.6,5.4-4,6.4.2.1.4,1.8.4,3.6s.2,4,.8,5.5c1.4,3.7,1.7,9.6,1.9,32.6l.2,22.1,2.4,2.5q4.3,4.5-4,11.9c-7.4,6.6-8.1,7.3-9.1,9.6-.6,1.2-1.7,3.1-2.4,4.1-1.5,2.2-1.6,2.9-.7,5.7,2.6,7.5,4.9,8.1,4.7,1.2-.1-3.7,0-3.8,1.1-5.6.7-1,1.2-2,1.2-2.2,0-.9,2.1-2.1,2.7-1.6.7.6.4,3.8-.7,6.1-.4.9-.9,2.7-1.2,4-.2,1.3-.8,2.7-1.1,3.1-.9,1-1,5.7-.1,6.3,1.6,1,2.3-.1,3.8-6.3.5-2,1.5-4.7,2.1-6,1.4-2.7,2.3-5.3,2.7-7.4.3-1.6,0-1.3,6.9-5.4,1.8-1.1,3.7-2.3,4.1-2.7.8-.7.8-.7,1.9.1.6.5,2,1.3,3.2,1.9,1.1.6,2.7,1.7,3.5,2.5,1.6,1.7,3.2,1.7,3.8,0,.8-2.2-.5-4.8-2.9-5.8-.7-.3-2.4-1.6-3.8-2.9-1.4-1.3-3.2-3.1-4.1-3.9-1.9-1.7-2.1-3.4-.9-6.6.9-2.5.5-20.4-1-46.3-.2-2.9-.2-8.4,0-12.4.4-8.3,0-7.6,5.5-11.3,3.9-2.6,7.2-5.6,8.9-8,.5-.7,1.6-1.7,2.4-2.2.8-.5,1.5-1,1.5-1.3s1.6-2.1,3.5-4.1c4.9-5.2,9.3-10.8,14.1-17.8,1.9-2.8,3-3.1,8.1-2.2,2,.4,2.4,8.3.6,12.6-.2.5-.5,2.2-.5,3.6,0,1.8-.5,3.6-1.4,5.8-1.8,4.5-2.5,9.5-2.6,19v8.2c-.1,0,.9,1.1.9,1.1,1.4,1.5,9,1.6,12.8.3,1.3-.4,2.5-.8,2.8-.8s1.3-.3,2.2-.8c3.9-1.8,7.5-1.3,7.5.9s-1.8,2.2-5,2.6c-1.3.2-3.4.7-4.7,1.2-1.3.5-3.4.9-4.8,1.1-3.4.4-4.9,1.9-3.3,3.5.8.8,3.1.8,3.7,0,.3-.3,1.4-.7,2.5-.8,1.1-.1,3-.7,4.2-1.2,4.7-2.1,9.2-.2,8.2,3.6-.4,1.6-.8,1.8-5.4,2-5.9.4-7.7,1.3-7.1,3.6.3,1.2,1.5,1.5,3.6.8,8.1-2.7,10.9-1.9,8.3,2.2-1.8,2.8-1.8,3.3-.7,4.8,3.9,5.4,2.3,10.4-5.5,16.7-2.4,1.9-7.3,3-8,1.7-.1-.2-1.1-.7-2.1-1-2.3-.8-4.4-2.8-5.7-5.6-2.8-5.7-6-5.8-9.2-.3-1.1,1.9-2.6,3.9-3.2,4.5-1.1.9-1.2,1.3-1.6,4.7-.2,2.1-.6,4.2-.8,4.7-.8,2.1-.5,3.3,1.4,5.2,1.9,1.9,2.1,2,4.2,1.4,3.5-1,3.8.9.6,4.3-2.7,2.9-2.8,5.2-.4,11.9.3.9.7,4.1.8,7.1.1,3,.5,7.2.9,9.2.3,2,.9,5.5,1.2,7.7.7,4.6.5,13-.5,17.4-1.2,5.3-1.9,9.5-2.1,12.4-.1,1.9-.5,3.5-1,4.2-2,3.3.7,5.6,3.7,3.2,2.1-1.6,4.5-1.5,5.1.3.6,1.8,2.6,3.9,3.7,3.9,1.9,0,2.1-.5,1.6-3.6-.3-1.6-.5-3.7-.5-4.7s-.2-2.5-.4-3.3c-.3-.9-.5-7.2-.6-16.8,0-8.5-.3-16.4-.5-17.6-.2-1.2-.6-5.2-.8-8.8-.2-3.6-.7-8-1-9.8-1.4-7.4-1.4-7.3-.5-10.5,1.1-4.2,1.3-4.5,3-4.5s5.5,3.1,6.1,4.6c0,.2,1,1.2,2,2.2,1,1,2.7,3.1,3.8,4.6l2,2.8,7.5.5c8.7.6,8.9.5,9.9-2.4.8-2.5,2.9-5.3,6.4-8.6,5.5-5.2,6.2-4.1,5.5,8.9-.2,4.8-.4,14.9-.3,22.4.3,26.3.2,28-2.3,33.3-1.4,3-2.1,6.9-2.1,11.2,0,2.9,3.3,3.2,4.6.4,2.1-4.5,5.8-8.8,7.9-9.3.6-.1,1.5-.3,2-.4,2.7-.5,3.5-3.8,1.6-6.5-.5-.8-1-1.9-1-2.5s-.3-1.5-.7-2c-1.3-1.8-1.5-38.7-.3-44,.3-1.4.8-4.9,1.1-7.8l.5-5.2-1.2-2.4c-1.9-3.9-1.7-6.5,1-11.6,3.1-5.9,3.1-12.4,0-14.5-1.7-1.1-6.6-1.2-7.7-.2s-.8.5-1.2.5-2.3,1.5-4.3,3.4-4.1,3.6-4.6,3.8c-2.3.9-6.6.2-6.6-.9,0,0,.5-1.7,1-3.8,1.2-4.6,1.2-4.9,0-9.6-2.1-8.1.6-10.2,8-6.2,2.7,1.4,4.8.9,3.8-1-.6-1.1-8.7-4.8-10.5-4.8s-3.5-2.3-1.7-3.4c1.6-1,8.4-.5,10.4.8,2.2,1.4,4.3-.6,2.4-2.3-1.2-1.1-4-2.3-5.2-2.3s-1.9-.3-2.9-.6c-.9-.3-2.7-.7-3.8-.9-2.7-.3-3.7-1.3-3-2.7.5-1.2,2.1-1.3,4.2-.4.7.3,2.5.8,3.9,1,1.4.3,3.1.7,3.7,1.1,1.2.6,7.2,2.6,9.2,3.1,1.9.4,5.7-3.9,6.9-7.9.2-.5.9-2,1.7-3.3,2.6-4.4,2.7-13.1.2-18.8-2.6-6-2.1-10,1.6-13,2.4-1.9,2.9-2,4.7-.6.8.6,1.9,1.3,2.6,1.5,2.2.9,15.8,14.3,23.2,22.9,2.5,2.8,4.8,5.5,5.2,5.9,2.1,2.3,4.9,5.8,5.9,7.4.6,1,1.7,2.3,2.5,2.9,3.8,3.2,3.8,8.8,0,15.9-.4.8-.7,1.6-.7,1.9s-.2.7-.6.9c-.3.3-.7,1-.8,1.7-.2,1.2-2.2,6.2-3.2,8.3-.3.5-.6,1.9-.8,2.9-.1,1-.7,2.8-1.3,3.9s-1,2.3-1,2.8-.3,1-.6,1.2c-.3.3-.8,1.8-1,3.3-.3,1.6-.7,4-1,5.3-.8,3.4-.8,16.7,0,18.7.7,1.6.5,2.6-1.1,5.7-1.1,2.2-1.4,8.8-.5,9.8,1.5,1.5,3.7-1,4-4.7.8-9.2,5.7-9,6.3.3.3,4.8,4,14.6,5.7,15.1,2.4.6,3.2-1,1.8-3.7-.7-1.3-1.7-5.2-2.3-9-.3-1.5.5-2.7,1.5-2.5.8.2,4,4.1,4,4.8s.6,1.1,1.2,2c.7.9,1.9,3.7,2.8,6.1,1.7,4.9,2.5,6.1,4,5.9,1.4-.2,1.5-1.3.2-4.4-2.3-5.8-1.5-10.4,1.3-7.4,1,1.1,2.5,4.9,2.5,6.3,0,1.9.4,2.8,1.4,2.8,2.6,0,2.4-5-.6-11.6-2.7-5.9-2.5-5.7-3.7-6.3-.5-.3-1.4-1-2-1.6-1.3-1.5-4.1-3.7-6.6-5.1-1.1-.6-3.7-2.9-5.9-5l-3.9-3.8v-2.3c0-1.8.3-2.9,1.6-5.6,1.5-3.1,3.2-9,3.8-13,.1-1,.5-2.1.8-2.6.5-.7,2-7.4,3-13.5.2-1,.6-2.3.9-3,.4-.7.6-2.2.6-3.9,0-1.9.3-3.6,1-5.6,1.8-5.2,1.5-7.7-1.2-8.9-2.3-1-2.6-2.4-1.1-5.1.7-1.3,1.3-2.8,1.3-3.3,0-2.1-7-10.1-9.9-11.3-2.3-1-4.4-2.6-8.4-6.5-2-2-4.7-4.1-5.9-4.8-1.2-.7-2.9-1.9-3.6-2.8-3.7-4.1-7.3-8-8.5-9.3-.7-.8-1.7-2.2-2.1-3.2-.4-1-1.2-2.2-1.8-2.7-.6-.5-1.7-2.2-2.5-3.7-1.7-3.2-2.2-3.5-6.6-3.5s-3.4,0-5.9,1.6c-1.5.9-3.8,1.9-5.2,2.2-1.4.3-3.2.9-4,1.2-2.3.9-11.8,1-13.5,0-2.6-1.3-4.1-2.3-5.4-3.5-2-1.9-4.7-2.1-7.6-.4-2.4,1.4-2.1,1.3-7.4.6-2.1-.3-6.6-2-8.1-3-.6-.4-1.2-.8-1.4-.8-1.7,0-6.4-4.2-8-7.1-.7-1.2-1.8-2.6-2.6-3.1M121.2,75c-.8-.9-2.4-.7-3.5.6-2.4,2.6-12.8,3-16.1.5-1.5-1.1-2.3-1.1-2.9,0-1,2.2,1.2,4.3,7.1,6.8,1.7.7,9.3,1.3,11.2.8,1.9-.5,5.3-7.6,4.2-8.9M83.6,91.2c.5-.5,1.1-.7,1.5-.6.4.1,1.9.6,3.5,1,1.5.4,3.4,1.1,4,1.4s2.5.8,4.1,1c5.7.8,8.1,3.7,4,4.9-7.2,2.1-20.8-4-17.1-7.7M112.8,98c.7-.7,1.1-.8,3.1-.6,2.1.2,14.9.3,17.5.1,1.1,0,1.2,0,1.3,1.4.2,2.8-3.1,3.3-11.3,1.7-1.8-.4-4-.5-6.2-.3-4.7.3-6.2-.5-4.3-2.3M82.8,101.9c1.4-.7,5.3-.7,7.4.1.5.2,2.5.4,4.6.6,5.8.4,9,2.4,6.3,3.8-1.3.7-17.9,0-19.1-.7-1.5-.9-1.1-2.9.7-3.8M115.4,103.6c6-.7,8.9-.4,15.8,1.7,2.8.9,4.1,3,2.5,4.4-1.2,1-2.3,1.2-4.2.5-2-.7-7-1.4-11.9-1.6-7-.3-8.8-4.2-2.2-4.9M81.5,111.2c2.9-1.4,18.3-.8,19.9.8,2.2,2.2,0,3-9.7,3.8-4.1.3-7.8.7-8.3.8-2.7.8-4.4-4.2-1.8-5.5M114.6,113.1c2-.3,7.5.1,10.1.7,1.4.3,3.5.6,4.8.6,3.6,0,6.7,4.1,4.7,6.2-.9.9-2.3.8-6-.5-3.8-1.4-8.7-2.4-11.8-2.4-5,0-6.5-3.9-1.8-4.5M88.6,120.4c7.2-.9,10.2-.4,10.2,1.7s-.8,1.8-3.6,1.8-1.9.3-2.8.6c-.9.3-3.4.8-5.6,1s-4.2.5-4.6.6c-.5.2-1.2,0-1.8-.5l-1-.8.8-1.1c1-1.3,4.9-2.9,8.4-3.3M110.5,121.7c1-1.1,3.5-1.2,6.3-.4,1,.3,2.9.7,4.2.8s3.2.6,4.1,1.1c.9.4,2.2.8,2.8.8,5.6,0,8.7,3.1,6,6.1l-1.3,1.5-2.4-1c-1.5-.6-3.8-1.1-6-1.4-3.8-.4-5.2-.8-7.7-2-.8-.4-1.8-.8-2.2-.8-.9,0-3-1-4-1.9-.9-.8-.9-1.6.2-2.8M92.8,129c4-.8,5.3-.6,5.9.7,1.1,2.3-1.2,4.3-5.6,4.8-1.2.1-4.5.8-7.3,1.5-6,1.4-6.8,1.5-7.9.4-2.5-2.5,4-6.6,10.7-6.8.8,0,2.7-.3,4.1-.6M110.7,132c1-.6,1.7-.5,3.7.2.9.3,3.4.8,5.6,1,12.4,1.3,13.2,1.8,9.5,5.3-1.7,1.7-3.9,1.9-5.4.5-1.2-1.1-5.8-2.3-10.4-2.9-3.2-.4-5-3-3-4.1M26.8,133.6c1.3-2.5,3-.3,2.6,3.6-.1,1.7,0,5.6.1,8.5.2,2.9.6,11.3.8,18.7.3,7.4.6,13.6.8,13.8.5.7.8,2.8.5,3.4-.4.7-3.2.3-3.4-.5-.2-.9-1.4-11.6-1.9-17.1-.5-6.3-.2-29.2.5-30.4M186.9,163.2c1.9-2,3.2-.2,2.2,2.9-.3.9-.7,2.7-.8,3.9-.1,1.2-.8,4-1.4,6.2-.7,2.2-1.3,4.7-1.5,5.6-.2.9-.8,2.7-1.4,4.1-.6,1.3-1.3,3.4-1.6,4.6-.6,2.8-2,5.7-2.9,5.9-2.7.5-1.3-11.9,2.3-20.3.8-1.9,1.7-4.2,2-5.2,1.3-4.3,2.3-6.8,3-7.6M110.8,187c5.2-1.5,6.4.7,3.5,6.1-.6,1.2-1.1,2.4-1.1,2.6,0,.9-6.5,7.2-7.9,7.6-3,.9-9.8-2-12.2-5.3-.5-.7-1.7-2.3-2.8-3.7-3-3.9-2.4-5.3,2.6-5.8,3.7-.4,5.4.3,6,2.3,1.2,4.4,5.1,3.9,7.3-.9.8-1.9,1.2-2.3,2-2.4.5,0,1.7-.3,2.7-.5M139.4,276.4c-1.9-2.9-6.9-1.2-6.1,2.2.7,2.8,5.1,3.4,6.4.9l.8-1.5-1.1-1.6M73.7,277.9c-1.2-1.3-1.9-1.4-3.2-.5-1.8,1.3-.7,6.9,1.5,7.6,2.9.9,4.2-4.5,1.7-7.1M135.3,287.6c-1.2-1.4-3.8-1.5-6.5,0-.8.4-1.4.4-2.6,0-3.9-1.1-3.8-1.7-3.1,17.6.2,6.3.3,17.1.2,24-.4,20-.4,21.2.5,22.9,1.6,3.2,1.4,5.7-.5,7.4-3.8,3.5-5,6-3.3,6.9,1,.5,2,.2,3-1.1.5-.6,2.3-1.5,4.6-2.3l3.8-1.4,4.2,1.4c2.9,1,5.1,1.5,7.2,1.6,2.4.1,3.6.4,5.8,1.4,2.4,1.1,3.2,1.3,5.5,1.2,2.8,0,4,.3,6.3,2,.7.5,2,.8,4.5,1,4.3.3,4.7,0,4.7-2.9s.9-3.5,3.1-4c1.6-.3,2.5-1.3,1.8-1.9-.3-.3-2.6-.5-7.8-.5-6.6,0-7.5-.1-9.4-.9-1.2-.5-2.4-.9-2.8-.9s-1.6-.7-2.7-1.5c-3.9-3.1-8-5.6-9.5-5.8-2-.4-3-2.1-2.3-4.1.7-2,.6-11-.2-13.5-.4-1.2-.7-4.4-.9-8-.2-3.7-.5-6.3-.8-6.6-1.2-1.5-3.2-26.8-2.4-30.1.1-.6,0-1.2-.5-1.8M80.7,287.5c-.9-.9-2.6-.9-4.2.1-.7.4-2.3,1-3.6,1.4-3.3.8-3.9,1.6-3.6,5.2,1.2,18.5,1.2,37.8-.2,53.5-.3,4-.3,4.9.2,5.9,1,1.9.6,3.3-.8,3.7-2.8.8-6.5,2.5-8.3,3.7-1,.7-2.7,1.5-3.8,1.7-1.1.2-3.4,1-5.2,1.7l-3.2,1.2-2.8-.6c-3.7-.8-8-.9-9.2,0-1.2.9-.5,1.8,1.4,1.8,4.3,0,4,2.7-.4,3.6-3.3.6-4.8,1.6-4.8,3.1s1.4,1.8,3.8.8c1.8-.7,7-.8,9.2-.2,2.1.6,6.8.5,8.2-.2.6-.3,1.3-.6,1.5-.6.2,0,1.5-.8,3-1.9,11.4-7.9,22-10.1,28-5.8,2.5,1.8,5.5,1.4,5.2-.6-.1-.9-.6-1.3-2.7-2.4-5.6-2.8-5.8-3.7-4-14.1.4-2.3.8-5.4.7-6.8,0-1.4.2-5.1.5-8.1.5-6,0-25-.9-28.4-.2-1-.6-2.9-.8-4.2s-.6-3.6-1-5-.8-3.8-1.1-5.2c-.3-1.4-.8-2.9-1.2-3.3M126.8,296.2c1.5-1.8,2.8-.1,2.8,3.6s.2,2.8,1.1,4c.9,1.2,1.3,2.2,1.8,5.8.4,2.4.9,5.5,1.3,7,.3,1.5.7,5.5.8,9,.2,5,.4,6.7,1,8.2,1.7,3.9.6,16.5-1.5,18-3.1,2.3-5.6-3.4-6.2-14.4-1-18.3-1.2-22.1-1.2-24.9,0-1.6,0-5.9-.2-9.3-.2-4.5,0-6.5.2-6.9M75.4,297c2.1-2.1,3.7.6,4.8,8.6.3,2.3.9,5.7,1.2,7.6,1.9,9.9.4,33.3-2.3,35.3-3.4,2.5-5.1-.2-3.9-6.1.2-1,.5-7.8.6-15.2.1-7.4.3-15.1.4-17.2.2-3.9-.4-10.7-1-11.4-.5-.5-.5-.9.3-1.6M177.8,366.4c-1.4-.5-1.5-.5-2.6.3-1.3,1.1-.5,2.9,1.3,2.9s3.3-2.4,1.3-3.2"/>
    </clipPath>
  </defs>
  <g id="svg" class="st2">
    <sodipodi:namedview id="namedview6" bordercolor="#000000" borderopacity="0.25" inkscape:current-layer="svg" inkscape:cx="184.02948" inkscape:cy="121.86732" inkscape:deskcolor="#d1d1d1" inkscape:pagecheckerboard="0" inkscape:pageopacity="0.0" inkscape:showpageshadow="2" inkscape:window-height="1001" inkscape:window-maximized="1" inkscape:window-width="1920" inkscape:window-x="-9" inkscape:window-y="-9" inkscape:zoom="2.035" pagecolor="#ffffff" showgrid="false"/>
    <g id="svgg" class="st0">
      <path id="path0" class="st3" d="M112,28.5c-.1.1-1.7.5-3.6.9-1.9.3-4.1,1-5,1.4-.9.4-2.3.9-3.2,1.2-1,.3-2.8,1.4-4.9,3.2l-3.3,2.8-.2,4.1c-.2,3.8-.3,4.3-1.6,6.8-3,5.5-1.1,13.5,3.2,13.5,2.6,0,3,.3,4.9,4.4.3.6.6,1.3.8,1.6s.8,1.4,1.4,2.4c1.2,2.2,5.8,4,7.9,3.2.6-.2,2-.4,3.1-.4,4.1,0,7.2-1.9,8.6-5.2.7-1.8,3.4-3.8,5.6-4.2,5-.9,7.7-2.5,7.7-4.6,0-2.6-.7-3.9-2.6-4.6-2.4-.9-3.1-1.8-2.9-3.6v-1.5c.1,0,2.5-.2,2.5-.2,4.2-.4,4.9-1.3,4.4-6.1-.4-4.1-4.1-9.1-7.4-10.1-1.7-.5-4.2-1.9-4.7-2.6-1-1.5-9.9-3.3-10.9-2.2M118.2,47.7c4.2,1.1,5.2,6.1,1.4,7.6-3.7,1.5-6.5-.7-7.5-5.8-.5-2.3,1.7-2.9,6.1-1.8M103.2,48c2.6,1.4-.5,10.4-3.6,10.4-5,0-6.5-9.4-1.7-10.2.8-.1,1.7-.3,2-.4,1.3-.3,2.5-.2,3.2.2M111.1,58.9c3.5,3.2,1.2,8.4-3.2,7.1-2.2-.6-2.6-1.8-1.7-4.5,1.3-3.8,2.7-4.6,4.9-2.6M68.5,76.3c-2.4,2.3-4.5,5.5-4.5,7,0,2.2-6,9.1-10.7,12.3-.9.6-4.3,3.6-7.4,6.6s-6.8,6.3-8.2,7.3c-2.9,2.1-5.6,4.2-10.7,8.6-2,1.7-4.2,3.4-5,3.7-3.3,1.7-5.6,5.4-4,6.4.2.1.4,1.8.4,3.6s.2,4,.8,5.5c1.4,3.7,1.7,9.6,1.9,32.6l.2,22.1,2.4,2.5q4.3,4.5-4,11.9c-7.4,6.6-8.1,7.3-9.1,9.6-.6,1.2-1.7,3.1-2.4,4.1-1.6,2.2-1.6,2.9-.7,5.7,2.6,7.5,4.9,8.1,4.7,1.2-.1-3.7,0-3.8,1.1-5.6.7-1,1.2-2,1.2-2.2,0-.9,2.1-2.1,2.7-1.6.7.6.4,3.8-.7,6.1-.4.9-.9,2.7-1.2,4-.2,1.3-.8,2.7-1.1,3.1-.9,1-1,5.7-.1,6.3,1.6,1,2.3-.1,3.8-6.3.5-2,1.5-4.7,2.1-6,1.4-2.7,2.3-5.3,2.7-7.4.3-1.6,0-1.4,6.9-5.4,1.8-1.1,3.7-2.3,4.1-2.7.8-.7.8-.7,1.9.1.6.5,2,1.3,3.2,1.9,1.1.6,2.7,1.7,3.5,2.5,1.6,1.7,3.2,1.7,3.8,0,.8-2.2-.5-4.8-2.9-5.8-.7-.3-2.4-1.6-3.8-2.9-1.4-1.3-3.2-3.1-4.1-3.9-1.9-1.7-2.1-3.4-.9-6.6.9-2.5.5-20.4-1-46.3-.2-2.9-.2-8.4,0-12.4.4-8.3,0-7.6,5.5-11.3,3.9-2.6,7.2-5.6,8.9-8,.5-.7,1.6-1.7,2.4-2.2.8-.5,1.5-1,1.5-1.3s1.6-2.1,3.5-4.1c4.9-5.2,9.3-10.8,14.1-17.8,1.9-2.8,3-3.1,8.1-2.2,2,.4,2.4,8.3.6,12.6-.2.6-.5,2.2-.5,3.6,0,1.8-.5,3.6-1.4,5.8-1.8,4.5-2.5,9.5-2.6,19v8.2c-.1,0,.9,1.1.9,1.1,1.4,1.5,9,1.6,12.8.3,1.3-.4,2.5-.8,2.8-.8s1.3-.3,2.2-.8c3.9-1.8,7.5-1.3,7.5.9s-1.8,2.2-5,2.6c-1.3.2-3.4.7-4.7,1.2-1.3.5-3.4.9-4.8,1.1-3.4.4-4.9,1.9-3.3,3.5.8.8,3.1.8,3.7,0,.3-.3,1.4-.7,2.5-.8,1.1-.1,3-.7,4.2-1.2,4.7-2.1,9.2-.2,8.2,3.6-.4,1.6-.8,1.8-5.4,2-5.9.4-7.7,1.3-7.1,3.6.3,1.2,1.5,1.5,3.6.8,8.1-2.7,10.9-1.9,8.3,2.2-1.8,2.8-1.8,3.3-.7,4.8,3.9,5.4,2.3,10.4-5.5,16.7-2.4,1.9-7.3,3-8,1.7-.1-.2-1.1-.7-2.1-1-2.3-.8-4.4-2.8-5.7-5.6-2.8-5.7-6-5.8-9.2-.3-1.1,1.9-2.6,3.9-3.2,4.5-1.1.9-1.2,1.3-1.6,4.7-.2,2.1-.6,4.2-.8,4.7-.8,2.1-.5,3.3,1.4,5.2,1.9,1.9,2.1,2,4.2,1.4,3.5-1,3.8.9.6,4.3-2.7,2.9-2.8,5.2-.4,11.9.3.9.7,4.1.8,7.1.1,3,.5,7.2.9,9.2.3,2,.9,5.5,1.2,7.7.7,4.6.5,13-.5,17.4-1.2,5.3-1.9,9.5-2.1,12.4-.1,1.9-.5,3.5-1,4.2-2,3.3.7,5.6,3.7,3.2,2.1-1.6,4.5-1.5,5.1.3.6,1.8,2.6,3.9,3.7,3.9,1.9,0,2.1-.5,1.6-3.6-.3-1.6-.5-3.7-.5-4.7s-.2-2.5-.4-3.3c-.3-.9-.5-7.2-.6-16.8,0-8.5-.3-16.4-.5-17.6-.2-1.2-.6-5.2-.8-8.8s-.7-8-1-9.8c-1.4-7.4-1.4-7.3-.5-10.5,1.1-4.2,1.3-4.5,3-4.5s5.5,3.1,6.1,4.6c0,.2,1,1.2,2,2.2,1,1,2.7,3.1,3.8,4.6l2,2.8,7.5.5c8.7.6,8.9.5,9.9-2.4.8-2.5,2.9-5.3,6.4-8.6,5.5-5.2,6.2-4.1,5.5,8.9-.2,4.8-.4,14.9-.3,22.4.3,26.3.2,28-2.3,33.3-1.4,3-2.1,6.9-2.1,11.2,0,2.9,3.3,3.2,4.6.4,2.1-4.5,5.8-8.8,7.9-9.3.6-.1,1.5-.3,2-.4,2.7-.5,3.5-3.8,1.6-6.5-.5-.8-1-1.9-1-2.5s-.3-1.5-.7-2c-1.3-1.8-1.5-38.7-.3-44,.3-1.4.8-4.9,1.1-7.8l.5-5.2-1.2-2.4c-1.9-3.9-1.7-6.5,1-11.6,3.1-5.9,3.1-12.4,0-14.5-1.7-1.1-6.6-1.2-7.7-.2s-.8.5-1.2.5-2.3,1.5-4.3,3.4-4.1,3.6-4.6,3.8c-2.3.9-6.6.2-6.6-.9,0,0,.5-1.7,1-3.8,1.2-4.6,1.2-4.9,0-9.6-2.1-8.1.6-10.2,8-6.2,2.7,1.4,4.8.9,3.8-1-.6-1.1-8.7-4.8-10.5-4.8s-3.5-2.3-1.7-3.4c1.6-1,8.4-.5,10.4.8,2.2,1.4,4.3-.6,2.4-2.3-1.2-1.1-4-2.3-5.2-2.3s-1.9-.3-2.9-.6c-.9-.3-2.7-.7-3.8-.9-2.7-.3-3.7-1.3-3-2.7.5-1.2,2.1-1.3,4.2-.4.7.3,2.5.8,3.9,1,1.4.3,3.1.7,3.7,1.1,1.2.6,7.2,2.6,9.2,3.1,1.9.4,5.7-3.9,6.9-7.9.1-.5.9-2,1.7-3.3,2.6-4.4,2.7-13.1.2-18.8-2.6-6-2.1-10,1.6-13,2.4-1.9,2.9-2,4.7-.6.8.6,1.9,1.3,2.6,1.5,2.2.9,15.8,14.3,23.2,22.9,2.5,2.8,4.8,5.5,5.2,5.9,2.1,2.3,4.9,5.8,5.9,7.4.6,1,1.7,2.3,2.5,2.9,3.8,3.2,3.8,8.8,0,15.9-.4.8-.7,1.6-.7,1.9s-.2.7-.6.9c-.3.3-.7,1-.8,1.7-.2,1.2-2.2,6.2-3.2,8.3-.3.6-.6,1.9-.8,2.9-.1,1-.7,2.8-1.3,3.9s-1,2.3-1,2.8-.3,1-.6,1.2c-.3.3-.8,1.8-1,3.3-.3,1.6-.7,4-1,5.3-.8,3.4-.8,16.7,0,18.7.7,1.6.5,2.6-1.1,5.7-1.1,2.2-1.4,8.8-.5,9.8,1.5,1.5,3.7-1,4-4.7.8-9.2,5.7-9,6.3.3.3,4.8,4,14.6,5.7,15.1,2.4.6,3.2-1,1.8-3.7-.7-1.3-1.7-5.2-2.3-9-.3-1.5.5-2.7,1.5-2.5.8.2,4,4.1,4,4.8s.6,1.1,1.2,2c.7.9,1.9,3.7,2.8,6.1,1.7,4.9,2.5,6.1,4,5.9,1.4-.2,1.5-1.3.2-4.4-2.3-5.8-1.5-10.4,1.3-7.4,1,1.1,2.5,4.9,2.5,6.3,0,1.9.4,2.8,1.4,2.8,2.6,0,2.4-5-.6-11.6-2.7-5.9-2.5-5.7-3.7-6.3-.5-.3-1.4-1-2-1.6-1.3-1.5-4.1-3.7-6.6-5.1-1.1-.6-3.7-2.9-5.9-5l-3.9-3.8v-2.3c0-1.8.3-2.9,1.6-5.6,1.5-3.1,3.2-9,3.8-13,.1-1,.5-2.1.8-2.6.5-.7,2-7.4,3-13.5.2-1,.6-2.3.9-3,.4-.7.6-2.2.6-3.9,0-1.9.3-3.6,1-5.6,1.8-5.2,1.5-7.7-1.2-8.9-2.3-1-2.6-2.4-1.1-5.1.7-1.3,1.3-2.8,1.3-3.3,0-2.1-7-10.1-9.9-11.3-2.3-1-4.4-2.6-8.4-6.5-2-2-4.7-4.1-5.9-4.8-1.2-.7-2.9-1.9-3.6-2.8-3.7-4.1-7.3-8-8.5-9.3-.7-.8-1.7-2.2-2.1-3.2-.4-1-1.2-2.2-1.8-2.7-.6-.5-1.7-2.2-2.5-3.7-1.7-3.2-2.2-3.5-6.6-3.5s-3.4,0-5.9,1.6c-1.5.9-3.8,1.9-5.2,2.2-1.4.3-3.2.9-4,1.2-2.3.9-11.8,1-13.5,0-2.6-1.3-4.1-2.3-5.4-3.5-2-1.9-4.7-2.1-7.6-.4-2.4,1.4-2.1,1.3-7.4.6-2.1-.3-6.6-2-8.1-3-.6-.4-1.2-.8-1.4-.8-1.7,0-6.4-4.2-8-7.1-2.5-4.7-6.9-5.6-10.5-2.2M117.7,75.5c-2.4,2.6-12.8,3-16.1.5-1.5-1.1-2.3-1.1-2.9,0-1,2.2,1.2,4.3,7.1,6.8,1.7.7,9.3,1.3,11.2.8,1.1-.3,3.6-4.2,4.3-6.9.7-2.6-1.6-3.6-3.6-1.4M88.6,91.5c1.5.4,3.4,1.1,4,1.4.7.3,2.5.8,4.1,1,3.5.5,4.8,1,5.3,2,2.9,5.3-14,3.7-18.3-1.8-1.3-1.7-.3-4.2,1.5-3.6.4.1,1.9.6,3.5,1M125.2,97.6c3.9,0,7.5,0,8.2,0,1.1,0,1.2,0,1.3,1.4.2,2.8-3.1,3.3-11.3,1.7-1.8-.4-4-.5-6.2-.3-4.7.3-6.2-.5-4.3-2.3.7-.7,1.1-.8,3.1-.6,1.2.1,5.4.2,9.3.2M90.2,102c.5.2,2.5.4,4.6.6,5.8.4,9,2.4,6.3,3.8-1.3.7-17.9,0-19.1-.7-4-2.5,2.9-5.7,8.2-3.7M124.5,103.6c7.3,1.5,9.9,2.7,9.9,4.6s-2.4,2.9-4.9,2c-2-.7-7-1.4-11.9-1.6-4.8-.2-7.5-2.1-5.6-4,1.1-1.1,8.8-1.7,12.4-.9M98.5,110.8c2.4.5,3.7,1.5,3.3,2.7-.4,1.2-2.1,1.6-10.2,2.2-4.1.3-7.8.7-8.3.8-2.7.8-4.4-4.2-1.8-5.5,1.5-.8,13.6-1,17.1-.3M124.7,113.8c1.4.3,3.5.6,4.8.6,3.6,0,6.7,4.1,4.7,6.2-.9.9-2.3.8-6-.5-3.8-1.4-8.7-2.4-11.8-2.4-4,0-5.8-1.8-3.7-3.8,1.2-1.1,7.1-1.1,12,0M98,120.4c2.4,1.3.6,3.6-2.8,3.6s-1.9.3-2.8.6c-.9.3-3.4.8-5.6,1s-4.2.5-4.6.6c-.5.2-1.2,0-1.8-.5l-1-.8.8-1.1c1.9-2.6,14.7-5,17.8-3.3M116.8,121.3c1,.3,2.9.7,4.2.8,1.3.2,3.2.6,4.1,1.1.9.4,2.2.8,2.8.8,2.3,0,6.5,1.6,6.9,2.7.6,1.5.5,1.9-.9,3.4l-1.3,1.5-2.4-1c-1.5-.6-3.8-1.1-6-1.4-3.8-.4-5.2-.8-7.7-2-.8-.4-1.8-.8-2.2-.8-1.6,0-4.7-2.1-4.7-3.1,0-2.2,3.3-3.1,7.2-1.9M98.7,129.7c1.1,2.3-1.2,4.3-5.6,4.8-1.2.1-4.5.8-7.3,1.5-6,1.4-6.8,1.5-7.9.4-2.5-2.5,4-6.6,10.7-6.8.8,0,2.7-.3,4.1-.6,4-.8,5.3-.6,5.9.7M114.4,132.2c.9.3,3.4.8,5.6,1,12.4,1.3,13.2,1.8,9.5,5.3-1.7,1.7-3.9,1.9-5.4.5-1.2-1.1-5.8-2.3-10.4-2.9-2.4-.3-3.7-1.2-3.7-2.8s1.6-2.2,4.4-1.2M29.2,133.4c.4.4.4,1.5.3,3.8-.1,1.7,0,5.6.1,8.5.2,2.9.6,11.3.8,18.7s.6,13.6.8,13.8c1.5,1.9.7,4-1.4,3.6-1.7-.3-1.6.2-2.4-6.8-1.4-11.7-1.6-16.2-1.3-28.5.3-13.5.8-15.7,3-13M189.4,163.4c.1.5,0,1.8-.3,2.7-.3.9-.7,2.7-.8,3.9-.1,1.2-.8,4-1.4,6.2-.7,2.2-1.3,4.7-1.5,5.6-.2.9-.8,2.7-1.4,4.1-.6,1.3-1.3,3.4-1.6,4.6-.6,2.8-2,5.7-2.9,5.9-2.7.5-1.3-11.9,2.3-20.3.8-1.9,1.7-4.2,2-5.2,2.3-7.6,4.7-10.8,5.5-7.4M115.4,187.3c.8,1.2.5,2.9-1.1,5.8-.6,1.2-1.1,2.4-1.1,2.6,0,.9-6.5,7.2-7.9,7.6-3,.9-9.8-2-12.2-5.3-.5-.7-1.7-2.3-2.8-3.7-3-3.9-2.4-5.3,2.6-5.8,3.7-.4,5.4.3,6,2.3,1.2,4.4,5.1,3.9,7.3-.9.8-1.9,1.2-2.3,2-2.4.5,0,1.7-.3,2.7-.5,2.8-.8,3.9-.7,4.6.3M134.2,276.2c-1.3,1.8-1.1,3,.8,4.2,2.1,1.3,3.7,1,4.7-.9l.8-1.5-1.1-1.6c-1.5-2.2-3.7-2.3-5.3-.2M70.5,277.4c-1.8,1.3-.7,6.9,1.5,7.6,2.9.9,4.2-4.5,1.7-7.1-1.2-1.3-1.9-1.4-3.2-.5M130.6,286.7c-.4.2-1.3.5-1.8.8-.8.4-1.4.4-2.6,0-3.9-1.1-3.8-1.7-3.1,17.6.2,6.3.3,17.1.2,24-.4,20-.4,21.2.5,22.9,1.6,3.2,1.4,5.7-.5,7.4-3.8,3.5-5,6-3.3,6.9,1,.5,2,.2,3-1.1.5-.6,2.3-1.5,4.6-2.3l3.8-1.4,4.2,1.4c2.9,1,5.1,1.5,7.2,1.6,2.4.1,3.6.4,5.8,1.4,2.4,1.1,3.2,1.3,5.5,1.2,2.8,0,4,.3,6.3,2,.7.5,2,.8,4.5,1,4.3.3,4.7,0,4.7-2.9s.9-3.5,3.1-4c1.6-.3,2.5-1.3,1.8-1.9-.3-.3-2.6-.5-7.8-.5-6.6,0-7.5-.1-9.4-.9-1.2-.5-2.4-.9-2.8-.9s-1.6-.7-2.7-1.5c-3.9-3.1-8-5.6-9.5-5.8-2-.4-3-2.1-2.3-4.1.7-2,.6-11-.2-13.5-.4-1.2-.7-4.4-.9-8-.2-3.7-.5-6.3-.8-6.6-1.2-1.5-3.2-26.8-2.4-30.1.5-2-2.6-3.6-5.2-2.7M76.5,287.6c-.7.4-2.3,1-3.6,1.4-3.3.8-3.9,1.6-3.6,5.2,1.2,18.5,1.2,37.8-.2,53.5-.3,4-.3,4.9.2,5.9,1,1.9.6,3.3-.8,3.7-2.8.8-6.5,2.5-8.3,3.7-1,.7-2.7,1.5-3.8,1.7-1.1.2-3.4,1-5.2,1.7l-3.2,1.2-2.8-.6c-3.7-.8-8-.9-9.2,0-1.2.9-.5,1.8,1.4,1.8,4.3,0,4,2.7-.4,3.6-3.3.6-4.8,1.6-4.8,3.1s1.4,1.8,3.8.8c1.8-.7,7.1-.8,9.2-.2,2.1.6,6.8.5,8.2-.2.6-.3,1.3-.6,1.5-.6.2,0,1.5-.8,3-1.9,11.4-7.9,22-10.1,28-5.8,2.5,1.8,5.5,1.4,5.2-.6-.1-.9-.6-1.3-2.7-2.4-5.6-2.8-5.8-3.7-4-14.1.4-2.3.8-5.4.7-6.8,0-1.4.2-5.1.5-8.1.5-6,0-25-.9-28.4-.2-1-.6-2.9-.8-4.2s-.6-3.6-1-5-.8-3.8-1.1-5.2c-.8-3.9-2.5-5-5.4-3.2M129.2,296.4c.2.4.4,1.9.4,3.3,0,2.2.2,2.8,1.1,4,.9,1.2,1.3,2.2,1.8,5.8.4,2.4.9,5.5,1.3,7,.3,1.5.7,5.5.8,9,.2,5,.4,6.7,1,8.2,1.7,3.9.6,16.5-1.5,18-3.1,2.3-5.6-3.4-6.2-14.4-1-18.3-1.2-22.1-1.2-24.9,0-1.6,0-5.9-.2-9.3-.2-6.6,0-7.5,1.5-7.5s.9.3,1.2.8M77.6,296.8c1,.5,1.8,3.5,2.6,8.8.3,2.3.9,5.7,1.2,7.6,1.9,9.9.4,33.3-2.3,35.3-3.4,2.5-5.1-.2-3.9-6.1.2-1,.5-7.8.6-15.2.1-7.4.3-15.1.4-17.2.2-3.9-.4-10.7-1-11.4-1.2-1.2.8-2.7,2.4-1.8M175.2,366.7c-1.3,1.1-.5,2.9,1.3,2.9s3.3-2.4,1.3-3.2c-1.4-.5-1.5-.5-2.6.3"/>
      <path id="path1" class="st4" d="M-96,200v200h400V0H-96v200M120.7,29.4c.9.4,1.9,1,2.2,1.4.5.7,2.9,2.1,4.7,2.6,3.4,1,7,6,7.4,10.1.4,4.8-.2,5.7-4.4,6.1l-2.4.2v1.5c-.3,1.9.4,2.7,2.8,3.6,1.8.7,2.6,2,2.6,4.6,0,2.1-2.7,3.7-7.7,4.6-2.3.4-4.9,2.3-5.6,4.2-1.3,3.3-4.4,5.2-8.6,5.2s-2.5.2-3.1.4c-2.2.8-6.7-1-7.9-3.2-.6-1-1.2-2.1-1.4-2.4-.2-.3-.6-1.1-.8-1.6-1.9-4-2.3-4.4-4.9-4.4-4.3,0-6.2-8-3.2-13.5,1.3-2.5,1.5-3,1.6-6.8l.2-4.1,3.3-2.8c2.1-1.8,3.8-2.9,4.9-3.2.9-.2,2.3-.8,3.2-1.2.9-.4,3.1-1,5-1.4,1.9-.3,3.5-.7,3.6-.9.5-.5,7.1.2,8.7.9M112.4,47.8c-1.6,1.9,2.2,8.2,4.9,8.2,5.5,0,6.3-6.9.9-8.3-2.8-.7-5.2-.7-5.8,0M100,47.8c-.3,0-1.2.2-2,.4-4.8.8-3.3,10.2,1.7,10.2s2.2-.5,3.4-3.5c2.1-5.2.9-7.9-3.1-7.1M107.7,58.5c-1.3,1.4-2.3,5-1.8,6.1,1.1,2.5,6.5,1.8,6.8-.8.4-3.8-3.1-7.5-5-5.3M76.4,75.3c.8.5,1.9,1.9,2.6,3.1,1.6,3,6.3,7.1,8,7.1s.8.3,1.4.8c1.5,1.1,5.9,2.7,8.1,3,5.4.8,5,.8,7.4-.6,2.9-1.6,5.6-1.5,7.6.4,1.2,1.2,2.8,2.2,5.4,3.5,1.8.9,11.2.8,13.5,0,.8-.3,2.6-.8,4-1.2,1.4-.3,3.7-1.3,5.2-2.2,2.6-1.5,2.9-1.6,5.9-1.6,4.4,0,4.9.2,6.6,3.5.8,1.5,1.9,3.2,2.5,3.7.6.5,1.4,1.8,1.8,2.7.4,1,1.4,2.4,2.1,3.2,1.2,1.3,4.8,5.3,8.5,9.3.7.8,2.4,2.1,3.6,2.8,1.2.7,3.9,2.9,5.9,4.8,4,3.9,6.1,5.5,8.4,6.5,2.8,1.2,9.9,9.2,9.9,11.3s-.6,2.1-1.3,3.3c-1.5,2.7-1.2,4.1,1.1,5.1,2.7,1.1,3,3.6,1.2,8.9-.7,2-1,3.7-1,5.6,0,1.7-.2,3.2-.6,3.9-.3.7-.8,2-.9,3-1,6-2.6,12.7-3,13.5-.3.5-.7,1.6-.8,2.6-.6,4.1-2.3,10-3.8,13-1.3,2.7-1.6,3.8-1.6,5.6v2.3s3.9,3.8,3.9,3.8c2.2,2.1,4.8,4.3,5.9,5,2.4,1.4,5.3,3.6,6.6,5.1.5.6,1.4,1.4,2,1.6,1.1.6,1,.3,3.7,6.3,3,6.6,3.2,11.6.6,11.6s-1.4-.9-1.4-2.8c0-1.4-1.5-5.2-2.5-6.3-2.8-3-3.6,1.6-1.3,7.4,1.2,3.1,1.2,4.2-.2,4.4-1.5.2-2.3-1-4-5.9-.8-2.4-2.1-5.2-2.8-6.1-.7-.9-1.2-1.8-1.2-2,0-.7-3.3-4.6-4-4.8-1-.3-1.7,1-1.5,2.5.7,3.8,1.7,7.6,2.3,9,1.4,2.7.6,4.4-1.8,3.7-1.7-.4-5.4-10.3-5.7-15.1-.6-9.3-5.5-9.5-6.3-.3-.3,3.7-2.5,6.2-4,4.7-1-1-.7-7.6.5-9.8,1.6-3.1,1.7-4.1,1.1-5.7-.8-2-.8-15.3,0-18.7.3-1.3.8-3.7,1-5.3.2-1.6.7-3.1,1-3.3.3-.3.6-.8.6-1.2s.5-1.7,1-2.8,1.1-2.8,1.3-3.9c.1-1,.5-2.3.8-2.9,1.1-2.1,3-7.1,3.2-8.3.1-.7.5-1.5.8-1.7.3-.3.6-.7.6-.9s.3-1.1.7-1.9c3.7-7,3.7-12.7,0-15.9-.7-.6-1.9-1.9-2.5-2.9-1-1.6-3.8-5.1-5.9-7.4-.4-.4-2.7-3.1-5.2-5.9-7.4-8.5-21.1-22-23.2-22.9-.7-.3-1.8-1-2.6-1.5-1.8-1.4-2.4-1.3-4.7.6-3.7,3-4.2,7-1.6,13,2.5,5.7,2.4,14.3-.2,18.8-.8,1.3-1.5,2.8-1.7,3.3-1.2,4-5,8.3-6.9,7.9-2.1-.5-8-2.5-9.2-3.1-.6-.3-2.3-.8-3.7-1.1-1.4-.3-3.2-.7-3.9-1-2.1-.9-3.6-.7-4.2.4-.7,1.5.4,2.4,3,2.7,1.2.1,2.9.5,3.8.9.9.3,2.2.6,2.9.6,1.2,0,4,1.2,5.2,2.3,1.9,1.7-.2,3.7-2.4,2.3-2-1.3-8.8-1.8-10.4-.8-1.7,1.1-.6,3.4,1.7,3.4s9.9,3.7,10.5,4.8c1,1.9-1.1,2.4-3.8,1-7.4-3.9-10.2-1.8-8,6.2,1.2,4.7,1.2,5.1,0,9.6-.5,2.1-1,3.8-1,3.8,0,1.2,4.3,1.8,6.6.9.6-.2,2.7-1.9,4.6-3.8s3.9-3.4,4.3-3.4.9-.2,1.2-.5c1-1,6-.9,7.7.2,3.1,2,3,8.5,0,14.5-2.6,5.1-2.8,7.7-1,11.6l1.2,2.4-.5,5.2c-.3,2.9-.7,6.4-1.1,7.8-1.2,5.3-1,42.2.3,44,.4.5.7,1.4.7,2s.4,1.7,1,2.5c1.8,2.7,1,6-1.6,6.5-.5.1-1.4.3-2,.4-2.1.4-5.8,4.8-7.9,9.3-1.3,2.8-4.6,2.5-4.6-.4,0-4.3.8-8.2,2.1-11.2,2.4-5.3,2.6-7,2.3-33.3,0-7.5,0-17.6.3-22.4.6-13,0-14.2-5.5-8.9-3.4,3.3-5.5,6.1-6.4,8.6-1,2.9-1.2,3-9.9,2.4l-7.5-.5-2-2.8c-1.1-1.5-2.8-3.6-3.8-4.6-1-1-1.9-2-2-2.2-.6-1.4-4.8-4.6-6.1-4.6s-1.8.3-3,4.5c-.9,3.3-.9,3.2.5,10.5.3,1.8.8,6.2,1,9.8.2,3.6.6,7.6.8,8.8.2,1.2.5,9.1.5,17.6.1,9.6.3,15.9.6,16.8.2.8.4,2.3.4,3.3s.2,3.2.5,4.7c.5,3.1.3,3.6-1.6,3.6-1.1,0-3.1-2.1-3.7-3.9-.6-1.8-3-1.9-5.1-.3-3.1,2.4-5.7.1-3.7-3.2.5-.8.8-2.4,1-4.2.2-2.9.9-7.1,2.1-12.4,1-4.4,1.2-12.8.5-17.4-.4-2.2-.9-5.7-1.2-7.7-.3-2-.7-6.2-.9-9.2-.2-3.1-.5-6.2-.8-7.1-2.4-6.7-2.3-9,.4-11.9,3.2-3.4,3-5.3-.6-4.3-2.1.6-2.3.5-4.2-1.4-1.9-1.8-2.2-3.1-1.4-5.2.2-.5.6-2.7.8-4.7.4-3.4.5-3.8,1.6-4.7.6-.6,2.1-2.6,3.2-4.5,3.2-5.5,6.4-5.4,9.2.3,1.4,2.8,3.4,4.8,5.7,5.6,1.1.4,2,.8,2.1,1,.8,1.2,5.6.2,8-1.7,7.8-6.3,9.5-11.2,5.5-16.7-1.1-1.6-1.1-2,.7-4.8,2.6-4.1-.3-4.9-8.3-2.2-2.1.7-3.3.4-3.6-.8-.6-2.3,1.1-3.2,7.1-3.6,4.5-.3,5-.5,5.4-2,.9-3.7-3.5-5.7-8.2-3.6-1.2.5-3.1,1.1-4.2,1.2-1.1.1-2.3.5-2.5.8-.6.8-3,.7-3.7,0-1.6-1.6-.1-3.1,3.3-3.5,1.4-.1,3.5-.6,4.8-1.1,1.3-.5,3.4-1,4.7-1.2,3.2-.5,5-1.4,5-2.6,0-2.2-3.6-2.6-7.5-.9-.9.4-1.9.8-2.2.8s-1.6.4-2.8.8c-3.8,1.3-11.4,1.2-12.8-.3l-1.1-1.1v-8.2c.3-9.6,1-14.5,2.8-19,.9-2.2,1.3-4,1.4-5.8,0-1.4.3-3.1.5-3.6,1.8-4.3,1.4-12.2-.6-12.6-5-1-6.1-.7-8.1,2.2-4.8,7-9.2,12.6-14.1,17.8-1.9,2-3.5,3.9-3.5,4.1s-.7.8-1.5,1.3c-.8.5-1.9,1.4-2.4,2.2-1.6,2.4-5,5.4-8.9,8-5.5,3.7-5.2,2.9-5.5,11.3-.2,3.9-.2,9.5,0,12.4,1.5,25.9,1.9,43.8,1,46.3-1.2,3.3-1,4.9.9,6.6.9.8,2.7,2.6,4.1,3.9,1.4,1.3,3.1,2.7,3.8,2.9,2.5,1,3.8,3.6,2.9,5.8-.7,1.7-2.2,1.7-3.8,0-.8-.8-2.3-1.9-3.5-2.5-1.1-.6-2.6-1.4-3.2-1.9-1.1-.8-1.1-.8-1.9-.1-.4.4-2.3,1.6-4.1,2.7-7,4.1-6.6,3.8-6.9,5.4-.4,2.2-1.3,4.8-2.7,7.4-.6,1.3-1.6,4-2.1,6-1.5,6.2-2.2,7.3-3.8,6.3-.9-.6-.8-5.3.1-6.3.4-.4.9-1.8,1.1-3.1.2-1.3.8-3.1,1.2-4,1.1-2.3,1.4-5.5.7-6.1-.6-.5-2.7.7-2.7,1.6s-.6,1.2-1.2,2.2c-1.2,1.7-1.2,1.9-1.1,5.6.2,6.9-2.1,6.3-4.7-1.2-1-2.8-.9-3.5.7-5.7.7-1,1.8-2.9,2.4-4.1,1.1-2.2,1.8-3,9.1-9.6q8.3-7.4,4-11.9l-2.4-2.5-.2-22.1c-.2-23-.5-28.9-1.9-32.6-.6-1.5-.8-3.1-.8-5.5s-.2-3.5-.4-3.6c-1.6-1,.7-4.7,4-6.4.7-.4,3-2.1,5-3.7,5.2-4.4,7.9-6.5,10.7-8.6,1.4-1,5.1-4.3,8.2-7.3s6.5-5.9,7.4-6.6c4.7-3.2,10.7-10.1,10.7-12.3s2-4.6,4.5-7c2.4-2.3,5.4-2.7,8-1M121.2,75c1,1.3-2.4,8.4-4.2,8.9-1.9.5-9.5-.1-11.2-.8-5.9-2.6-8.1-4.6-7.1-6.8.5-1.2,1.3-1.2,2.9,0,3.3,2.4,13.6,2.1,16.1-.5,1.2-1.2,2.7-1.5,3.5-.6M83.6,91.2c-3.7,3.7,9.8,9.7,17.1,7.7,4.1-1.2,1.7-4.1-4-4.9-1.6-.2-3.4-.7-4.1-1s-2.5-1-4-1.4c-1.5-.4-3.1-.9-3.5-1-.4-.1-1,.2-1.5.6M112.8,98c-1.9,1.9-.4,2.6,4.3,2.3,2.2-.2,4.4,0,6.2.3,8.2,1.6,11.6,1.1,11.3-1.7-.1-1.4-.2-1.5-1.3-1.4-2.6.2-15.3,0-17.5-.1-2-.2-2.4-.1-3.1.6M82.8,101.9c-1.8.9-2.2,2.9-.7,3.8,1.2.8,17.8,1.4,19.1.7,2.7-1.5-.5-3.4-6.3-3.8-2.1-.2-4.1-.4-4.6-.6-2.1-.8-6-.9-7.4-.1M115.4,103.6c-6.5.8-4.8,4.6,2.2,4.9,4.8.2,9.9.9,11.9,1.6,1.8.7,3,.5,4.2-.5,1.6-1.4.3-3.5-2.5-4.4-6.9-2.1-9.7-2.4-15.8-1.7M81.5,111.2c-2.5,1.3-.9,6.3,1.8,5.5.5-.1,4.2-.5,8.3-.8,9.8-.8,11.9-1.6,9.7-3.8-1.6-1.6-17-2.2-19.9-.8M114.6,113.1c-4.7.6-3.2,4.5,1.8,4.5,3.1,0,8,1,11.8,2.4,3.7,1.3,5.1,1.4,6,.5,2.1-2.1-1.1-6.2-4.7-6.2s-3.4-.3-4.8-.6c-2.7-.6-8.1-1-10.1-.7M88.6,120.4c-3.4.4-7.4,2-8.4,3.3l-.8,1.1,1,.8c.6.5,1.3.7,1.8.5.5-.1,2.5-.4,4.6-.6s4.6-.6,5.6-1c.9-.3,2.2-.6,2.8-.6,2.8,0,3.6-.4,3.6-1.8,0-2.2-3-2.7-10.2-1.7M110.5,121.7c-1.1,1.1-1.1,1.9-.2,2.8,1,.9,3.1,1.9,4,1.9s1.4.3,2.2.8c2.5,1.3,3.9,1.6,7.7,2,2.2.2,4.5.8,6,1.4l2.4,1,1.3-1.5c2.7-3-.4-6.1-6-6.1s-1.9-.3-2.8-.8c-.9-.4-2.8-.9-4.1-1.1s-3.2-.5-4.2-.8c-2.9-.9-5.3-.7-6.3.4M92.8,129c-1.4.3-3.3.5-4.1.6-6.7.2-13.2,4.3-10.7,6.8,1.1,1.1,1.9,1,7.9-.4,2.8-.7,6-1.3,7.3-1.5,4.4-.5,6.7-2.5,5.6-4.8-.7-1.4-1.9-1.5-5.9-.7M110.7,132c-2,1.2-.2,3.8,3,4.1,4.6.6,9.2,1.9,10.4,2.9,1.6,1.3,3.7,1.1,5.4-.5,3.7-3.5,2.8-4-9.5-5.3-2.1-.2-4.6-.7-5.6-1-2-.7-2.7-.7-3.7-.2M26.8,133.6c-.6,1.2-1,24.2-.5,30.4.5,5.5,1.6,16.2,1.9,17.1.2.8,3,1.1,3.4.5.4-.6,0-2.7-.5-3.4-.2-.2-.5-6.4-.8-13.8-.3-7.4-.6-15.8-.8-18.7-.2-2.9-.3-6.7-.1-8.5.3-4-1.3-6.2-2.6-3.6M186.9,163.2c-.7.8-1.7,3.3-3,7.6-.3,1-1.2,3.3-2,5.2-3.6,8.4-5,20.8-2.3,20.3.8-.2,2.3-3.1,2.9-5.9.3-1.2,1-3.3,1.6-4.6.6-1.3,1.2-3.2,1.4-4.1.2-.9.8-3.4,1.5-5.6.6-2.2,1.3-5,1.4-6.2.1-1.2.5-3,.8-3.9,1-3.1-.3-4.8-2.2-2.9M110.8,187c-1,.3-2.2.5-2.7.5-.7,0-1.1.5-2,2.4-2.1,4.9-6.1,5.4-7.3.9-.5-2-2.2-2.7-6-2.3-5,.5-5.6,1.9-2.6,5.8,1,1.4,2.3,3,2.8,3.7,2.4,3.3,9.2,6.2,12.2,5.3,1.3-.4,7.9-6.7,7.9-7.6s.5-1.4,1.1-2.6c2.9-5.5,1.7-7.6-3.5-6.1M139.4,276.4l1.1,1.6-.8,1.5c-1.3,2.5-5.7,1.9-6.4-.9-.8-3.3,4.1-5.1,6.1-2.2M73.7,277.9c2.5,2.6,1.2,8-1.7,7.1-2.2-.7-3.3-6.3-1.5-7.6,1.3-.9,2-.8,3.2.5M135.3,287.6c.4.5.6,1.2.5,1.8-.8,3.3,1.1,28.7,2.4,30.1.3.3.6,2.9.8,6.6.2,3.7.5,6.8.9,8,.8,2.5.9,11.5.2,13.5-.7,2,.3,3.8,2.3,4.1,1.5.3,5.5,2.8,9.5,5.8,1.1.8,2.3,1.5,2.7,1.5s1.7.4,2.8.9c1.9.8,2.8.9,9.4.9,5.1,0,7.4.2,7.8.5.7.7-.1,1.6-1.8,1.9-2.2.5-3.1,1.6-3.1,4s-.4,3.2-4.7,2.9c-2.5-.2-3.8-.5-4.5-1-2.2-1.7-3.5-2-6.3-2-2.3,0-3.2-.1-5.5-1.2-2.2-1-3.5-1.3-5.8-1.4-2.1-.1-4.3-.6-7.2-1.6l-4.2-1.4-3.8,1.4c-2.3.8-4.1,1.7-4.6,2.3-1,1.2-2.1,1.6-3,1.1-1.7-.9-.5-3.4,3.3-6.9,1.9-1.7,2-4.2.5-7.4-.8-1.7-.9-2.9-.5-22.9.1-6.9,0-17.7-.2-24-.7-19.3-.8-18.6,3.1-17.6,1.2.3,1.8.3,2.6,0,2.8-1.4,5.4-1.4,6.5,0M80.7,287.5c.4.4,1,1.9,1.2,3.3.3,1.4.8,3.7,1.1,5.2s.8,3.7,1,5,.5,3.2.8,4.2c.8,3.4,1.4,22.3.9,28.4-.3,3-.5,6.6-.5,8.1,0,1.4-.3,4.5-.7,6.8-1.9,10.3-1.6,11.2,4,14.1,2.1,1.1,2.6,1.5,2.7,2.4.2,2.1-2.7,2.4-5.2.6-6-4.3-16.6-2.1-28,5.8-1.5,1-2.8,1.9-3,1.9-.2,0-.8.3-1.5.6-1.4.7-6.1.8-8.2.2-2.1-.6-7.3-.5-9.2.2-2.4,1-3.8.7-3.8-.8s1.5-2.5,4.8-3.1c4.4-.8,4.8-3.6.4-3.6s-2.6-.9-1.4-1.8c1.2-.8,5.5-.8,9.2,0l2.8.6,3.2-1.2c1.8-.7,4.1-1.4,5.2-1.7,1.1-.2,2.8-1,3.8-1.7,1.8-1.2,5.5-2.9,8.3-3.7,1.5-.4,1.8-1.9.8-3.7-.6-1.1-.6-1.9-.2-5.9,1.3-15.7,1.4-35,.2-53.5-.2-3.5.3-4.3,3.6-5.2,1.3-.3,2.9-.9,3.6-1.4,1.6-1,3.3-1,4.2-.1M126.8,296.2c-.3.4-.4,2.4-.2,6.9.1,3.5.2,7.7.2,9.3,0,2.8.2,6.6,1.2,24.9.6,11,3.1,16.7,6.2,14.4,2.1-1.5,3.1-14.1,1.5-18-.6-1.5-.8-3.2-1-8.2-.1-3.5-.5-7.5-.8-9-.3-1.5-.9-4.6-1.3-7-.6-3.6-.9-4.6-1.8-5.8-1-1.2-1.1-1.8-1.1-4,0-3.7-1.3-5.3-2.8-3.6M75.4,297c-.7.7-.8,1.1-.3,1.6.7.7,1.3,7.4,1,11.4-.1,2.1-.3,9.8-.4,17.2-.1,7.4-.4,14.2-.6,15.2-1.2,5.9.5,8.6,3.9,6.1,2.6-2,4.1-25.4,2.3-35.3-.4-1.9-.9-5.3-1.2-7.6-1.1-8-2.6-10.8-4.8-8.6M177.8,366.4c2.1.8,1.1,3.2-1.3,3.2s-2.6-1.8-1.3-2.9c1-.8,1.2-.8,2.6-.3"/>
    </g>
  </g>
  <g id="Layer_2" class="st2">
    <path id="path11" data-name="path1" class="st4" d="M-96,200v200h400V0H-96v200M120.7,29.4c.9.4,1.9,1,2.2,1.4.5.7,2.9,2.1,4.7,2.6,3.4,1,7,6,7.4,10.1.4,4.8-.2,5.7-4.4,6.1l-2.4.2v1.5c-.3,1.9.4,2.7,2.8,3.6,1.8.7,2.6,2,2.6,4.6,0,2.1-2.7,3.7-7.7,4.6-2.3.4-4.9,2.3-5.6,4.2-1.3,3.3-4.4,5.2-8.6,5.2s-2.5.2-3.1.4c-2.2.8-6.7-1-7.9-3.2-.6-1-1.2-2.1-1.4-2.4-.2-.3-.6-1.1-.8-1.6-1.9-4-2.3-4.4-4.9-4.4-4.3,0-6.2-8-3.2-13.5,1.3-2.5,1.5-3,1.6-6.8l.2-4.1,3.3-2.8c2.1-1.8,3.8-2.9,4.9-3.2.9-.2,2.3-.8,3.2-1.2.9-.4,3.1-1,5-1.4,1.9-.3,3.5-.7,3.6-.9.5-.5,7.1.2,8.7.9M112.4,47.8c-1.6,1.9,2.2,8.2,4.9,8.2,5.5,0,6.3-6.9.9-8.3-2.8-.7-5.2-.7-5.8,0M100,47.8c-.3,0-1.2.2-2,.4-4.8.8-3.3,10.2,1.7,10.2s2.2-.5,3.4-3.5c2.1-5.2.9-7.9-3.1-7.1M107.7,58.5c-1.3,1.4-2.3,5-1.8,6.1,1.1,2.5,6.5,1.8,6.8-.8.4-3.8-3.1-7.5-5-5.3M76.4,75.3c.8.5,1.9,1.9,2.6,3.1,1.6,3,6.3,7.1,8,7.1s.8.3,1.4.8c1.5,1.1,5.9,2.7,8.1,3,5.4.8,5,.8,7.4-.6,2.9-1.6,5.6-1.5,7.6.4,1.2,1.2,2.8,2.2,5.4,3.5,1.8.9,11.2.8,13.5,0,.8-.3,2.6-.8,4-1.2,1.4-.3,3.7-1.3,5.2-2.2,2.6-1.5,2.9-1.6,5.9-1.6,4.4,0,4.9.2,6.6,3.5.8,1.5,1.9,3.2,2.5,3.7.6.5,1.4,1.8,1.8,2.7.4,1,1.4,2.4,2.1,3.2,1.2,1.3,4.8,5.3,8.5,9.3.7.8,2.4,2.1,3.6,2.8,1.2.7,3.9,2.9,5.9,4.8,4,3.9,6.1,5.5,8.4,6.5,2.8,1.2,9.9,9.2,9.9,11.3s-.6,2.1-1.3,3.3c-1.5,2.7-1.2,4.1,1.1,5.1,2.7,1.1,3,3.6,1.2,8.9-.7,2-1,3.7-1,5.6,0,1.7-.2,3.2-.6,3.9-.3.7-.8,2-.9,3-1,6-2.6,12.7-3,13.5-.3.5-.7,1.6-.8,2.6-.6,4.1-2.3,10-3.8,13-1.3,2.7-1.6,3.8-1.6,5.6v2.3s3.9,3.8,3.9,3.8c2.2,2.1,4.8,4.3,5.9,5,2.4,1.4,5.3,3.6,6.6,5.1.5.6,1.4,1.4,2,1.6,1.1.6,1,.3,3.7,6.3,3,6.6,3.2,11.6.6,11.6s-1.4-.9-1.4-2.8c0-1.4-1.5-5.2-2.5-6.3-2.8-3-3.6,1.6-1.3,7.4,1.2,3.1,1.2,4.2-.2,4.4-1.5.2-2.3-1-4-5.9-.8-2.4-2.1-5.2-2.8-6.1-.7-.9-1.2-1.8-1.2-2,0-.7-3.3-4.6-4-4.8-1-.3-1.7,1-1.5,2.5.7,3.8,1.7,7.6,2.3,9,1.4,2.7.6,4.4-1.8,3.7-1.7-.4-5.4-10.3-5.7-15.1-.6-9.3-5.5-9.5-6.3-.3-.3,3.7-2.5,6.2-4,4.7-1-1-.7-7.6.5-9.8,1.6-3.1,1.7-4.1,1.1-5.7-.8-2-.8-15.3,0-18.7.3-1.3.8-3.7,1-5.3.2-1.6.7-3.1,1-3.3.3-.3.6-.8.6-1.2s.5-1.7,1-2.8,1.1-2.8,1.3-3.9c.1-1,.5-2.3.8-2.9,1.1-2.1,3-7.1,3.2-8.3.1-.7.5-1.5.8-1.7.3-.3.6-.7.6-.9s.3-1.1.7-1.9c3.7-7,3.7-12.7,0-15.9-.7-.6-1.9-1.9-2.5-2.9-1-1.6-3.8-5.1-5.9-7.4-.4-.4-2.7-3.1-5.2-5.9-7.4-8.5-21.1-22-23.2-22.9-.7-.3-1.8-1-2.6-1.5-1.8-1.4-2.4-1.3-4.7.6-3.7,3-4.2,7-1.6,13,2.5,5.7,2.4,14.3-.2,18.8-.8,1.3-1.5,2.8-1.7,3.3-1.2,4-5,8.3-6.9,7.9-2.1-.5-8-2.5-9.2-3.1-.6-.3-2.3-.8-3.7-1.1-1.4-.3-3.2-.7-3.9-1-2.1-.9-3.6-.7-4.2.4-.7,1.5.4,2.4,3,2.7,1.2.1,2.9.5,3.8.9.9.3,2.2.6,2.9.6,1.2,0,4,1.2,5.2,2.3,1.9,1.7-.2,3.7-2.4,2.3-2-1.3-8.8-1.8-10.4-.8-1.7,1.1-.6,3.4,1.7,3.4s9.9,3.7,10.5,4.8c1,1.9-1.1,2.4-3.8,1-7.4-3.9-10.2-1.8-8,6.2,1.2,4.7,1.2,5.1,0,9.6-.5,2.1-1,3.8-1,3.8,0,1.2,4.3,1.8,6.6.9.6-.2,2.7-1.9,4.6-3.8s3.9-3.4,4.3-3.4.9-.2,1.2-.5c1-1,6-.9,7.7.2,3.1,2,3,8.5,0,14.5-2.6,5.1-2.8,7.7-1,11.6l1.2,2.4-.5,5.2c-.3,2.9-.7,6.4-1.1,7.8-1.2,5.3-1,42.2.3,44,.4.5.7,1.4.7,2s.4,1.7,1,2.5c1.8,2.7,1,6-1.6,6.5-.5.1-1.4.3-2,.4-2.1.4-5.8,4.8-7.9,9.3-1.3,2.8-4.6,2.5-4.6-.4,0-4.3.8-8.2,2.1-11.2,2.4-5.3,2.6-7,2.3-33.3,0-7.5,0-17.6.3-22.4.6-13,0-14.2-5.5-8.9-3.4,3.3-5.5,6.1-6.4,8.6-1,2.9-1.2,3-9.9,2.4l-7.5-.5-2-2.8c-1.1-1.5-2.8-3.6-3.8-4.6-1-1-1.9-2-2-2.2-.6-1.4-4.8-4.6-6.1-4.6s-1.8.3-3,4.5c-.9,3.3-.9,3.2.5,10.5.3,1.8.8,6.2,1,9.8.2,3.6.6,7.6.8,8.8.2,1.2.5,9.1.5,17.6.1,9.6.3,15.9.6,16.8.2.8.4,2.3.4,3.3s.2,3.2.5,4.7c.5,3.1.3,3.6-1.6,3.6-1.1,0-3.1-2.1-3.7-3.9-.6-1.8-3-1.9-5.1-.3-3.1,2.4-5.7.1-3.7-3.2.5-.8.8-2.4,1-4.2.2-2.9.9-7.1,2.1-12.4,1-4.4,1.2-12.8.5-17.4-.4-2.2-.9-5.7-1.2-7.7-.3-2-.7-6.2-.9-9.2-.2-3.1-.5-6.2-.8-7.1-2.4-6.7-2.3-9,.4-11.9,3.2-3.4,3-5.3-.6-4.3-2.1.6-2.3.5-4.2-1.4-1.9-1.8-2.2-3.1-1.4-5.2.2-.5.6-2.7.8-4.7.4-3.4.5-3.8,1.6-4.7.6-.6,2.1-2.6,3.2-4.5,3.2-5.5,6.4-5.4,9.2.3,1.4,2.8,3.4,4.8,5.7,5.6,1.1.4,2,.8,2.1,1,.8,1.2,5.6.2,8-1.7,7.8-6.3,9.5-11.2,5.5-16.7-1.1-1.6-1.1-2,.7-4.8,2.6-4.1-.3-4.9-8.3-2.2-2.1.7-3.3.4-3.6-.8-.6-2.3,1.1-3.2,7.1-3.6,4.5-.3,5-.5,5.4-2,.9-3.7-3.5-5.7-8.2-3.6-1.2.5-3.1,1.1-4.2,1.2-1.1.1-2.3.5-2.5.8-.6.8-3,.7-3.7,0-1.6-1.6-.1-3.1,3.3-3.5,1.4-.1,3.5-.6,4.8-1.1,1.3-.5,3.4-1,4.7-1.2,3.2-.5,5-1.4,5-2.6,0-2.2-3.6-2.6-7.5-.9-.9.4-1.9.8-2.2.8s-1.6.4-2.8.8c-3.8,1.3-11.4,1.2-12.8-.3l-1.1-1.1v-8.2c.3-9.6,1-14.5,2.8-19,.9-2.2,1.3-4,1.4-5.8,0-1.4.3-3.1.5-3.6,1.8-4.3,1.4-12.2-.6-12.6-5-1-6.1-.7-8.1,2.2-4.8,7-9.2,12.6-14.1,17.8-1.9,2-3.5,3.9-3.5,4.1s-.7.8-1.5,1.3c-.8.5-1.9,1.4-2.4,2.2-1.6,2.4-5,5.4-8.9,8-5.5,3.7-5.2,2.9-5.5,11.3-.2,3.9-.2,9.5,0,12.4,1.5,25.9,1.9,43.8,1,46.3-1.2,3.3-1,4.9.9,6.6.9.8,2.7,2.6,4.1,3.9,1.4,1.3,3.1,2.7,3.8,2.9,2.5,1,3.8,3.6,2.9,5.8-.7,1.7-2.2,1.7-3.8,0-.8-.8-2.3-1.9-3.5-2.5-1.1-.6-2.6-1.4-3.2-1.9-1.1-.8-1.1-.8-1.9-.1-.4.4-2.3,1.6-4.1,2.7-7,4.1-6.6,3.8-6.9,5.4-.4,2.2-1.3,4.8-2.7,7.4-.6,1.3-1.6,4-2.1,6-1.5,6.2-2.2,7.3-3.8,6.3-.9-.6-.8-5.3.1-6.3.4-.4.9-1.8,1.1-3.1.2-1.3.8-3.1,1.2-4,1.1-2.3,1.4-5.5.7-6.1-.6-.5-2.7.7-2.7,1.6s-.6,1.2-1.2,2.2c-1.2,1.7-1.2,1.9-1.1,5.6.2,6.9-2.1,6.3-4.7-1.2-1-2.8-.9-3.5.7-5.7.7-1,1.8-2.9,2.4-4.1,1.1-2.2,1.8-3,9.1-9.6q8.3-7.4,4-11.9l-2.4-2.5-.2-22.1c-.2-23-.5-28.9-1.9-32.6-.6-1.5-.8-3.1-.8-5.5s-.2-3.5-.4-3.6c-1.6-1,.7-4.7,4-6.4.7-.4,3-2.1,5-3.7,5.2-4.4,7.9-6.5,10.7-8.6,1.4-1,5.1-4.3,8.2-7.3s6.5-5.9,7.4-6.6c4.7-3.2,10.7-10.1,10.7-12.3s2-4.6,4.5-7c2.4-2.3,5.4-2.7,8-1M121.2,75c1,1.3-2.4,8.4-4.2,8.9-1.9.5-9.5-.1-11.2-.8-5.9-2.6-8.1-4.6-7.1-6.8.5-1.2,1.3-1.2,2.9,0,3.3,2.4,13.6,2.1,16.1-.5,1.2-1.2,2.7-1.5,3.5-.6M83.6,91.2c-3.7,3.7,9.8,9.7,17.1,7.7,4.1-1.2,1.7-4.1-4-4.9-1.6-.2-3.4-.7-4.1-1s-2.5-1-4-1.4c-1.5-.4-3.1-.9-3.5-1-.4-.1-1,.2-1.5.6M112.8,98c-1.9,1.9-.4,2.6,4.3,2.3,2.2-.2,4.4,0,6.2.3,8.2,1.6,11.6,1.1,11.3-1.7-.1-1.4-.2-1.5-1.3-1.4-2.6.2-15.3,0-17.5-.1-2-.2-2.4-.1-3.1.6M82.8,101.9c-1.8.9-2.2,2.9-.7,3.8,1.2.8,17.8,1.4,19.1.7,2.7-1.5-.5-3.4-6.3-3.8-2.1-.2-4.1-.4-4.6-.6-2.1-.8-6-.9-7.4-.1M115.4,103.6c-6.5.8-4.8,4.6,2.2,4.9,4.8.2,9.9.9,11.9,1.6,1.8.7,3,.5,4.2-.5,1.6-1.4.3-3.5-2.5-4.4-6.9-2.1-9.7-2.4-15.8-1.7M81.5,111.2c-2.5,1.3-.9,6.3,1.8,5.5.5-.1,4.2-.5,8.3-.8,9.8-.8,11.9-1.6,9.7-3.8-1.6-1.6-17-2.2-19.9-.8M114.6,113.1c-4.7.6-3.2,4.5,1.8,4.5,3.1,0,8,1,11.8,2.4,3.7,1.3,5.1,1.4,6,.5,2.1-2.1-1.1-6.2-4.7-6.2s-3.4-.3-4.8-.6c-2.7-.6-8.1-1-10.1-.7M88.6,120.4c-3.4.4-7.4,2-8.4,3.3l-.8,1.1,1,.8c.6.5,1.3.7,1.8.5.5-.1,2.5-.4,4.6-.6s4.6-.6,5.6-1c.9-.3,2.2-.6,2.8-.6,2.8,0,3.6-.4,3.6-1.8,0-2.2-3-2.7-10.2-1.7M110.5,121.7c-1.1,1.1-1.1,1.9-.2,2.8,1,.9,3.1,1.9,4,1.9s1.4.3,2.2.8c2.5,1.3,3.9,1.6,7.7,2,2.2.2,4.5.8,6,1.4l2.4,1,1.3-1.5c2.7-3-.4-6.1-6-6.1s-1.9-.3-2.8-.8c-.9-.4-2.8-.9-4.1-1.1s-3.2-.5-4.2-.8c-2.9-.9-5.3-.7-6.3.4M92.8,129c-1.4.3-3.3.5-4.1.6-6.7.2-13.2,4.3-10.7,6.8,1.1,1.1,1.9,1,7.9-.4,2.8-.7,6-1.3,7.3-1.5,4.4-.5,6.7-2.5,5.6-4.8-.7-1.4-1.9-1.5-5.9-.7M110.7,132c-2,1.2-.2,3.8,3,4.1,4.6.6,9.2,1.9,10.4,2.9,1.6,1.3,3.7,1.1,5.4-.5,3.7-3.5,2.8-4-9.5-5.3-2.1-.2-4.6-.7-5.6-1-2-.7-2.7-.7-3.7-.2M26.8,133.6c-.6,1.2-1,24.2-.5,30.4.5,5.5,1.6,16.2,1.9,17.1.2.8,3,1.1,3.4.5.4-.6,0-2.7-.5-3.4-.2-.2-.5-6.4-.8-13.8-.3-7.4-.6-15.8-.8-18.7-.2-2.9-.3-6.7-.1-8.5.3-4-1.3-6.2-2.6-3.6M186.9,163.2c-.7.8-1.7,3.3-3,7.6-.3,1-1.2,3.3-2,5.2-3.6,8.4-5,20.8-2.3,20.3.8-.2,2.3-3.1,2.9-5.9.3-1.2,1-3.3,1.6-4.6.6-1.3,1.2-3.2,1.4-4.1.2-.9.8-3.4,1.5-5.6.6-2.2,1.3-5,1.4-6.2.1-1.2.5-3,.8-3.9,1-3.1-.3-4.8-2.2-2.9M110.8,187c-1,.3-2.2.5-2.7.5-.7,0-1.1.5-2,2.4-2.1,4.9-6.1,5.4-7.3.9-.5-2-2.2-2.7-6-2.3-5,.5-5.6,1.9-2.6,5.8,1,1.4,2.3,3,2.8,3.7,2.4,3.3,9.2,6.2,12.2,5.3,1.3-.4,7.9-6.7,7.9-7.6s.5-1.4,1.1-2.6c2.9-5.5,1.7-7.6-3.5-6.1M139.4,276.4l1.1,1.6-.8,1.5c-1.3,2.5-5.7,1.9-6.4-.9-.8-3.3,4.1-5.1,6.1-2.2M73.7,277.9c2.5,2.6,1.2,8-1.7,7.1-2.2-.7-3.3-6.3-1.5-7.6,1.3-.9,2-.8,3.2.5M135.3,287.6c.4.5.6,1.2.5,1.8-.8,3.3,1.1,28.7,2.4,30.1.3.3.6,2.9.8,6.6.2,3.7.5,6.8.9,8,.8,2.5.9,11.5.2,13.5-.7,2,.3,3.8,2.3,4.1,1.5.3,5.5,2.8,9.5,5.8,1.1.8,2.3,1.5,2.7,1.5s1.7.4,2.8.9c1.9.8,2.8.9,9.4.9,5.1,0,7.4.2,7.8.5.7.7-.1,1.6-1.8,1.9-2.2.5-3.1,1.6-3.1,4s-.4,3.2-4.7,2.9c-2.5-.2-3.8-.5-4.5-1-2.2-1.7-3.5-2-6.3-2-2.3,0-3.2-.1-5.5-1.2-2.2-1-3.5-1.3-5.8-1.4-2.1-.1-4.3-.6-7.2-1.6l-4.2-1.4-3.8,1.4c-2.3.8-4.1,1.7-4.6,2.3-1,1.2-2.1,1.6-3,1.1-1.7-.9-.5-3.4,3.3-6.9,1.9-1.7,2-4.2.5-7.4-.8-1.7-.9-2.9-.5-22.9.1-6.9,0-17.7-.2-24-.7-19.3-.8-18.6,3.1-17.6,1.2.3,1.8.3,2.6,0,2.8-1.4,5.4-1.4,6.5,0M80.7,287.5c.4.4,1,1.9,1.2,3.3.3,1.4.8,3.7,1.1,5.2s.8,3.7,1,5,.5,3.2.8,4.2c.8,3.4,1.4,22.3.9,28.4-.3,3-.5,6.6-.5,8.1,0,1.4-.3,4.5-.7,6.8-1.9,10.3-1.6,11.2,4,14.1,2.1,1.1,2.6,1.5,2.7,2.4.2,2.1-2.7,2.4-5.2.6-6-4.3-16.6-2.1-28,5.8-1.5,1-2.8,1.9-3,1.9-.2,0-.8.3-1.5.6-1.4.7-6.1.8-8.2.2-2.1-.6-7.3-.5-9.2.2-2.4,1-3.8.7-3.8-.8s1.5-2.5,4.8-3.1c4.4-.8,4.8-3.6.4-3.6s-2.6-.9-1.4-1.8c1.2-.8,5.5-.8,9.2,0l2.8.6,3.2-1.2c1.8-.7,4.1-1.4,5.2-1.7,1.1-.2,2.8-1,3.8-1.7,1.8-1.2,5.5-2.9,8.3-3.7,1.5-.4,1.8-1.9.8-3.7-.6-1.1-.6-1.9-.2-5.9,1.3-15.7,1.4-35,.2-53.5-.2-3.5.3-4.3,3.6-5.2,1.3-.3,2.9-.9,3.6-1.4,1.6-1,3.3-1,4.2-.1M126.8,296.2c-.3.4-.4,2.4-.2,6.9.1,3.5.2,7.7.2,9.3,0,2.8.2,6.6,1.2,24.9.6,11,3.1,16.7,6.2,14.4,2.1-1.5,3.1-14.1,1.5-18-.6-1.5-.8-3.2-1-8.2-.1-3.5-.5-7.5-.8-9-.3-1.5-.9-4.6-1.3-7-.6-3.6-.9-4.6-1.8-5.8-1-1.2-1.1-1.8-1.1-4,0-3.7-1.3-5.3-2.8-3.6M75.4,297c-.7.7-.8,1.1-.3,1.6.7.7,1.3,7.4,1,11.4-.1,2.1-.3,9.8-.4,17.2-.1,7.4-.4,14.2-.6,15.2-1.2,5.9.5,8.6,3.9,6.1,2.6-2,4.1-25.4,2.3-35.3-.4-1.9-.9-5.3-1.2-7.6-1.1-8-2.6-10.8-4.8-8.6M177.8,366.4c2.1.8,1.1,3.2-1.3,3.2s-2.6-1.8-1.3-2.9c1-.8,1.2-.8,2.6-.3"/>
  </g>
  <g id="Layer_3">
    <g class="st5">
      <rect width="217" height="400"/>
    </g>
  </g>
</svg>