<svg xmlns="http://www.w3.org/2000/svg" viewBox="0 0 397 408">
  <g id="specs-1">
    <circle cx="151.17" cy="184.17" r="26.83" style="fill: none; stroke: #000; stroke-miterlimit: 10; stroke-width: 5px;"/>
    <circle cx="227.17" cy="184.17" r="26.83" style="fill: none; stroke: #000; stroke-miterlimit: 10; stroke-width: 5px;"/>
    <line x1="179.33" y1="184.33" x2="200.33" y2="184.17" style="fill: none; stroke: #000; stroke-miterlimit: 10; stroke-width: 5px;"/>
    <line x1="123" y1="184" x2="102.33" y2="176.67" style="fill: none; stroke: #000; stroke-miterlimit: 10; stroke-width: 5px;"/>
    <line x1="254.67" y1="183" x2="278" y2="175.33" style="fill: none; stroke: #000; stroke-miterlimit: 10; stroke-width: 5px;"/>
  </g>
  <g id="tash-1">
    <polygon points="159.67 237 187.67 245.67 213.33 239.67 224.67 248 237.67 257 221.33 253.67 195.33 259 187.67 255.33 180.67 259.33 156 252 138.67 258 159.67 237" style="stroke: #000; stroke-miterlimit: 10; stroke-width: 5px;"/>
  </g>
  <g id="beard-1">
    <path d="M159.67,283.33c0,1,17.67,38.67,17.67,38.67l20.33.33,22-40.33-29.33,9.67-30.67-8.33Z" style="stroke: #000; stroke-miterlimit: 10; stroke-width: 5px;"/>
  </g>
  <g id="hat-1">
    <polygon points="30.67 105 351.33 134 290.89 120 245.65 11.67 184.49 29 154.81 6.33 88.94 103.33 30.67 105" style="stroke: #000; stroke-miterlimit: 10; stroke-width: 5.21px;"/>
  </g>
</svg>