<svg xmlns="http://www.w3.org/2000/svg" aria-hidden="true" viewBox="0 0 3440 250">
  <defs>
    <style>
      .cls-1 {
        fill: #ff00cf;
      }

      .cls-1, .cls-2, .cls-3, .cls-4, .cls-5, .cls-6, .cls-7 {
        stroke-width: 0px;
      }

      .cls-2 {
        fill: #ff9d00;
      }

      .cls-4 {
        fill: red;
      }

      .cls-5 {
        fill: #00ce00;
      }

      .cls-6 {
        fill: #05f;
      }

      .cls-7 {
        fill: #f7ea00;
      }
    </style>
  </defs>
  <path class="cls-5" d="M52.98,44.37c-2.77-2.13-6.25-3.4-10.03-3.4-8.9,0-16.14,7.03-16.36,15.79-9.19,3.41-15.72,12.19-15.72,22.48,0,12.16,9.12,22.2,20.95,23.79v.22h83.82v-.04c11.69-.67,20.95-10.27,20.95-22.02s-8.62-20.67-19.71-21.92c.05-.69.07-1.39.07-2.09,0-17.56-14.95-31.79-33.4-31.79-13.65,0-25.39,7.8-30.57,18.97"/>
  <path class="cls-2" d="M164.04,44.5c-2.64-2.03-5.95-3.23-9.54-3.23-8.47,0-15.36,6.69-15.57,15.03-8.74,3.25-14.96,11.61-14.96,21.4,0,11.57,8.68,21.13,19.94,22.64v.21h79.77v-.04c11.12-.64,19.94-9.78,19.94-20.96s-8.2-19.67-18.76-20.86c.04-.65.07-1.32.07-1.99,0-16.71-14.23-30.26-31.78-30.26-12.99,0-24.16,7.42-29.1,18.06"/>
  <path class="cls-5" d="M292.29,18.82c-2.48-1.91-5.59-3.04-8.97-3.04-7.95,0-14.43,6.29-14.63,14.12-8.21,3.05-14.06,10.9-14.06,20.1,0,10.87,8.15,19.85,18.73,21.27v.2h74.94v-.03c10.45-.6,18.73-9.19,18.73-19.69s-7.71-18.48-17.62-19.6c.04-.61.06-1.24.06-1.87,0-15.7-13.37-28.42-29.86-28.42-12.2,0-22.7,6.97-27.33,16.96"/>
  <path class="cls-2" d="M419.88,48.54c-2.54-1.96-5.73-3.12-9.19-3.12-8.15,0-14.79,6.44-15,14.48-8.42,3.13-14.41,11.18-14.41,20.61,0,11.14,8.36,20.35,19.2,21.8v.2h76.83v-.04c10.71-.62,19.2-9.42,19.2-20.19s-7.9-18.94-18.07-20.09c.04-.63.07-1.27.07-1.91,0-16.09-13.71-29.14-30.61-29.14-12.51,0-23.27,7.15-28.02,17.39"/>
  <path class="cls-7" d="M554.93,48.61c-2.21-1.7-4.98-2.71-7.99-2.71-7.08,0-12.85,5.6-13.03,12.58-7.31,2.72-12.52,9.71-12.52,17.9,0,9.68,7.26,17.68,16.68,18.94v.18h66.75v-.03c9.31-.54,16.68-8.18,16.68-17.54s-6.86-16.46-15.7-17.45c.04-.55.06-1.11.06-1.66,0-13.98-11.91-25.31-26.59-25.31-10.87,0-20.22,6.21-24.34,15.11"/>
  <path class="cls-2" d="M677.53,18.31c-2.2-1.7-4.96-2.7-7.97-2.7-7.07,0-12.82,5.59-13,12.55-7.3,2.71-12.49,9.69-12.49,17.86,0,9.66,7.25,17.64,16.65,18.9v.18h66.6v-.03c9.29-.54,16.65-8.16,16.65-17.5s-6.85-16.42-15.66-17.41c.04-.55.06-1.1.06-1.66,0-13.95-11.88-25.26-26.53-25.26-10.85,0-20.17,6.19-24.29,15.07"/>
  <path class="cls-5" d="M796.59,47.79c-3.27-2.52-7.37-4.01-11.83-4.01-10.5,0-19.04,8.3-19.31,18.64-10.84,4.03-18.55,14.39-18.55,26.53,0,14.34,10.76,26.2,24.72,28.07v.26h98.91v-.05c13.79-.8,24.72-12.12,24.72-25.99s-10.17-24.39-23.26-25.86c.05-.81.09-1.64.09-2.46,0-20.72-17.64-37.51-39.41-37.51-16.11,0-29.96,9.2-36.07,22.39"/>
  <path class="cls-2" d="M932.69,21.69c-2.2-1.69-4.95-2.69-7.95-2.69-7.05,0-12.79,5.57-12.96,12.51-7.28,2.7-12.46,9.66-12.46,17.81,0,9.63,7.23,17.59,16.6,18.85v.17h66.41v-.03c9.26-.53,16.6-8.14,16.6-17.45s-6.83-16.37-15.62-17.37c.04-.54.06-1.1.06-1.65,0-13.91-11.85-25.19-26.46-25.19-10.81,0-20.12,6.18-24.22,15.03"/>
  <path class="cls-4" d="M1055.12,18.28c-2.35-1.81-5.29-2.88-8.49-2.88-7.53,0-13.66,5.95-13.85,13.37-7.77,2.89-13.31,10.32-13.31,19.03,0,10.29,7.72,18.79,17.73,20.13v.19h70.94v-.03c9.89-.57,17.73-8.7,17.73-18.64s-7.29-17.49-16.69-18.55c.04-.58.06-1.17.06-1.77,0-14.86-12.66-26.91-28.27-26.91-11.55,0-21.49,6.6-25.88,16.06"/>
  <path class="cls-2" d="M1877.76,26.22c-3-2.31-6.77-3.68-10.87-3.68-9.64,0-17.49,7.62-17.73,17.11-9.95,3.7-17.04,13.21-17.04,24.36,0,13.17,9.88,24.06,22.7,25.77v.24h90.82v-.04c12.66-.73,22.7-11.13,22.7-23.86s-9.34-22.39-21.36-23.75c.05-.75.08-1.5.08-2.26,0-19.02-16.2-34.44-36.18-34.44-14.79,0-27.51,8.45-33.12,20.56"/>
  <path class="cls-7" d="M1314.04,52.62c-3.04-2.34-6.86-3.73-11-3.73-9.76,0-17.7,7.71-17.95,17.33-10.08,3.74-17.25,13.38-17.25,24.66,0,13.34,10,24.36,22.99,26.09v.24h91.96v-.04c12.82-.74,22.99-11.27,22.99-24.16s-9.46-22.67-21.63-24.05c.05-.75.08-1.52.08-2.29,0-19.26-16.4-34.88-36.64-34.88-14.97,0-27.85,8.55-33.54,20.81"/>
  <path class="cls-1" d="M1437.7,19.35c-2.89-2.23-6.52-3.55-10.47-3.55-9.28,0-16.84,7.34-17.08,16.48-9.59,3.56-16.41,12.73-16.41,23.46,0,12.69,9.52,23.17,21.86,24.82v.23h87.47v-.04c12.2-.7,21.86-10.72,21.86-22.98s-8.99-21.57-20.57-22.87c.05-.72.08-1.45.08-2.18,0-18.32-15.6-33.18-34.85-33.18-14.24,0-26.5,8.14-31.9,19.8"/>
  <path class="cls-6" d="M1563.81,26.49c-2.62-2.02-5.9-3.21-9.47-3.21-8.4,0-15.25,6.64-15.46,14.92-8.68,3.22-14.85,11.52-14.85,21.24,0,11.48,8.62,20.98,19.79,22.47v.21h79.18v-.04c11.04-.64,19.79-9.71,19.79-20.8s-8.14-19.52-18.62-20.71c.04-.65.07-1.31.07-1.97,0-16.59-14.13-30.03-31.55-30.03-12.89,0-23.99,7.37-28.88,17.92"/>
  <path class="cls-5" d="M1700.24,29.96c-2.37-1.82-5.34-2.9-8.57-2.9-7.6,0-13.79,6.01-13.98,13.49-7.85,2.91-13.43,10.42-13.43,19.21,0,10.38,7.79,18.97,17.9,20.32v.19h71.61v-.03c9.98-.58,17.9-8.78,17.9-18.81s-7.36-17.65-16.84-18.72c.04-.59.06-1.19.06-1.78,0-15-12.77-27.16-28.53-27.16-11.66,0-21.69,6.66-26.12,16.21"/>
  <path class="cls-7" d="M1823.63,27.49c-2.46-1.89-5.54-3.01-8.89-3.01-7.89,0-14.31,6.23-14.5,14-8.14,3.02-13.94,10.81-13.94,19.93,0,10.78,8.08,19.68,18.57,21.09v.2h74.3v-.03c10.36-.6,18.57-9.11,18.57-19.52s-7.64-18.32-17.48-19.43c.04-.61.06-1.23.06-1.85,0-15.57-13.26-28.18-29.6-28.18-12.1,0-22.51,6.91-27.1,16.82"/>
  <path class="cls-6" d="M1947.26,32.25c-2.51-1.94-5.67-3.08-9.1-3.08-8.07,0-14.64,6.38-14.84,14.33-8.33,3.09-14.26,11.06-14.26,20.39,0,11.03,8.27,20.14,19.01,21.58v.2h76.03v-.04c10.6-.61,19.01-9.32,19.01-19.98s-7.82-18.75-17.88-19.88c.04-.62.07-1.26.07-1.89,0-15.93-13.56-28.84-30.29-28.84-12.38,0-23.03,7.07-27.73,17.21"/>
  <path class="cls-4" d="M2195.6,26.05c-3.35-2.58-7.56-4.11-12.13-4.11-10.76,0-19.52,8.51-19.79,19.11-11.11,4.13-19.02,14.75-19.02,27.2,0,14.71,11.03,26.86,25.35,28.77v.27h101.4v-.05c14.14-.82,25.35-12.43,25.35-26.64s-10.43-25-23.85-26.52c.06-.83.09-1.68.09-2.53,0-21.24-18.09-38.46-40.4-38.46-16.51,0-30.71,9.43-36.98,22.95"/>
  <path class="cls-2" d="M2718.85,45.4c-2.15-1.65-4.84-2.63-7.77-2.63-6.89,0-12.5,5.45-12.68,12.24-7.12,2.64-12.18,9.45-12.18,17.42,0,9.42,7.07,17.2,16.23,18.43v.17h64.94v-.03c9.05-.52,16.23-7.96,16.23-17.06s-6.68-16.01-15.27-16.98c.04-.53.06-1.08.06-1.62,0-13.6-11.58-24.63-25.87-24.63-10.57,0-19.67,6.04-23.68,14.7"/>
  <path class="cls-4" d="M2834.01,34.99c-3.27-2.52-7.37-4.01-11.83-4.01-10.49,0-19.03,8.29-19.3,18.63-10.83,4.02-18.54,14.38-18.54,26.52,0,14.34,10.76,26.19,24.71,28.05v.26h98.86v-.05c13.78-.8,24.71-12.12,24.71-25.97s-10.17-24.37-23.25-25.85c.05-.81.09-1.64.09-2.46,0-20.71-17.64-37.49-39.39-37.49-16.1,0-29.94,9.2-36.06,22.38"/>
  <path class="cls-1" d="M2966.42,37.48c-3.16-2.43-7.11-3.87-11.41-3.87-10.13,0-18.37,8-18.62,17.98-10.45,3.88-17.9,13.88-17.9,25.59,0,13.84,10.38,25.27,23.85,27.07v.25h95.4v-.04c13.3-.77,23.85-11.69,23.85-25.07s-9.81-23.52-22.44-24.95c.05-.78.08-1.58.08-2.38,0-19.99-17.02-36.18-38.01-36.18-15.54,0-28.9,8.87-34.8,21.6"/>
  <path class="cls-3" d="M3102.16,47.02c-2.06-1.59-4.65-2.53-7.46-2.53-6.62,0-12,5.23-12.17,11.75-6.83,2.54-11.7,9.07-11.7,16.72,0,9.04,6.78,16.52,15.58,17.69v.16h62.35v-.03c8.69-.5,15.58-7.64,15.58-16.38s-6.41-15.37-14.66-16.3c.03-.51.05-1.03.05-1.55,0-13.06-11.12-23.65-24.84-23.65-10.15,0-18.89,5.8-22.74,14.11"/>
  <path class="cls-4" d="M3337.16,90.18c-3.32-2.55-7.48-4.07-12-4.07-10.65,0-19.32,8.42-19.59,18.91-11,4.08-18.82,14.6-18.82,26.91,0,14.55,10.92,26.58,25.08,28.47v.26h100.34v-.05c13.99-.81,25.08-12.3,25.08-26.36s-10.32-24.74-23.6-26.24c.06-.82.09-1.66.09-2.5,0-21.02-17.9-38.05-39.98-38.05-16.34,0-30.39,9.33-36.6,22.71"/>
  <path class="cls-6" d="M3370.77,183.28c-2.21-1.7-4.99-2.71-8-2.71-7.1,0-12.88,5.61-13.05,12.6-7.33,2.72-12.54,9.73-12.54,17.94,0,9.7,7.28,17.71,16.72,18.98v.18h66.87v-.03c9.32-.54,16.72-8.2,16.72-17.57s-6.88-16.49-15.73-17.49c.04-.55.06-1.11.06-1.67,0-14.01-11.93-25.36-26.64-25.36-10.89,0-20.26,6.22-24.39,15.14"/>
  <path class="cls-7" d="M3282.01,179.74c-3.1-2.39-7-3.81-11.23-3.81-9.96,0-18.08,7.88-18.33,17.69-10.29,3.82-17.61,13.66-17.61,25.18,0,13.62,10.22,24.87,23.47,26.64v.25h93.89v-.04c13.09-.76,23.47-11.51,23.47-24.67s-9.65-23.15-22.08-24.55c.05-.77.08-1.55.08-2.34,0-19.67-16.75-35.61-37.41-35.61-15.29,0-28.44,8.73-34.24,21.25"/>
  <path class="cls-1" d="M3212.39,176.14c-3.11-2.4-7.01-3.82-11.26-3.82-9.99,0-18.12,7.89-18.37,17.73-10.31,3.83-17.65,13.69-17.65,25.24,0,13.65,10.24,24.92,23.52,26.7v.25h94.09v-.04c13.12-.76,23.52-11.53,23.52-24.72s-9.68-23.2-22.13-24.6c.05-.77.08-1.56.08-2.34,0-19.71-16.79-35.69-37.49-35.69-15.32,0-28.5,8.75-34.32,21.3"/>
  <path class="cls-3" d="M3034.08,161.72c-2.43-1.87-5.47-2.98-8.78-2.98-7.79,0-14.13,6.15-14.32,13.83-8.04,2.99-13.76,10.67-13.76,19.68,0,10.64,7.98,19.43,18.34,20.82v.19h73.37v-.03c10.23-.59,18.34-8.99,18.34-19.28s-7.54-18.09-17.26-19.19c.04-.6.06-1.21.06-1.83,0-15.37-13.09-27.83-29.23-27.83-11.95,0-22.22,6.82-26.76,16.61"/>
  <path class="cls-3" d="M2907.38,136.32c-2.62-2.01-5.9-3.21-9.46-3.21-8.39,0-15.23,6.63-15.44,14.9-8.67,3.22-14.83,11.5-14.83,21.21,0,11.47,8.6,20.95,19.77,22.44v.21h79.08v-.04c11.03-.64,19.77-9.69,19.77-20.78s-8.13-19.5-18.6-20.68c.04-.65.07-1.31.07-1.97,0-16.57-14.11-29.99-31.51-29.99-12.88,0-23.95,7.36-28.84,17.9"/>
  <path class="cls-4" d="M2652.23,87.67c-2.69-2.07-6.07-3.3-9.74-3.3-8.64,0-15.68,6.83-15.9,15.35-8.92,3.32-15.28,11.85-15.28,21.84,0,11.81,8.86,21.57,20.36,23.11v.21h81.44v-.04c11.36-.66,20.36-9.98,20.36-21.4s-8.37-20.08-19.15-21.3c.04-.67.07-1.35.07-2.03,0-17.06-14.53-30.89-32.45-30.89-13.26,0-24.67,7.58-29.7,18.43"/>
  <path class="cls-2" d="M2534.17,133.01c-3.07-2.36-6.92-3.76-11.1-3.76-9.85,0-17.86,7.78-18.11,17.48-10.17,3.78-17.4,13.5-17.4,24.88,0,13.45,10.09,24.57,23.19,26.32v.24h92.77v-.04c12.93-.75,23.19-11.37,23.19-24.37s-9.54-22.87-21.82-24.26c.05-.76.08-1.54.08-2.31,0-19.43-16.55-35.18-36.96-35.18-15.11,0-28.1,8.63-33.83,21"/>
  <path class="cls-2" d="M2370.21,174.73c-2.44-1.88-5.51-3-8.84-3-7.84,0-14.23,6.2-14.42,13.92-8.1,3.01-13.86,10.75-13.86,19.82,0,10.72,8.04,19.57,18.47,20.97v.19h73.89v-.03c10.3-.59,18.47-9.06,18.47-19.41s-7.6-18.22-17.38-19.32c.04-.61.06-1.22.06-1.84,0-15.48-13.18-28.03-29.44-28.03-12.03,0-22.38,6.87-26.95,16.73"/>
  <path class="cls-4" d="M2487.67,164.22c-3.26-2.51-7.35-4-11.79-4-10.46,0-18.98,8.27-19.24,18.57-10.8,4.01-18.49,14.34-18.49,26.44,0,14.29,10.72,26.11,24.64,27.97v.26h98.56v-.05c13.74-.79,24.64-12.08,24.64-25.89s-10.13-24.3-23.18-25.77c.05-.81.09-1.63.09-2.46,0-20.65-17.58-37.38-39.27-37.38-16.05,0-29.85,9.17-35.95,22.31"/>
  <path class="cls-5" d="M2629.1,173.07c-1.94-1.49-4.38-2.38-7.02-2.38-6.23,0-11.3,4.92-11.46,11.06-6.43,2.39-11.01,8.54-11.01,15.75,0,8.51,6.39,15.55,14.67,16.66v.15h58.71v-.03c8.19-.47,14.67-7.2,14.67-15.42s-6.04-14.47-13.81-15.35c.03-.48.05-.97.05-1.46,0-12.3-10.47-22.27-23.39-22.27-9.56,0-17.78,5.46-21.41,13.29"/>
  <path class="cls-2" d="M2745.64,160.82c-3.25-2.5-7.33-3.99-11.76-3.99-10.43,0-18.93,8.25-19.19,18.52-10.77,4-18.44,14.3-18.44,26.37,0,14.26,10.69,26.04,24.57,27.89v.26h98.3v-.05c13.71-.79,24.57-12.05,24.57-25.83s-10.11-24.24-23.12-25.7c.05-.81.08-1.63.08-2.45,0-20.59-17.54-37.28-39.16-37.28-16.01,0-29.77,9.14-35.85,22.25"/>
  <path class="cls-4" d="M2858.88,148.82c-3.37-2.6-7.6-4.13-12.2-4.13-10.82,0-19.63,8.55-19.9,19.21-11.17,4.15-19.12,14.83-19.12,27.34,0,14.78,11.09,27,25.48,28.93v.27h101.94v-.05c14.21-.82,25.48-12.5,25.48-26.78s-10.48-25.13-23.97-26.66c.06-.84.09-1.69.09-2.54,0-21.35-18.19-38.66-40.61-38.66-16.6,0-30.88,9.48-37.18,23.07"/>
  <path class="cls-7" d="M3092.3,39.76c-3.37-2.6-7.6-4.14-12.2-4.14-10.82,0-19.63,8.55-19.91,19.22-11.17,4.15-19.13,14.84-19.13,27.35,0,14.79,11.09,27.01,25.49,28.94v.27h101.97v-.05c14.22-.82,25.49-12.5,25.49-26.79s-10.49-25.14-23.98-26.67c.06-.84.09-1.69.09-2.54,0-21.36-18.19-38.68-40.63-38.68-16.61,0-30.89,9.49-37.19,23.08"/>
  <path class="cls-5" d="M3038.46,19.73c-2.1-1.62-4.73-2.58-7.6-2.58-6.74,0-12.23,5.33-12.4,11.97-6.96,2.58-11.91,9.24-11.91,17.03,0,9.21,6.91,16.82,15.87,18.02v.17h63.5v-.03c8.85-.51,15.87-7.78,15.87-16.68s-6.53-15.66-14.94-16.61c.03-.52.05-1.05.05-1.58,0-13.3-11.33-24.09-25.3-24.09-10.34,0-19.24,5.91-23.16,14.37"/>
  <path class="cls-6" d="M2905.16,47.58c-2.92-2.25-6.58-3.58-10.56-3.58-9.36,0-16.99,7.4-17.22,16.63-9.67,3.59-16.55,12.84-16.55,23.67,0,12.8,9.6,23.37,22.05,25.04v.23h88.23v-.04c12.3-.71,22.05-10.82,22.05-23.18s-9.07-21.75-20.75-23.07c.05-.72.08-1.46.08-2.2,0-18.48-15.74-33.46-35.15-33.46-14.37,0-26.73,8.21-32.18,19.97"/>
  <path class="cls-5" d="M2785,38.01c-2.16-1.66-4.87-2.65-7.81-2.65-6.93,0-12.57,5.48-12.74,12.3-7.15,2.66-12.25,9.5-12.25,17.51,0,9.47,7.1,17.29,16.32,18.53v.17h65.28v-.03c9.1-.53,16.32-8,16.32-17.15s-6.71-16.1-15.35-17.07c.04-.54.06-1.08.06-1.63,0-13.68-11.65-24.76-26.01-24.76-10.63,0-19.77,6.07-23.81,14.78"/>
  <path class="cls-6" d="M2655.9,23.36c-3.02-2.33-6.81-3.7-10.93-3.7-9.69,0-17.59,7.66-17.83,17.21-10.01,3.72-17.14,13.29-17.14,24.5,0,13.25,9.94,24.2,22.83,25.92v.24h91.35v-.04c12.74-.74,22.83-11.2,22.83-24s-9.39-22.52-21.48-23.89c.05-.75.08-1.51.08-2.28,0-19.14-16.3-34.65-36.4-34.65-14.88,0-27.67,8.5-33.32,20.68"/>
  <path class="cls-1" d="M2535.17,34.91c-2.89-2.23-6.52-3.55-10.47-3.55-9.29,0-16.85,7.34-17.09,16.49-9.59,3.56-16.42,12.73-16.42,23.48,0,12.69,9.52,23.18,21.88,24.84v.23h87.53v-.04c12.2-.7,21.88-10.73,21.88-23s-9-21.58-20.59-22.89c.05-.72.08-1.45.08-2.18,0-18.34-15.61-33.2-34.87-33.2-14.25,0-26.51,8.14-31.92,19.81"/>
  <path class="cls-7" d="M2406.28,18.25c-2.34-1.8-5.27-2.86-8.45-2.86-7.5,0-13.6,5.93-13.79,13.31-7.74,2.88-13.25,10.28-13.25,18.95,0,10.25,7.69,18.71,17.66,20.05v.19h70.65v-.03c9.85-.57,17.66-8.66,17.66-18.56s-7.26-17.42-16.62-18.47c.04-.58.06-1.17.06-1.76,0-14.8-12.6-26.8-28.15-26.8-11.5,0-21.4,6.57-25.77,15.99"/>
  <path class="cls-2" d="M2282.18,26.66c-2.74-2.11-6.18-3.36-9.92-3.36-8.8,0-15.97,6.96-16.19,15.63-9.09,3.38-15.56,12.07-15.56,22.24,0,12.03,9.02,21.97,20.73,23.53v.22h82.94v-.04c11.56-.67,20.73-10.17,20.73-21.79s-8.53-20.45-19.51-21.69c.05-.68.07-1.37.07-2.07,0-17.37-14.8-31.45-33.04-31.45-13.51,0-25.12,7.71-30.25,18.77"/>
  <path class="cls-2" d="M2102.38,175.56c-2.83-2.18-6.37-3.47-10.23-3.47-9.07,0-16.46,7.17-16.69,16.11-9.37,3.48-16.04,12.44-16.04,22.93,0,12.4,9.3,22.65,21.37,24.26v.22h85.5v-.04c11.92-.69,21.37-10.48,21.37-22.46s-8.79-21.08-20.11-22.36c.05-.7.07-1.42.07-2.13,0-17.91-15.25-32.43-34.06-32.43-13.92,0-25.9,7.95-31.18,19.35"/>
  <path class="cls-4" d="M1940.31,83.43c-2.08-1.6-4.69-2.55-7.53-2.55-6.68,0-12.12,5.28-12.29,11.87-6.9,2.56-11.81,9.16-11.81,16.89,0,9.13,6.85,16.68,15.74,17.87v.17h62.97v-.03c8.78-.51,15.74-7.72,15.74-16.54s-6.48-15.53-14.81-16.47c.03-.52.05-1.04.05-1.57,0-13.19-11.23-23.88-25.09-23.88-10.25,0-19.07,5.86-22.97,14.25"/>
  <path class="cls-6" d="M1854.31,135.65c-2.42-1.86-5.44-2.96-8.74-2.96-7.75,0-14.06,6.13-14.26,13.76-8,2.97-13.7,10.63-13.7,19.59,0,10.59,7.95,19.35,18.26,20.72v.19h73.03v-.03c10.18-.59,18.26-8.95,18.26-19.19s-7.51-18.01-17.18-19.1c.04-.6.06-1.21.06-1.82,0-15.3-13.03-27.7-29.1-27.7-11.89,0-22.12,6.79-26.64,16.53"/>
  <path class="cls-1" d="M1742.64,57.96c-3.34-2.57-7.53-4.1-12.09-4.1-10.72,0-19.46,8.48-19.73,19.04-11.07,4.11-18.96,14.7-18.96,27.1,0,14.65,10.99,26.77,25.26,28.67v.27h101.05v-.05c14.09-.81,25.26-12.39,25.26-26.55s-10.39-24.91-23.77-26.42c.06-.83.09-1.67.09-2.52,0-21.17-18.03-38.32-40.26-38.32-16.46,0-30.61,9.4-36.86,22.87"/>
  <path class="cls-2" d="M1666.1,78.92c-3.3-2.54-7.43-4.04-11.93-4.04-10.58,0-19.2,8.36-19.46,18.79-10.93,4.06-18.7,14.51-18.7,26.74,0,14.46,10.85,26.41,24.92,28.29v.26h99.71v-.05c13.9-.8,24.92-12.22,24.92-26.2s-10.25-24.58-23.45-26.07c.05-.82.09-1.65.09-2.48,0-20.89-17.79-37.82-39.73-37.82-16.24,0-30.2,9.27-36.37,22.57"/>
  <path class="cls-5" d="M1612.6,174c-3.22-2.48-7.26-3.95-11.65-3.95-10.33,0-18.74,8.17-19,18.34-10.67,3.96-18.26,14.16-18.26,26.11,0,14.12,10.59,25.79,24.33,27.63v.26h97.35v-.05c13.57-.78,24.33-11.93,24.33-25.58s-10.01-24-22.9-25.46c.05-.8.08-1.61.08-2.43,0-20.39-17.37-36.92-38.79-36.92-15.85,0-29.49,9.06-35.51,22.04"/>
  <path class="cls-6" d="M1481.73,178.33c-2.73-2.1-6.14-3.34-9.86-3.34-8.75,0-15.87,6.91-16.09,15.53-9.03,3.35-15.46,11.99-15.46,22.1,0,11.95,8.97,21.83,20.6,23.39v.22h82.41v-.04c11.49-.66,20.6-10.1,20.6-21.65s-8.47-20.32-19.38-21.55c.05-.68.07-1.36.07-2.05,0-17.26-14.7-31.25-32.83-31.25-13.42,0-24.96,7.67-30.06,18.65"/>
  <path class="cls-5" d="M1396.96,103.13c-2.06-1.58-4.64-2.52-7.44-2.52-6.6,0-11.98,5.22-12.15,11.73-6.82,2.53-11.67,9.05-11.67,16.69,0,9.02,6.77,16.48,15.55,17.66v.16h62.23v-.03c8.68-.5,15.55-7.63,15.55-16.35s-6.4-15.34-14.63-16.27c.03-.51.05-1.03.05-1.55,0-13.04-11.1-23.6-24.79-23.6-10.13,0-18.85,5.79-22.7,14.09"/>
  <path class="cls-6" d="M1256.92,55.6c-3.3-2.54-7.44-4.05-11.94-4.05-10.6,0-19.22,8.37-19.49,18.81-10.94,4.06-18.73,14.52-18.73,26.78,0,14.48,10.86,26.44,24.95,28.33v.26h99.83v-.05c13.92-.8,24.95-12.24,24.95-26.23s-10.27-24.61-23.48-26.11c.05-.82.09-1.65.09-2.49,0-20.91-17.81-37.86-39.78-37.86-16.26,0-30.24,9.29-36.41,22.6"/>
  <path class="cls-3" d="M1187.91,144.08c-2.15-1.65-4.85-2.64-7.78-2.64-6.9,0-12.51,5.45-12.69,12.25-7.12,2.65-12.19,9.46-12.19,17.43,0,9.43,7.07,17.22,16.25,18.45v.17h65v-.03c9.06-.52,16.25-7.97,16.25-17.08s-6.68-16.03-15.29-17c.04-.53.06-1.08.06-1.62,0-13.62-11.6-24.65-25.9-24.65-10.58,0-19.69,6.05-23.71,14.71"/>
  <path class="cls-2" d="M1089.49,180.34c-2.83-2.18-6.39-3.48-10.26-3.48-9.1,0-16.5,7.19-16.73,16.15-9.39,3.49-16.08,12.47-16.08,22.99,0,12.43,9.33,22.71,21.43,24.32v.23h85.72v-.04c11.95-.69,21.43-10.51,21.43-22.52s-8.81-21.13-20.16-22.41c.05-.7.07-1.42.07-2.14,0-17.96-15.29-32.51-34.15-32.51-13.96,0-25.96,7.97-31.26,19.4"/>
  <path class="cls-7" d="M947.71,170.78c-3.13-2.41-7.06-3.84-11.33-3.84-10.05,0-18.23,7.94-18.48,17.84-10.38,3.85-17.76,13.78-17.76,25.4,0,13.73,10.3,25.08,23.67,26.87v.25h94.69v-.04c13.2-.76,23.67-11.61,23.67-24.88s-9.74-23.35-22.27-24.76c.05-.78.08-1.57.08-2.36,0-19.84-16.89-35.91-37.73-35.91-15.42,0-28.68,8.81-34.54,21.43"/>
  <path class="cls-4" d="M820.09,191.78c-2.64-2.03-5.95-3.23-9.54-3.23-8.46,0-15.36,6.69-15.57,15.03-8.74,3.25-14.96,11.6-14.96,21.39,0,11.57,8.68,21.13,19.94,22.63v.21h79.76v-.04c11.12-.64,19.94-9.78,19.94-20.95s-8.2-19.66-18.76-20.86c.04-.65.07-1.32.07-1.99,0-16.71-14.23-30.25-31.78-30.25-12.99,0-24.16,7.42-29.09,18.05"/>
  <path class="cls-1" d="M939.56,138.7c-2.75-2.12-6.2-3.37-9.95-3.37-8.82,0-16.01,6.97-16.23,15.67-9.11,3.38-15.6,12.1-15.6,22.3,0,12.06,9.05,22.02,20.78,23.59v.22h83.14v-.04c11.59-.67,20.78-10.19,20.78-21.84s-8.55-20.5-19.55-21.74c.05-.68.07-1.38.07-2.07,0-17.42-14.83-31.53-33.13-31.53-13.54,0-25.18,7.73-30.32,18.82"/>
  <path class="cls-2" d="M1174.88,42.45c-2.59-1.99-5.84-3.17-9.37-3.17-8.31,0-15.07,6.57-15.28,14.75-8.58,3.19-14.69,11.39-14.69,21,0,11.35,8.52,20.74,19.57,22.21v.21h78.28v-.04c10.92-.63,19.57-9.6,19.57-20.57s-8.05-19.3-18.41-20.47c.04-.64.07-1.3.07-1.95,0-16.4-13.97-29.69-31.19-29.69-12.75,0-23.71,7.28-28.55,17.72"/>
  <path class="cls-7" d="M1143.3,46.41c-3.01-2.32-6.79-3.69-10.89-3.69-9.66,0-17.53,7.64-17.77,17.15-9.97,3.71-17.07,13.24-17.07,24.41,0,13.2,9.9,24.11,22.75,25.83v.24h91.02v-.04c12.69-.73,22.75-11.16,22.75-23.91s-9.36-22.44-21.41-23.8c.05-.75.08-1.51.08-2.27,0-19.07-16.24-34.52-36.27-34.52-14.82,0-27.57,8.47-33.2,20.6"/>
  <path class="cls-6" d="M1006.03,46.56c-3.17-2.44-7.15-3.89-11.48-3.89-10.18,0-18.47,8.05-18.73,18.08-10.51,3.91-18,13.96-18,25.73,0,13.91,10.44,25.42,23.98,27.23v.25h95.95v-.04c13.38-.77,23.98-11.76,23.98-25.21s-9.87-23.66-22.57-25.09c.05-.79.08-1.59.08-2.39,0-20.1-17.12-36.39-38.23-36.39-15.62,0-29.06,8.92-34.99,21.72"/>
  <path class="cls-7" d="M888.89,16.86c-2.12-1.63-4.77-2.59-7.65-2.59-6.79,0-12.32,5.37-12.49,12.05-7.01,2.6-12,9.31-12,17.16,0,9.28,6.96,16.94,15.99,18.15v.17h63.96v-.03c8.92-.51,15.99-7.84,15.99-16.8s-6.58-15.77-15.04-16.73c.04-.52.06-1.06.06-1.59,0-13.4-11.41-24.26-25.48-24.26-10.42,0-19.37,5.95-23.33,14.48"/>
  <path class="cls-4" d="M756.78,45.74c-2.32-1.79-5.24-2.85-8.4-2.85-7.46,0-13.52,5.89-13.71,13.24-7.7,2.86-13.18,10.22-13.18,18.84,0,10.19,7.64,18.61,17.56,19.93v.18h70.25v-.03c9.79-.57,17.56-8.61,17.56-18.46s-7.22-17.32-16.52-18.37c.04-.58.06-1.16.06-1.75,0-14.72-12.53-26.64-27.99-26.64-11.44,0-21.28,6.53-25.62,15.9"/>
  <path class="cls-1" d="M631.43,44.8c-2.57-1.98-5.79-3.15-9.29-3.15-8.24,0-14.94,6.51-15.15,14.63-8.51,3.16-14.56,11.29-14.56,20.82,0,11.26,8.44,20.56,19.4,22.03v.2h77.62v-.04c10.82-.62,19.4-9.51,19.4-20.39s-7.98-19.14-18.25-20.3c.04-.64.07-1.29.07-1.93,0-16.26-13.85-29.44-30.92-29.44-12.64,0-23.51,7.22-28.31,17.57"/>
  <path class="cls-2" d="M506.36,19.97c-2.24-1.73-5.06-2.75-8.12-2.75-7.2,0-13.07,5.69-13.25,12.79-7.44,2.76-12.73,9.87-12.73,18.2,0,9.84,7.38,17.98,16.96,19.26v.18h67.87v-.03c9.46-.55,16.96-8.32,16.96-17.83s-6.98-16.73-15.96-17.75c.04-.56.06-1.12.06-1.69,0-14.22-12.11-25.74-27.04-25.74-11.05,0-20.56,6.31-24.75,15.36"/>
  <path class="cls-3" d="M253.17,27.35c-2.01-1.55-4.53-2.46-7.27-2.46-6.45,0-11.7,5.1-11.86,11.45-6.66,2.47-11.4,8.84-11.4,16.3,0,8.81,6.61,16.09,15.19,17.24v.16h60.76v-.03c8.47-.49,15.19-7.45,15.19-15.96s-6.25-14.98-14.29-15.89c.03-.5.05-1.01.05-1.51,0-12.73-10.84-23.04-24.21-23.04-9.89,0-18.4,5.65-22.16,13.75"/>
  <path class="cls-7" d="M1272.05,113.88c-3.16-2.44-7.13-3.88-11.45-3.88-10.15,0-18.42,8.03-18.68,18.03-10.48,3.89-17.95,13.92-17.95,25.66,0,13.88,10.41,25.34,23.92,27.15v.25h95.68v-.04c13.34-.77,23.92-11.73,23.92-25.14s-9.84-23.59-22.5-25.02c.05-.78.08-1.58.08-2.38,0-20.04-17.07-36.29-38.12-36.29-15.58,0-28.98,8.9-34.9,21.66"/>
  <path class="cls-4" d="M42.14,123.39c-2.84-2.19-6.41-3.49-10.29-3.49-9.12,0-16.55,7.21-16.78,16.2-9.42,3.5-16.13,12.51-16.13,23.06,0,12.47,9.35,22.77,21.49,24.4v.23h85.97v-.04c11.99-.69,21.49-10.54,21.49-22.59s-8.84-21.2-20.22-22.48c.05-.71.07-1.42.07-2.14,0-18.01-15.34-32.61-34.25-32.61-14,0-26.04,8-31.36,19.46"/>
  <path class="cls-1" d="M56.3,186.25c-2.85-2.2-6.43-3.5-10.32-3.5-9.15,0-16.61,7.24-16.84,16.25-9.45,3.51-16.18,12.55-16.18,23.13,0,12.51,9.38,22.85,21.56,24.48v.23h86.25v-.04c12.03-.69,21.56-10.57,21.56-22.66s-8.87-21.27-20.29-22.55c.05-.71.07-1.43.07-2.15,0-18.07-15.39-32.71-34.37-32.71-14.05,0-26.13,8.02-31.46,19.52"/>
  <path class="cls-2" d="M1375.9,43.77c-3.1-2.39-7-3.81-11.23-3.81-9.96,0-18.07,7.87-18.32,17.68-10.28,3.82-17.6,13.65-17.6,25.17,0,13.61,10.21,24.86,23.46,26.63v.25h93.84v-.04c13.08-.76,23.46-11.5,23.46-24.66s-9.65-23.14-22.07-24.54c.05-.77.08-1.55.08-2.34,0-19.66-16.74-35.59-37.39-35.59-15.28,0-28.43,8.73-34.23,21.24"/>
  <path class="cls-2" d="M376.26,187.69c-2.71-2.09-6.11-3.33-9.81-3.33-8.7,0-15.79,6.88-16.01,15.46-8.99,3.34-15.39,11.93-15.39,22,0,11.89,8.92,21.73,20.5,23.28v.22h82.02v-.04c11.44-.66,20.5-10.05,20.5-21.55s-8.43-20.22-19.29-21.45c.05-.67.07-1.36.07-2.04,0-17.18-14.63-31.11-32.68-31.11-13.36,0-24.84,7.63-29.91,18.57"/>
  <path class="cls-4" d="M424.61,120.85c-2.12-1.63-4.77-2.59-7.66-2.59-6.79,0-12.32,5.37-12.49,12.06-7.01,2.6-12,9.31-12,17.16,0,9.28,6.96,16.95,15.99,18.16v.17h63.98v-.03c8.92-.51,15.99-7.84,15.99-16.81s-6.58-15.78-15.05-16.73c.04-.52.06-1.06.06-1.59,0-13.4-11.41-24.27-25.49-24.27-10.42,0-19.38,5.95-23.34,14.48"/>
  <path class="cls-5" d="M541.96,96.39c-3.37-2.59-7.59-4.13-12.18-4.13-10.8,0-19.6,8.54-19.87,19.18-11.15,4.14-19.1,14.81-19.1,27.3,0,14.76,11.08,26.96,25.44,28.89v.27h101.79v-.05c14.19-.82,25.44-12.48,25.44-26.74s-10.47-25.1-23.94-26.62c.06-.84.09-1.69.09-2.54,0-21.32-18.16-38.61-40.56-38.61-16.58,0-30.83,9.47-37.13,23.04"/>
  <path class="cls-5" d="M666.78,62.95c-3.32-2.56-7.49-4.07-12.02-4.07-10.66,0-19.35,8.43-19.62,18.94-11.01,4.09-18.85,14.62-18.85,26.95,0,14.57,10.93,26.62,25.12,28.52v.26h100.49v-.05c14.01-.81,25.12-12.32,25.12-26.4s-10.33-24.78-23.63-26.28c.06-.82.09-1.66.09-2.5,0-21.05-17.93-38.11-40.04-38.11-16.36,0-30.44,9.35-36.65,22.75"/>
  <path class="cls-6" d="M787.98,34.36c-3.31-2.55-7.47-4.06-11.99-4.06-10.64,0-19.3,8.41-19.57,18.89-10.98,4.08-18.8,14.58-18.8,26.88,0,14.54,10.9,26.55,25.05,28.44v.26h100.23v-.05c13.98-.81,25.05-12.29,25.05-26.33s-10.31-24.71-23.57-26.21c.06-.82.09-1.66.09-2.5,0-21-17.88-38.01-39.93-38.01-16.32,0-30.36,9.32-36.56,22.69"/>
  <path class="cls-2" d="M879.94,117.68c-2.18-1.67-4.9-2.67-7.87-2.67-6.98,0-12.67,5.52-12.84,12.4-7.21,2.68-12.34,9.57-12.34,17.64,0,9.54,7.16,17.43,16.44,18.67v.17h65.78v-.03c9.17-.53,16.44-8.06,16.44-17.28s-6.76-16.22-15.47-17.2c.04-.54.06-1.09.06-1.64,0-13.78-11.74-24.95-26.21-24.95-10.71,0-19.93,6.12-23.99,14.89"/>
  <path class="cls-2" d="M1002.56,141.62c-1.98-1.52-4.46-2.43-7.16-2.43-6.35,0-11.53,5.02-11.69,11.28-6.56,2.44-11.23,8.71-11.23,16.06,0,8.68,6.51,15.86,14.96,16.99v.16h59.87v-.03c8.35-.48,14.96-7.34,14.96-15.73s-6.16-14.76-14.08-15.65c.03-.49.05-.99.05-1.49,0-12.54-10.68-22.71-23.85-22.71-9.75,0-18.13,5.57-21.84,13.55"/>
  <path class="cls-2" d="M765.08,151.76c-2.3-1.77-5.19-2.83-8.34-2.83-7.39,0-13.41,5.84-13.6,13.13-7.63,2.84-13.07,10.14-13.07,18.69,0,10.1,7.58,18.45,17.41,19.77v.18h69.67v-.03c9.71-.56,17.41-8.54,17.41-18.3s-7.16-17.18-16.39-18.22c.04-.57.06-1.15.06-1.74,0-14.59-12.43-26.42-27.76-26.42-11.35,0-21.1,6.48-25.41,15.77"/>
  <path class="cls-2" d="M1374.91,147.72c-3.22-2.48-7.27-3.95-11.66-3.95-10.35,0-18.77,8.18-19.03,18.37-10.68,3.97-18.29,14.18-18.29,26.15,0,14.14,10.61,25.83,24.37,27.67v.26h97.5v-.05c13.59-.78,24.37-11.95,24.37-25.62s-10.03-24.04-22.93-25.5c.05-.8.08-1.61.08-2.43,0-20.42-17.39-36.98-38.85-36.98-15.88,0-29.53,9.07-35.56,22.07"/>
  <path class="cls-2" d="M1500.38,126.32c-3.26-2.51-7.35-4-11.8-4-10.46,0-18.98,8.27-19.25,18.58-10.8,4.01-18.5,14.35-18.5,26.45,0,14.3,10.73,26.12,24.65,27.98v.26h98.6v-.05c13.75-.79,24.65-12.09,24.65-25.91s-10.14-24.31-23.19-25.78c.05-.81.09-1.63.09-2.46,0-20.66-17.59-37.4-39.29-37.4-16.06,0-29.87,9.17-35.96,22.32"/>
  <path class="cls-4" d="M1506.28,85.98c-2.33-1.79-5.25-2.85-8.42-2.85-7.47,0-13.55,5.9-13.74,13.26-7.71,2.87-13.2,10.24-13.2,18.88,0,10.21,7.66,18.64,17.59,19.97v.19h70.39v-.03c9.81-.57,17.59-8.63,17.59-18.49s-7.24-17.35-16.55-18.41c.04-.58.06-1.17.06-1.75,0-14.74-12.56-26.7-28.04-26.7-11.46,0-21.32,6.55-25.67,15.93"/>
  <path class="cls-1" d="M1601.48,80.84c-3.05-2.35-6.87-3.74-11.02-3.74-9.78,0-17.74,7.73-17.98,17.36-10.09,3.75-17.28,13.4-17.28,24.71,0,13.36,10.02,24.4,23.02,26.14v.24h92.11v-.04c12.84-.74,23.02-11.29,23.02-24.2s-9.47-22.71-21.66-24.09c.05-.76.08-1.53.08-2.3,0-19.3-16.43-34.94-36.7-34.94-15,0-27.9,8.57-33.6,20.85"/>
  <path class="cls-4" d="M1702.74,149.05c-3.24-2.5-7.31-3.98-11.73-3.98-10.4,0-18.88,8.22-19.14,18.47-10.74,3.99-18.39,14.26-18.39,26.3,0,14.22,10.67,25.97,24.51,27.82v.26h98.04v-.05c13.67-.79,24.51-12.02,24.51-25.76s-10.08-24.17-23.06-25.64c.05-.8.08-1.62.08-2.44,0-20.54-17.49-37.18-39.06-37.18-15.96,0-29.7,9.12-35.76,22.19"/>
  <path class="cls-4" d="M1812.39,52.23c-2.84-2.19-6.4-3.48-10.27-3.48-9.11,0-16.53,7.2-16.76,16.18-9.41,3.5-16.11,12.49-16.11,23.03,0,12.45,9.34,22.74,21.46,24.37v.23h85.86v-.04c11.97-.69,21.46-10.52,21.46-22.56s-8.83-21.17-20.19-22.45c.05-.7.07-1.42.07-2.14,0-17.99-15.32-32.56-34.21-32.56-13.98,0-26.01,7.99-31.32,19.44"/>
  <path class="cls-1" d="M1921.68,162.64c-3.04-2.34-6.85-3.73-10.99-3.73-9.75,0-17.69,7.71-17.94,17.31-10.07,3.74-17.24,13.37-17.24,24.65,0,13.33,10,24.34,22.97,26.08v.24h91.89v-.04c12.81-.74,22.97-11.26,22.97-24.14s-9.45-22.65-21.61-24.03c.05-.75.08-1.52.08-2.29,0-19.25-16.39-34.85-36.61-34.85-14.96,0-27.83,8.55-33.51,20.8"/>
  <path class="cls-2" d="M1935.67,127.54c-2.21-1.7-4.98-2.71-7.99-2.71-7.09,0-12.86,5.6-13.04,12.58-7.32,2.72-12.53,9.72-12.53,17.91,0,9.68,7.27,17.69,16.69,18.95v.18h66.78v-.03c9.31-.54,16.69-8.19,16.69-17.54s-6.87-16.46-15.71-17.46c.04-.55.06-1.11.06-1.66,0-13.99-11.91-25.33-26.61-25.33-10.87,0-20.23,6.21-24.36,15.12"/>
  <path class="cls-1" d="M2076.62,30.19c-2.1-1.61-4.73-2.57-7.59-2.57-6.73,0-12.21,5.32-12.38,11.95-6.95,2.58-11.9,9.23-11.9,17.01,0,9.2,6.9,16.8,15.86,18v.17h63.44v-.03c8.85-.51,15.86-7.78,15.86-16.67s-6.52-15.64-14.92-16.59c.03-.52.05-1.05.05-1.58,0-13.29-11.32-24.06-25.27-24.06-10.33,0-19.22,5.9-23.14,14.36"/>
  <path class="cls-6" d="M2183.59,19.28c-2.29-1.76-5.16-2.8-8.28-2.8-7.34,0-13.32,5.8-13.5,13.03-7.58,2.82-12.98,10.06-12.98,18.55,0,10.03,7.53,18.32,17.29,19.63v.18h69.18v-.03c9.65-.56,17.29-8.48,17.29-18.17s-7.11-17.06-16.27-18.09c.04-.57.06-1.15.06-1.72,0-14.49-12.34-26.24-27.56-26.24-11.26,0-20.95,6.43-25.23,15.66"/>
  <path class="cls-5" d="M2307.43,26.12c-2.58-1.99-5.81-3.16-9.33-3.16-8.28,0-15.01,6.54-15.22,14.69-8.55,3.17-14.63,11.34-14.63,20.92,0,11.31,8.48,20.66,19.49,22.13v.21h77.98v-.04c10.87-.63,19.49-9.56,19.49-20.49s-8.02-19.23-18.34-20.39c.04-.64.07-1.29.07-1.94,0-16.34-13.91-29.57-31.07-29.57-12.7,0-23.62,7.25-28.44,17.65"/>
  <path class="cls-2" d="M2431.65,53.77c-2.16-1.66-4.87-2.65-7.81-2.65-6.93,0-12.57,5.48-12.75,12.31-7.16,2.66-12.25,9.5-12.25,17.52,0,9.47,7.1,17.3,16.32,18.53v.17h65.3v-.03c9.11-.53,16.32-8,16.32-17.16s-6.72-16.1-15.36-17.08c.04-.54.06-1.08.06-1.63,0-13.68-11.65-24.77-26.02-24.77-10.63,0-19.78,6.07-23.82,14.78"/>
  <path class="cls-5" d="M2559.14,48.83c-2.16-1.66-4.87-2.65-7.82-2.65-6.94,0-12.59,5.48-12.76,12.32-7.17,2.66-12.27,9.51-12.27,17.54,0,9.48,7.11,17.32,16.34,18.56v.17h65.39v-.03c9.12-.53,16.34-8.01,16.34-17.18s-6.72-16.12-15.38-17.1c.04-.54.06-1.08.06-1.63,0-13.7-11.66-24.8-26.05-24.8-10.65,0-19.81,6.08-23.85,14.8"/>
  <path class="cls-6" d="M2536.79,68.33c-2.04-1.57-4.61-2.51-7.4-2.51-6.56,0-11.9,5.19-12.07,11.65-6.77,2.52-11.6,8.99-11.6,16.58,0,8.96,6.73,16.37,15.45,17.54v.16h61.82v-.03c8.62-.5,15.45-7.58,15.45-16.24s-6.36-15.24-14.54-16.16c.03-.51.05-1.02.05-1.54,0-12.95-11.03-23.45-24.63-23.45-10.07,0-18.72,5.75-22.55,13.99"/>
  <path class="cls-4" d="M2401.33,86.2c-2.86-2.2-6.45-3.51-10.35-3.51-9.19,0-16.66,7.26-16.9,16.31-9.48,3.52-16.24,12.59-16.24,23.21,0,12.55,9.42,22.93,21.63,24.56v.23h86.55v-.04c12.07-.7,21.63-10.61,21.63-22.74s-8.9-21.34-20.36-22.63c.05-.71.07-1.43.07-2.16,0-18.13-15.44-32.83-34.48-32.83-14.09,0-26.22,8.05-31.57,19.59"/>
  <path class="cls-2" d="M2283.12,117.32c-2.46-1.89-5.53-3.01-8.88-3.01-7.88,0-14.29,6.23-14.49,13.99-8.14,3.02-13.93,10.8-13.93,19.91,0,10.77,8.08,19.66,18.56,21.07v.2h74.24v-.03c10.35-.6,18.56-9.1,18.56-19.5s-7.63-18.3-17.46-19.41c.04-.61.06-1.23.06-1.85,0-15.55-13.24-28.16-29.58-28.16-12.09,0-22.49,6.91-27.08,16.8"/>
  <path class="cls-7" d="M2156.22,143.47c-3.14-2.41-7.07-3.84-11.34-3.84-10.06,0-18.25,7.95-18.51,17.87-10.39,3.86-17.79,13.79-17.79,25.43,0,13.75,10.32,25.11,23.7,26.9v.25h94.81v-.04c13.22-.76,23.7-11.62,23.7-24.91s-9.75-23.38-22.3-24.79c.05-.78.08-1.57.08-2.36,0-19.86-16.91-35.96-37.77-35.96-15.44,0-28.72,8.82-34.58,21.46"/>
  <path class="cls-5" d="M2277.42,169.3c-2.87-2.21-6.47-3.52-10.39-3.52-9.21,0-16.71,7.28-16.94,16.36-9.51,3.53-16.28,12.63-16.28,23.28,0,12.59,9.44,22.99,21.7,24.63v.23h86.8v-.04c12.1-.7,21.7-10.64,21.7-22.81s-8.93-21.4-20.42-22.7c.05-.71.07-1.44.07-2.16,0-18.18-15.49-32.92-34.58-32.92-14.14,0-26.29,8.07-31.66,19.65"/>
  <path class="cls-5" d="M2394.73,103.8c-2.59-2-5.85-3.18-9.39-3.18-8.33,0-15.11,6.58-15.32,14.78-8.6,3.19-14.72,11.41-14.72,21.04,0,11.38,8.54,20.78,19.61,22.26v.21h78.46v-.04c10.94-.63,19.61-9.62,19.61-20.61s-8.07-19.34-18.45-20.52c.04-.64.07-1.3.07-1.96,0-16.44-14-29.76-31.26-29.76-12.78,0-23.77,7.3-28.62,17.76"/>
  <path class="cls-5" d="M2530.58,166.26c-2.66-2.05-6-3.27-9.63-3.27-8.55,0-15.51,6.76-15.72,15.18-8.83,3.28-15.11,11.72-15.11,21.6,0,11.68,8.76,21.33,20.13,22.85v.21h80.53v-.04c11.23-.65,20.13-9.87,20.13-21.16s-8.28-19.86-18.94-21.06c.04-.66.07-1.33.07-2.01,0-16.87-14.37-30.54-32.09-30.54-13.11,0-24.39,7.49-29.37,18.23"/>
  <path class="cls-5" d="M826.07,153.19c-3.2-2.47-7.22-3.93-11.58-3.93-10.28,0-18.64,8.12-18.9,18.25-10.61,3.94-18.16,14.09-18.16,25.97,0,14.04,10.53,25.65,24.2,27.48v.25h96.83v-.04c13.5-.78,24.2-11.87,24.2-25.44s-9.96-23.87-22.77-25.32c.05-.79.08-1.6.08-2.41,0-20.28-17.27-36.72-38.58-36.72-15.77,0-29.33,9.01-35.32,21.92"/>
  <path class="cls-1" d="M2781,153.58c-3.27-2.52-7.37-4.01-11.83-4.01-10.5,0-19.05,8.3-19.31,18.64-10.84,4.03-18.56,14.39-18.56,26.53,0,14.35,10.76,26.2,24.73,28.07v.26h98.92v-.05c13.79-.8,24.73-12.13,24.73-25.99s-10.17-24.39-23.26-25.87c.05-.81.09-1.64.09-2.47,0-20.72-17.65-37.52-39.41-37.52-16.11,0-29.96,9.2-36.08,22.39"/>
  <path class="cls-7" d="M2783,62.53c-2.92-2.24-6.57-3.57-10.55-3.57-9.36,0-16.97,7.4-17.21,16.61-9.66,3.59-16.54,12.83-16.54,23.65,0,12.79,9.59,23.35,22.04,25.02v.23h88.16v-.04c12.29-.71,22.04-10.81,22.04-23.16s-9.07-21.74-20.73-23.05c.05-.72.08-1.46.08-2.2,0-18.47-15.73-33.44-35.13-33.44-14.36,0-26.7,8.2-32.16,19.96"/>
  <path class="cls-6" d="M2894.18,46.18c-2.84-2.18-6.4-3.48-10.27-3.48-9.11,0-16.52,7.2-16.75,16.17-9.4,3.49-16.1,12.48-16.1,23.02,0,12.44,9.34,22.73,21.45,24.35v.23h85.81v-.04c11.97-.69,21.45-10.52,21.45-22.55s-8.82-21.16-20.18-22.44c.05-.7.07-1.42.07-2.14,0-17.98-15.31-32.55-34.19-32.55-13.97,0-25.99,7.98-31.3,19.42"/>
  <path class="cls-2" d="M2946.83,96.01c-2.54-1.95-5.72-3.11-9.18-3.11-8.14,0-14.78,6.44-14.98,14.46-8.41,3.12-14.4,11.16-14.4,20.58,0,11.13,8.35,20.33,19.18,21.78v.2h76.74v-.04c10.7-.62,19.18-9.41,19.18-20.16s-7.89-18.92-18.05-20.07c.04-.63.07-1.27.07-1.91,0-16.08-13.69-29.11-30.58-29.11-12.5,0-23.24,7.14-27.99,17.37"/>
  <path class="cls-6" d="M2957.77,166.02c-3.35-2.58-7.55-4.11-12.12-4.11-10.75,0-19.51,8.5-19.78,19.09-11.1,4.12-19,14.74-19,27.17,0,14.69,11.02,26.84,25.32,28.75v.27h101.31v-.05c14.13-.82,25.32-12.42,25.32-26.62s-10.42-24.98-23.83-26.49c.06-.83.09-1.68.09-2.52,0-21.22-18.07-38.42-40.36-38.42-16.5,0-30.69,9.42-36.95,22.93"/>
  <path class="cls-4" d="M3067.35,159.57c-2.84-2.19-6.41-3.49-10.29-3.49-9.12,0-16.55,7.21-16.78,16.2-9.42,3.5-16.13,12.51-16.13,23.06,0,12.47,9.35,22.77,21.49,24.4v.23h85.97v-.04c11.99-.69,21.49-10.54,21.49-22.59s-8.84-21.2-20.22-22.48c.05-.71.07-1.42.07-2.14,0-18.01-15.34-32.61-34.25-32.61-14,0-26.04,8-31.36,19.46"/>
  <path class="cls-2" d="M3171.76,86.33c-3.34-2.57-7.54-4.1-12.1-4.1-10.73,0-19.47,8.48-19.74,19.05-11.08,4.12-18.97,14.71-18.97,27.12,0,14.66,11,26.78,25.27,28.69v.27h101.1v-.05c14.1-.81,25.27-12.39,25.27-26.56s-10.4-24.93-23.78-26.44c.06-.83.09-1.67.09-2.52,0-21.18-18.04-38.34-40.28-38.34-16.46,0-30.62,9.4-36.87,22.88"/>
  <path class="cls-7" d="M3285.82,19.52c-2.36-1.82-5.33-2.9-8.55-2.9-7.59,0-13.77,6-13.96,13.47-7.83,2.91-13.41,10.4-13.41,19.18,0,10.37,7.78,18.94,17.87,20.29v.19h71.5v-.03c9.97-.58,17.87-8.76,17.87-18.78s-7.35-17.63-16.82-18.7c.04-.59.06-1.18.06-1.78,0-14.98-12.76-27.12-28.49-27.12-11.64,0-21.66,6.65-26.08,16.18"/>
  <path class="cls-1" d="M3344.71,35.32c-2.69-2.07-6.06-3.29-9.72-3.29-8.62,0-15.64,6.81-15.86,15.31-8.9,3.31-15.24,11.82-15.24,21.79,0,11.78,8.84,21.52,20.3,23.05v.21h81.23v-.04c11.33-.65,20.3-9.96,20.3-21.34s-8.35-20.03-19.1-21.24c.04-.67.07-1.35.07-2.02,0-17.02-14.49-30.81-32.36-30.81-13.23,0-24.6,7.56-29.63,18.39"/>
  <path class="cls-5" d="M3351.24,61.86c-2.16-1.66-4.87-2.65-7.82-2.65-6.94,0-12.59,5.48-12.76,12.32-7.16,2.66-12.26,9.51-12.26,17.54,0,9.48,7.11,17.32,16.34,18.55v.17h65.38v-.03c9.12-.53,16.34-8.01,16.34-17.18s-6.72-16.12-15.38-17.1c.04-.54.06-1.08.06-1.63,0-13.7-11.66-24.8-26.05-24.8-10.65,0-19.8,6.08-23.85,14.8"/>
  <path class="cls-5" d="M3302.56,174.77c-2.71-2.09-6.12-3.33-9.82-3.33-8.71,0-15.8,6.89-16.02,15.47-9,3.34-15.4,11.94-15.4,22.02,0,11.9,8.93,21.74,20.52,23.29v.22h82.09v-.04c11.45-.66,20.52-10.06,20.52-21.57s-8.44-20.24-19.31-21.46c.05-.67.07-1.36.07-2.05,0-17.2-14.64-31.13-32.71-31.13-13.37,0-24.86,7.64-29.94,18.58"/>
  <path class="cls-6" d="M3151.93,37.12c-2.39-1.84-5.39-2.93-8.66-2.93-7.68,0-13.93,6.07-14.13,13.64-7.93,2.95-13.58,10.53-13.58,19.41,0,10.5,7.87,19.17,18.09,20.54v.19h72.37v-.03c10.09-.58,18.09-8.87,18.09-19.01s-7.44-17.84-17.02-18.92c.04-.59.06-1.2.06-1.8,0-15.16-12.91-27.45-28.83-27.45-11.78,0-21.92,6.73-26.39,16.38"/>
  <path class="cls-4" d="M3162.89,33.7c-2.95-2.27-6.65-3.62-10.67-3.62-9.47,0-17.18,7.48-17.42,16.81-9.78,3.63-16.74,12.98-16.74,23.93,0,12.94,9.71,23.63,22.3,25.32v.23h89.22v-.04c12.44-.72,22.3-10.94,22.3-23.44s-9.17-22-20.98-23.33c.05-.73.08-1.48.08-2.22,0-18.69-15.92-33.84-35.55-33.84-14.53,0-27.02,8.3-32.54,20.19"/>
  <path class="cls-6" d="M3273.17,61.68c-3.29-2.53-7.42-4.04-11.91-4.04-10.56,0-19.16,8.35-19.43,18.75-10.91,4.05-18.67,14.48-18.67,26.69,0,14.43,10.83,26.36,24.88,28.24v.26h99.53v-.05c13.88-.8,24.88-12.2,24.88-26.15s-10.23-24.54-23.41-26.02c.05-.82.09-1.65.09-2.48,0-20.85-17.75-37.75-39.65-37.75-16.21,0-30.15,9.26-36.3,22.53"/>
  <path class="cls-1" d="M595.36,174.73c-3.25-2.5-7.32-3.98-11.75-3.98-10.42,0-18.9,8.24-19.16,18.5-10.76,4-18.42,14.28-18.42,26.33,0,14.24,10.68,26.01,24.54,27.86v.26h98.18v-.05c13.69-.79,24.54-12.03,24.54-25.79s-10.1-24.21-23.09-25.67c.05-.81.08-1.63.08-2.45,0-20.57-17.51-37.24-39.12-37.24-15.99,0-29.74,9.13-35.81,22.22"/>
  <path class="cls-7" d="M3066.89,130.26c-2.79-2.15-6.29-3.42-10.1-3.42-8.96,0-16.25,7.08-16.48,15.91-9.25,3.44-15.83,12.28-15.83,22.64,0,12.24,9.18,22.36,21.1,23.95v.22h84.41v-.04c11.77-.68,21.1-10.35,21.1-22.18s-8.68-20.81-19.85-22.07c.05-.69.07-1.4.07-2.1,0-17.68-15.06-32.01-33.63-32.01-13.75,0-25.57,7.85-30.79,19.11"/>
  <path class="cls-5" d="M2939.04,132.89c-2.84-2.18-6.39-3.48-10.26-3.48-9.1,0-16.51,7.19-16.74,16.16-9.4,3.49-16.09,12.48-16.09,23.01,0,12.44,9.33,22.72,21.44,24.34v.23h85.77v-.04c11.96-.69,21.44-10.51,21.44-22.53s-8.82-21.15-20.17-22.43c.05-.7.07-1.42.07-2.14,0-17.97-15.3-32.53-34.17-32.53-13.97,0-25.98,7.98-31.28,19.41"/>
  <path class="cls-2" d="M2818.13,141.28c-1.95-1.5-4.39-2.39-7.05-2.39-6.25,0-11.35,4.94-11.5,11.11-6.46,2.4-11.06,8.57-11.06,15.81,0,8.55,6.41,15.61,14.73,16.72v.16h58.94v-.03c8.22-.47,14.73-7.22,14.73-15.48s-6.06-14.53-13.86-15.41c.03-.48.05-.98.05-1.47,0-12.35-10.51-22.35-23.48-22.35-9.6,0-17.85,5.48-21.5,13.34"/>
  <path class="cls-7" d="M2689.37,130.04c-2.13-1.64-4.8-2.61-7.7-2.61-6.83,0-12.39,5.4-12.56,12.12-7.05,2.62-12.07,9.36-12.07,17.25,0,9.33,7,17.04,16.08,18.25v.17h64.33v-.03c8.97-.52,16.08-7.89,16.08-16.9s-6.61-15.86-15.13-16.82c.04-.53.06-1.07.06-1.6,0-13.48-11.48-24.4-25.63-24.4-10.48,0-19.49,5.98-23.46,14.56"/>
  <path class="cls-1" d="M2561.99,115.09c-2.25-1.73-5.07-2.76-8.14-2.76-7.22,0-13.1,5.71-13.28,12.82-7.45,2.77-12.76,9.9-12.76,18.25,0,9.87,7.4,18.02,17,19.3v.18h68.02v-.03c9.48-.55,17-8.34,17-17.87s-6.99-16.77-16-17.79c.04-.56.06-1.13.06-1.7,0-14.25-12.14-25.8-27.1-25.8-11.08,0-20.6,6.33-24.81,15.4"/>
  <path class="cls-2" d="M2437.18,103.5c-2.04-1.57-4.6-2.5-7.38-2.5-6.55,0-11.88,5.18-12.05,11.63-6.76,2.51-11.58,8.98-11.58,16.55,0,8.95,6.72,16.35,15.43,17.51v.16h61.72v-.03c8.61-.5,15.43-7.57,15.43-16.22s-6.35-15.22-14.52-16.14c.03-.51.05-1.02.05-1.54,0-12.93-11.01-23.41-24.59-23.41-10.05,0-18.7,5.74-22.51,13.97"/>
  <path class="cls-1" d="M2302.04,82.91c-3.1-2.38-6.98-3.8-11.21-3.8-9.94,0-18.04,7.86-18.29,17.65-10.27,3.81-17.57,13.63-17.57,25.13,0,13.59,10.19,24.81,23.42,26.58v.25h93.68v-.04c13.06-.75,23.42-11.48,23.42-24.61s-9.63-23.1-22.03-24.5c.05-.77.08-1.55.08-2.33,0-19.62-16.71-35.53-37.32-35.53-15.26,0-28.38,8.71-34.17,21.2"/>
  <path class="cls-5" d="M2184.92,89.62c-2.18-1.68-4.91-2.67-7.87-2.67-6.99,0-12.67,5.52-12.85,12.4-7.21,2.68-12.35,9.58-12.35,17.65,0,9.55,7.16,17.43,16.45,18.68v.17h65.82v-.03c9.18-.53,16.45-8.07,16.45-17.29s-6.77-16.23-15.48-17.21c.04-.54.06-1.09.06-1.64,0-13.79-11.74-24.96-26.22-24.96-10.72,0-19.94,6.12-24.01,14.9"/>
  <path class="cls-2" d="M2049.22,86.89c-2.8-2.15-6.31-3.43-10.12-3.43-8.98,0-16.29,7.1-16.51,15.94-9.27,3.44-15.87,12.31-15.87,22.69,0,12.27,9.2,22.41,21.14,24v.22h84.59v-.04c11.79-.68,21.14-10.37,21.14-22.22s-8.7-20.86-19.9-22.12c.05-.69.07-1.4.07-2.11,0-17.72-15.09-32.08-33.7-32.08-13.78,0-25.62,7.87-30.85,19.15"/>
  <path class="cls-5" d="M2025.59,139.97c-2.21-1.7-4.99-2.72-8.01-2.72-7.11,0-12.89,5.62-13.07,12.62-7.34,2.73-12.56,9.74-12.56,17.96,0,9.71,7.29,17.74,16.74,19v.18h66.97v-.03c9.34-.54,16.74-8.21,16.74-17.59s-6.89-16.51-15.75-17.51c.04-.55.06-1.11.06-1.67,0-14.03-11.95-25.4-26.68-25.4-10.91,0-20.29,6.23-24.43,15.16"/>
  <path class="cls-5" d="M1794.36,144.5c-3.13-2.41-7.06-3.84-11.33-3.84-10.05,0-18.24,7.95-18.49,17.85-10.38,3.86-17.77,13.78-17.77,25.41,0,13.74,10.31,25.09,23.68,26.88v.25h94.72v-.04c13.21-.76,23.68-11.61,23.68-24.88s-9.74-23.35-22.28-24.77c.05-.78.08-1.57.08-2.36,0-19.84-16.9-35.92-37.74-35.92-15.42,0-28.69,8.81-34.55,21.44"/>
  <path class="cls-7" d="M1671.32,107.92c-2.24-1.73-5.05-2.75-8.11-2.75-7.2,0-13.05,5.69-13.24,12.78-7.43,2.76-12.72,9.86-12.72,18.19,0,9.83,7.38,17.96,16.95,19.24v.18h67.8v-.03c9.45-.55,16.95-8.31,16.95-17.81s-6.97-16.72-15.95-17.73c.04-.56.06-1.12.06-1.69,0-14.2-12.1-25.71-27.01-25.71-11.04,0-20.54,6.31-24.73,15.35"/>
  <path class="cls-7" d="M1545.57,115.45c-2.73-2.1-6.16-3.35-9.88-3.35-8.76,0-15.9,6.93-16.12,15.56-9.05,3.36-15.49,12.01-15.49,22.15,0,11.98,8.98,21.87,20.64,23.43v.22h82.58v-.04c11.51-.66,20.64-10.12,20.64-21.7s-8.49-20.36-19.42-21.59c.05-.68.07-1.37.07-2.06,0-17.3-14.73-31.32-32.9-31.32-13.45,0-25.01,7.68-30.12,18.69"/>
  <path class="cls-1" d="M1415.75,129.64c-2.44-1.88-5.5-2.99-8.83-2.99-7.84,0-14.22,6.19-14.41,13.91-8.09,3.01-13.85,10.74-13.85,19.8,0,10.71,8.03,19.56,18.46,20.95v.19h73.83v-.03c10.3-.59,18.46-9.05,18.46-19.4s-7.59-18.2-17.37-19.31c.04-.61.06-1.22.06-1.84,0-15.47-13.17-28-29.42-28-12.02,0-22.36,6.87-26.93,16.71"/>
  <path class="cls-5" d="M1286.21,140.47c-3.26-2.51-7.36-4-11.81-4-10.48,0-19.01,8.28-19.27,18.6-10.82,4.02-18.52,14.36-18.52,26.48,0,14.32,10.74,26.15,24.68,28.02v.26h98.72v-.05c13.77-.79,24.68-12.1,24.68-25.94s-10.15-24.34-23.22-25.82c.05-.81.09-1.63.09-2.46,0-20.68-17.61-37.44-39.33-37.44-16.08,0-29.9,9.18-36.01,22.35"/>
  <path class="cls-6" d="M1184.93,160.04c-3.08-2.37-6.94-3.78-11.14-3.78-9.89,0-17.94,7.81-18.18,17.55-10.21,3.79-17.47,13.55-17.47,24.99,0,13.51,10.13,24.68,23.28,26.43v.25h93.15v-.04c12.99-.75,23.28-11.42,23.28-24.47s-9.58-22.97-21.91-24.36c.05-.76.08-1.54.08-2.32,0-19.51-16.62-35.33-37.11-35.33-15.17,0-28.22,8.67-33.98,21.09"/>
  <path class="cls-4" d="M1189.98,141.25c-2.15-1.66-4.86-2.64-7.8-2.64-6.92,0-12.55,5.47-12.72,12.28-7.14,2.65-12.22,9.48-12.22,17.48,0,9.45,7.09,17.26,16.29,18.49v.17h65.16v-.03c9.09-.52,16.29-7.99,16.29-17.12s-6.7-16.06-15.32-17.04c.04-.53.06-1.08.06-1.62,0-13.65-11.62-24.71-25.96-24.71-10.61,0-19.74,6.06-23.77,14.75"/>
  <path class="cls-1" d="M1081.34,96.41c-2.42-1.86-5.45-2.96-8.75-2.96-7.76,0-14.08,6.13-14.27,13.78-8.01,2.98-13.72,10.64-13.72,19.61,0,10.6,7.96,19.37,18.28,20.75v.19h73.12v-.03c10.2-.59,18.28-8.96,18.28-19.21s-7.52-18.03-17.2-19.12c.04-.6.06-1.21.06-1.82,0-15.32-13.04-27.73-29.13-27.73-11.91,0-22.15,6.8-26.67,16.55"/>
  <path class="cls-5" d="M963.33,27.61c-2.7-2.08-6.09-3.31-9.78-3.31-8.67,0-15.73,6.86-15.95,15.4-8.95,3.33-15.33,11.89-15.33,21.92,0,11.85,8.89,21.65,20.43,23.19v.21h81.72v-.04c11.39-.66,20.43-10.02,20.43-21.47s-8.4-20.15-19.22-21.37c.04-.67.07-1.35.07-2.04,0-17.12-14.58-30.99-32.56-30.99-13.31,0-24.75,7.6-29.81,18.5"/>
  <path class="cls-2" d="M844.8,62.27c-2.03-1.56-4.58-2.49-7.35-2.49-6.52,0-11.82,5.15-11.99,11.57-6.73,2.5-11.52,8.94-11.52,16.47,0,8.91,6.68,16.27,15.35,17.43v.16h61.42v-.03c8.56-.49,15.35-7.53,15.35-16.14s-6.32-15.14-14.44-16.06c.03-.5.05-1.02.05-1.53,0-12.87-10.96-23.29-24.47-23.29-10,0-18.6,5.71-22.4,13.9"/>
  <path class="cls-1" d="M722.79,99.08c-2.27-1.75-5.12-2.78-8.21-2.78-7.28,0-13.21,5.76-13.39,12.93-7.52,2.79-12.87,9.98-12.87,18.4,0,9.95,7.47,18.18,17.15,19.47v.18h68.62v-.03c9.57-.55,17.15-8.41,17.15-18.03s-7.06-16.92-16.14-17.94c.04-.56.06-1.14.06-1.71,0-14.37-12.24-26.02-27.34-26.02-11.17,0-20.78,6.38-25.03,15.53"/>
  <path class="cls-7" d="M693.75,165.16c-2.38-1.84-5.38-2.92-8.63-2.92-7.65,0-13.88,6.05-14.08,13.59-7.9,2.94-13.53,10.49-13.53,19.34,0,10.46,7.85,19.1,18.03,20.46v.19h72.12v-.03c10.06-.58,18.03-8.84,18.03-18.95s-7.42-17.78-16.96-18.86c.04-.59.06-1.19.06-1.8,0-15.11-12.87-27.35-28.73-27.35-11.74,0-21.84,6.71-26.3,16.32"/>
  <path class="cls-6" d="M561.36,186.45c-2.14-1.65-4.83-2.63-7.75-2.63-6.87,0-12.47,5.43-12.64,12.21-7.1,2.64-12.15,9.42-12.15,17.37,0,9.39,7.05,17.16,16.19,18.38v.17h64.77v-.03c9.03-.52,16.19-7.94,16.19-17.02s-6.66-15.97-15.23-16.94c.04-.53.06-1.07.06-1.61,0-13.57-11.56-24.57-25.81-24.57-10.55,0-19.62,6.03-23.62,14.66"/>
  <path class="cls-2" d="M478.16,151.97c-2.14-1.65-4.83-2.63-7.75-2.63-6.87,0-12.47,5.43-12.64,12.2-7.1,2.64-12.15,9.42-12.15,17.37,0,9.39,7.05,17.15,16.19,18.38v.17h64.76v-.03c9.03-.52,16.19-7.94,16.19-17.01s-6.66-15.97-15.23-16.93c.04-.53.06-1.07.06-1.61,0-13.57-11.55-24.56-25.8-24.56-10.55,0-19.62,6.02-23.62,14.66"/>
  <path class="cls-5" d="M479.9,30.93c-2.4-1.84-5.4-2.94-8.67-2.94-7.69,0-13.95,6.08-14.14,13.65-7.94,2.95-13.59,10.54-13.59,19.43,0,10.51,7.88,19.19,18.11,20.56v.19h72.44v-.03c10.1-.58,18.11-8.88,18.11-19.03s-7.45-17.86-17.04-18.94c.04-.59.06-1.2.06-1.81,0-15.18-12.92-27.47-28.86-27.47-11.8,0-21.94,6.74-26.42,16.4"/>
  <path class="cls-1" d="M370.46,23.7c-2.55-1.96-5.75-3.13-9.23-3.13-8.19,0-14.86,6.47-15.06,14.54-8.46,3.14-14.47,11.23-14.47,20.7,0,11.19,8.39,20.44,19.29,21.9v.2h77.16v-.04c10.76-.62,19.29-9.46,19.29-20.27s-7.93-19.02-18.15-20.18c.04-.63.07-1.28.07-1.92,0-16.16-13.76-29.26-30.74-29.26-12.56,0-23.37,7.18-28.14,17.47"/>
  <path class="cls-7" d="M293.9,44.71c-3.15-2.43-7.1-3.86-11.4-3.86-10.11,0-18.35,7.99-18.6,17.96-10.44,3.88-17.88,13.86-17.88,25.56,0,13.82,10.37,25.24,23.82,27.04v.25h95.3v-.04c13.29-.77,23.82-11.68,23.82-25.04s-9.8-23.5-22.41-24.92c.05-.78.08-1.58.08-2.37,0-19.96-17-36.14-37.97-36.14-15.52,0-28.87,8.86-34.76,21.57"/>
  <path class="cls-7" d="M345.79,160.35c-2.62-2.02-5.91-3.22-9.49-3.22-8.42,0-15.27,6.65-15.48,14.94-8.69,3.23-14.88,11.54-14.88,21.27,0,11.5,8.63,21.01,19.82,22.51v.21h79.31v-.04c11.06-.64,19.82-9.72,19.82-20.84s-8.15-19.55-18.65-20.74c.04-.65.07-1.31.07-1.98,0-16.61-14.15-30.08-31.6-30.08-12.91,0-24.02,7.38-28.93,17.95"/>
  <path class="cls-6" d="M210.74,183.08c-2.96-2.28-6.67-3.63-10.7-3.63-9.49,0-17.22,7.5-17.46,16.85-9.8,3.64-16.78,13.01-16.78,23.99,0,12.97,9.73,23.69,22.35,25.38v.24h89.43v-.04c12.47-.72,22.35-10.96,22.35-23.5s-9.2-22.05-21.03-23.39c.05-.73.08-1.48.08-2.23,0-18.73-15.95-33.92-35.63-33.92-14.56,0-27.09,8.32-32.62,20.24"/>
  <path class="cls-5" d="M88.01,167.19c-3.02-2.32-6.8-3.7-10.92-3.7-9.68,0-17.57,7.65-17.81,17.2-10,3.71-17.12,13.28-17.12,24.48,0,13.23,9.93,24.17,22.81,25.9v.24h91.25v-.04c12.72-.73,22.81-11.19,22.81-23.97s-9.38-22.5-21.46-23.86c.05-.75.08-1.51.08-2.27,0-19.12-16.28-34.61-36.36-34.61-14.86,0-27.64,8.49-33.28,20.66"/>
  <path class="cls-1" d="M148.46,124.39c-2.1-1.62-4.74-2.58-7.61-2.58-6.75,0-12.24,5.33-12.41,11.98-6.97,2.59-11.92,9.25-11.92,17.05,0,9.22,6.92,16.84,15.89,18.04v.17h63.57v-.03c8.86-.51,15.89-7.79,15.89-16.7s-6.54-15.67-14.95-16.62c.03-.52.05-1.05.05-1.58,0-13.32-11.34-24.11-25.33-24.11-10.35,0-19.26,5.91-23.19,14.39"/>
  <path class="cls-5" d="M266.56,127.93c-3.1-2.39-6.98-3.8-11.21-3.8-9.94,0-18.04,7.86-18.29,17.66-10.27,3.81-17.58,13.63-17.58,25.13,0,13.59,10.19,24.82,23.42,26.59v.25h93.69v-.04c13.06-.75,23.42-11.48,23.42-24.62s-9.63-23.1-22.04-24.5c.05-.77.08-1.55.08-2.33,0-19.63-16.71-35.53-37.33-35.53-15.26,0-28.38,8.72-34.17,21.21"/>
  <path class="cls-6" d="M365.4,47.16c-3.11-2.39-7-3.81-11.24-3.81-9.97,0-18.09,7.88-18.34,17.7-10.3,3.82-17.62,13.67-17.62,25.2,0,13.62,10.22,24.89,23.48,26.66v.25h93.95v-.04c13.1-.76,23.48-11.52,23.48-24.68s-9.66-23.16-22.1-24.57c.05-.77.08-1.56.08-2.34,0-19.68-16.76-35.63-37.43-35.63-15.3,0-28.46,8.74-34.27,21.27"/>
  <path class="cls-1" d="M246.68,26.56c-2.82-2.17-6.37-3.46-10.22-3.46-9.06,0-16.44,7.16-16.67,16.09-9.36,3.48-16.02,12.42-16.02,22.91,0,12.39,9.29,22.62,21.35,24.24v.22h85.4v-.04c11.91-.69,21.35-10.47,21.35-22.44s-8.78-21.06-20.09-22.33c.05-.7.07-1.41.07-2.13,0-17.89-15.24-32.39-34.03-32.39-13.91,0-25.87,7.94-31.15,19.33"/>
  <path class="cls-4" d="M192.35,77.52c-2.06-1.59-4.65-2.53-7.46-2.53-6.62,0-12.01,5.23-12.18,11.75-6.84,2.54-11.7,9.07-11.7,16.73,0,9.05,6.79,16.52,15.59,17.7v.16h62.38v-.03c8.7-.5,15.59-7.65,15.59-16.39s-6.41-15.38-14.67-16.31c.03-.51.05-1.03.05-1.55,0-13.07-11.13-23.66-24.85-23.66-10.16,0-18.89,5.8-22.75,14.12"/>
  <path class="cls-6" d="M58.13,83.39c-3.1-2.39-6.98-3.8-11.21-3.8-9.94,0-18.04,7.86-18.29,17.65-10.27,3.81-17.57,13.63-17.57,25.13,0,13.59,10.19,24.82,23.42,26.59v.25h93.69v-.04c13.06-.75,23.42-11.48,23.42-24.61s-9.63-23.1-22.03-24.5c.05-.77.08-1.55.08-2.33,0-19.63-16.71-35.53-37.33-35.53-15.26,0-28.38,8.71-34.17,21.21"/>
</svg>