<svg xmlns="http://www.w3.org/2000/svg" class="rs-banner" viewBox="0 0 1107.57 79">
  <defs>
    <style>
      .cls-1 {
        fill: #ff00cf;
      }

      .cls-1, .cls-2, .cls-3, .cls-4, .cls-5, .cls-6 {
        stroke-width: 0px;
      }

      .cls-2 {
        fill: #ff9d00;
      }

      .cls-3 {
        fill: red;
      }

      .cls-4 {
        fill: #00ce00;
      }

      .cls-5 {
        fill: #05f;
      }

      .cls-6 {
        fill: gold;
      }
    </style>
  </defs>
  <path class="cls-5" d="M42.73,19.25c-2.81-2.17-6.34-3.45-10.18-3.45-9.03,0-16.38,7.13-16.6,16.03C6.63,35.29,0,44.2,0,54.64c0,12.33,9.25,22.53,21.26,24.13v.22h85.05v-.04c11.86-.68,21.26-10.43,21.26-22.34s-8.75-20.97-20-22.24c.05-.7.07-1.41.07-2.12C107.64,14.44,92.47,0,73.75,0c-13.85,0-25.76,7.91-31.02,19.25"/>
  <path class="cls-1" d="M238.73,19.25c-2.81-2.17-6.34-3.45-10.18-3.45-9.03,0-16.38,7.13-16.6,16.03-9.32,3.46-15.95,12.37-15.95,22.81,0,12.33,9.25,22.53,21.26,24.13v.22h85.05v-.04c11.86-.68,21.26-10.43,21.26-22.34s-8.75-20.97-20-22.24c.05-.7.07-1.41.07-2.12,0-17.82-15.17-32.26-33.89-32.26-13.85,0-25.76,7.91-31.02,19.25"/>
  <path class="cls-4" d="M434.73,19.25c-2.81-2.17-6.34-3.45-10.18-3.45-9.03,0-16.38,7.13-16.6,16.03-9.32,3.46-15.95,12.37-15.95,22.81,0,12.33,9.25,22.53,21.26,24.13v.22h85.05v-.04c11.86-.68,21.26-10.43,21.26-22.34s-8.75-20.97-20-22.24c.05-.7.07-1.41.07-2.12,0-17.82-15.17-32.26-33.89-32.26-13.85,0-25.76,7.91-31.02,19.25"/>
  <path class="cls-6" d="M630.73,19.25c-2.81-2.17-6.34-3.45-10.18-3.45-9.03,0-16.38,7.13-16.6,16.03-9.32,3.46-15.95,12.37-15.95,22.81,0,12.33,9.25,22.53,21.26,24.13v.22h85.05v-.04c11.86-.68,21.26-10.43,21.26-22.34s-8.75-20.97-20-22.24c.05-.7.07-1.41.07-2.12,0-17.82-15.17-32.26-33.89-32.26-13.85,0-25.76,7.91-31.02,19.25"/>
  <path class="cls-3" d="M826.73,19.25c-2.81-2.17-6.34-3.45-10.18-3.45-9.03,0-16.38,7.13-16.6,16.03-9.32,3.46-15.95,12.37-15.95,22.81,0,12.33,9.25,22.53,21.26,24.13v.22h85.05v-.04c11.86-.68,21.26-10.43,21.26-22.34s-8.75-20.97-20-22.24c.05-.7.07-1.41.07-2.12,0-17.82-15.17-32.26-33.89-32.26-13.85,0-25.76,7.91-31.02,19.25"/>
  <path class="cls-2" d="M1022.73,19.25c-2.81-2.17-6.34-3.45-10.18-3.45-9.03,0-16.38,7.13-16.6,16.03-9.32,3.46-15.95,12.37-15.95,22.81,0,12.33,9.25,22.53,21.26,24.13v.22h85.05v-.04c11.86-.68,21.26-10.43,21.26-22.34s-8.75-20.97-20-22.24c.05-.7.07-1.41.07-2.12,0-17.82-15.17-32.26-33.89-32.26-13.85,0-25.76,7.91-31.02,19.25"/>
</svg>