<svg xmlns="http://www.w3.org/2000/svg" viewBox="0 0 291.45 291.45">
  <defs>
    <style>
      .cls-1 {
        fill: #1a3b59;
        stroke-width: 0px;
      }
    </style>
  </defs>
  <polygon class="cls-1" points="291.45 145.68 273.09 160.04 287.8 178.11 266.72 188.02 277.03 208.91 254.27 213.88 259.68 236.55 236.38 236.33 236.61 259.63 213.95 254.23 208.99 277 188.09 266.69 178.19 287.78 160.11 273.09 145.77 291.45 131.41 273.09 113.34 287.8 103.42 266.72 82.53 277.03 77.56 254.27 54.9 259.68 55.12 236.38 31.82 236.61 37.21 213.95 14.45 208.99 24.75 188.09 3.66 178.19 18.36 160.11 0 145.77 18.35 131.41 3.64 113.34 24.73 103.42 14.41 82.53 37.17 77.56 31.77 54.9 55.06 55.12 54.83 31.82 77.5 37.21 82.46 14.45 103.35 24.75 113.25 3.66 131.33 18.36 145.68 0 160.04 18.35 178.11 3.64 188.02 24.73 208.91 14.41 213.88 37.17 236.55 31.77 236.33 55.06 259.63 54.83 254.23 77.5 277 82.46 266.69 103.35 287.78 113.25 273.09 131.33 291.45 145.68"/>
</svg>