<?xml version="1.0" encoding="UTF-8"?>
<svg xmlns="http://www.w3.org/2000/svg" version="1.1" viewBox="0 0 24 24">
  <defs>
    <style>
      .cls-1, .cls-2 {
        fill: #2c3e50;
      }

      .cls-3 {
        fill: #fff;
      }

      .cls-3, .cls-2 {
        display: none;
      }
    </style>
  </defs>
  <!-- Generator: Adobe Illustrator 28.7.1, SVG Export Plug-In . SVG Version: 1.2.0 Build 142)  -->
  <g>
    <g id="Layer_1">
      <path class="cls-2" d="M16.9,23.3c.5-2.7,0-5.6-1.4-7.7,1.6-4.5,1-9.8-1.4-13.5-1.2-1.6-3.1-1.6-4.2,0-2.4,3.7-3,9-1.4,13.5-1.4,2.1-2,5-1.4,7.7,2.9-3.1,7-3.1,9.9,0"/>
      <path class="cls-3" d="M10.9,8.8c.6.6,1.5.6,2.1,0s.6-1.5,0-2.1-1.5-.6-2.1,0-.6,1.5,0,2.1"/>
      <path class="cls-1" d="M15.5,15.6c1.6-4.5,1-9.8-1.4-13.5-1.2-1.6-3.1-1.6-4.2,0-2.4,3.7-3,9-1.4,13.5-1.4,2.1-2,5-1.4,7.7,2.9-3.1,7-3.1,9.9,0,.5-2.7,0-5.6-1.4-7.7ZM13.1,8.8c-.6.6-1.5.6-2.1,0s-.6-1.5,0-2.1,1.5-.6,2.1,0,.6,1.5,0,2.1Z"/>
    </g>
  </g>
</svg>