<svg id="paths" xmlns="http://www.w3.org/2000/svg" xmlns:xlink="http://www.w3.org/1999/xlink" viewBox="0 0 841 173">
  <defs>
    <style>
      .cls-1, .cls-2, .cls-3, .cls-4, .cls-5, .cls-6, .cls-7 {
        fill: none;
        stroke-linecap: round;
        stroke-linejoin: round;
        stroke-width: 10px;
      }

      .cls-1 {
        stroke: url(#linear-gradient);
      }

      .cls-2 {
        stroke: url(#linear-gradient-2);
      }

      .cls-3 {
        stroke: url(#linear-gradient-3);
      }

      .cls-4 {
        stroke: url(#linear-gradient-5);
      }

      .cls-5 {
        stroke: url(#linear-gradient-6);
      }

      .cls-6 {
        stroke: url(#linear-gradient-7);
      }

      .cls-7 {
        stroke: url(#linear-gradient-8);
      }
    </style>
    <linearGradient id="linear-gradient" x1="-42" y1="113.73" x2="844" y2="113.73" gradientUnits="userSpaceOnUse">
      <stop offset="0" stop-color="#999"/>
      <stop offset="0.06" stop-color="#999"/>
      <stop offset="0.13" stop-color="red"/>
      <stop offset="0.88" stop-color="red"/>
      <stop offset="0.96" stop-color="red" stop-opacity="0.02"/>
      <stop offset="1" stop-color="red" stop-opacity="0"/>
    </linearGradient>
    <linearGradient id="linear-gradient-2" x1="-42" y1="103.73" x2="844" y2="103.73" gradientUnits="userSpaceOnUse">
      <stop offset="0" stop-color="#999"/>
      <stop offset="0.06" stop-color="#999"/>
      <stop offset="0.13" stop-color="#ff9700"/>
      <stop offset="0.88" stop-color="#ff9700"/>
      <stop offset="0.96" stop-color="red" stop-opacity="0.02"/>
      <stop offset="1" stop-color="red" stop-opacity="0"/>
    </linearGradient>
    <linearGradient id="linear-gradient-3" x1="-42" y1="93.73" x2="844" y2="93.73" gradientUnits="userSpaceOnUse">
      <stop offset="0" stop-color="#999"/>
      <stop offset="0.06" stop-color="#999"/>
      <stop offset="0.13" stop-color="#ff0"/>
      <stop offset="0.88" stop-color="#ff0"/>
      <stop offset="0.96" stop-color="#ff0" stop-opacity="0.02"/>
      <stop offset="1" stop-color="#ff0" stop-opacity="0"/>
    </linearGradient>
    <linearGradient id="linear-gradient-5" x1="-42" y1="83.73" x2="844" y2="83.73" gradientUnits="userSpaceOnUse">
      <stop offset="0" stop-color="#999"/>
      <stop offset="0.06" stop-color="#999"/>
      <stop offset="0.13" stop-color="lime"/>
      <stop offset="0.88" stop-color="lime"/>
      <stop offset="0.96" stop-color="lime" stop-opacity="0.02"/>
      <stop offset="1" stop-color="lime" stop-opacity="0"/>
    </linearGradient>
    <linearGradient id="linear-gradient-6" x1="-42" y1="73.73" x2="844" y2="73.73" gradientUnits="userSpaceOnUse">
      <stop offset="0" stop-color="#999"/>
      <stop offset="0.06" stop-color="#999"/>
      <stop offset="0.13" stop-color="blue"/>
      <stop offset="0.88" stop-color="blue"/>
      <stop offset="0.96" stop-color="blue" stop-opacity="0.02"/>
      <stop offset="1" stop-color="blue" stop-opacity="0"/>
    </linearGradient>
    <linearGradient id="linear-gradient-7" x1="-42" y1="63.73" x2="844" y2="63.73" gradientUnits="userSpaceOnUse">
      <stop offset="0" stop-color="#999"/>
      <stop offset="0.06" stop-color="#999"/>
      <stop offset="0.13" stop-color="indigo"/>
      <stop offset="0.88" stop-color="indigo"/>
      <stop offset="0.96" stop-color="indigo" stop-opacity="0.02"/>
      <stop offset="1" stop-color="indigo" stop-opacity="0"/>
    </linearGradient>
    <linearGradient id="linear-gradient-8" x1="-42" y1="53.73" x2="844" y2="53.73" gradientUnits="userSpaceOnUse">
      <stop offset="0" stop-color="#999"/>
      <stop offset="0.06" stop-color="#999"/>
      <stop offset="0.13" stop-color="#9400d3"/>
      <stop offset="0.88" stop-color="#9400d3"/>
      <stop offset="0.96" stop-color="#9400d3" stop-opacity="0.02"/>
      <stop offset="1" stop-color="#9400d3" stop-opacity="0"/>
    </linearGradient>
  </defs>
  <title>bg-top</title>
  <path class="cls-1" d="M-37,96.18c12.18-.56,12.18,24.9,25.48,25.47,14.58.62,14.58-27.3,30.65-28,17.79-.81,17.79,30.1,37.6,31,22.18.94,22.18-33.68,47.19-34.83,28.42-1.3,28.42,38.05,61,39.44,37.71,1.6,37.71-43.95,81.89-46,52.46-2.4,52.46,51.69,115.76,54.39,77.91,3.32,77.91-63.25,176.12-67.74C666.34,64,666.34,150.53,839,157.88"/>
  <path class="cls-2" d="M-37,86.18c12.18-.56,12.18,24.9,25.48,25.47,14.58.62,14.58-27.3,30.65-28,17.79-.81,17.79,30.1,37.6,31,22.18.94,22.18-33.68,47.19-34.83,28.42-1.3,28.42,38.05,61,39.44,37.71,1.6,37.71-43.95,81.89-46,52.46-2.4,52.46,51.69,115.76,54.39,77.91,3.32,77.91-63.25,176.12-67.74C666.34,54,666.34,140.53,839,147.88"/>
  <path class="cls-3" d="M-37,76.18c12.18-.56,12.18,24.9,25.48,25.47,14.58.62,14.58-27.3,30.65-28,17.79-.81,17.79,30.1,37.6,31,22.18.94,22.18-33.68,47.19-34.83,28.42-1.3,28.42,38.05,61,39.44,37.71,1.6,37.71-43.95,81.89-46,52.46-2.4,52.46,51.69,115.76,54.39,77.91,3.32,77.91-63.25,176.12-67.74C666.34,44,666.34,130.53,839,137.88"/>
  <path class="cls-3" d="M-37,76.18c12.18-.56,12.18,24.9,25.48,25.47,14.58.62,14.58-27.3,30.65-28,17.79-.81,17.79,30.1,37.6,31,22.18.94,22.18-33.68,47.19-34.83,28.42-1.3,28.42,38.05,61,39.44,37.71,1.6,37.71-43.95,81.89-46,52.46-2.4,52.46,51.69,115.76,54.39,77.91,3.32,77.91-63.25,176.12-67.74C666.34,44,666.34,130.53,839,137.88"/>
  <path class="cls-4" d="M-37,66.18c12.18-.56,12.18,24.9,25.48,25.47,14.58.62,14.58-27.3,30.65-28,17.79-.81,17.79,30.1,37.6,31,22.18.94,22.18-33.68,47.19-34.83,28.42-1.3,28.42,38.05,61,39.44,37.71,1.6,37.71-43.95,81.89-46,52.46-2.4,52.46,51.69,115.76,54.39,77.91,3.32,77.91-63.25,176.12-67.74C666.34,34,666.34,120.53,839,127.88"/>
  <path class="cls-5" d="M-37,56.18c12.18-.56,12.18,24.9,25.48,25.47,14.58.62,14.58-27.3,30.65-28,17.79-.81,17.79,30.1,37.6,31,22.18.94,22.18-33.68,47.19-34.83,28.42-1.3,28.42,38.05,61,39.44,37.71,1.6,37.71-43.95,81.89-46,52.46-2.4,52.46,51.69,115.76,54.39,77.91,3.32,77.91-63.25,176.12-67.74C666.34,24,666.34,110.53,839,117.88"/>
  <path class="cls-6" d="M-37,46.18c12.18-.56,12.18,24.9,25.48,25.47,14.58.62,14.58-27.3,30.65-28,17.79-.81,17.79,30.1,37.6,31,22.18.94,22.18-33.68,47.19-34.83,28.42-1.3,28.42,38.05,61,39.44,37.71,1.6,37.71-43.95,81.89-46,52.46-2.4,52.46,51.69,115.76,54.39,77.91,3.32,77.91-63.25,176.12-67.74C666.34,14,666.34,100.53,839,107.88"/>
  <path class="cls-7" d="M-37,36.18c12.18-.56,12.18,24.9,25.48,25.47,14.58.62,14.58-27.3,30.65-28,17.79-.81,17.79,30.1,37.6,31,22.18.94,22.18-33.68,47.19-34.83,28.42-1.3,28.42,38.05,61,39.44,37.71,1.6,37.71-43.95,81.89-46,52.46-2.4,52.46,51.69,115.76,54.39,77.91,3.32,77.91-63.25,176.12-67.74C666.34,4,666.34,90.53,839,97.88"/>
</svg>
