        <svg
          id="bg-top"
          data-name="bg-top"
          xmlns="http://www.w3.org/2000/svg"
          viewBox="0 0 841 173">
          <defs>
            <linearGradient
              id="linear-red"
              x1="-42"
              y1="113.73"
              x2="844"
              y2="113.73"
              gradientUnits="userSpaceOnUse">
              <stop offset="0" stop-color="#999" />
              <stop offset="0.06" stop-color="#999" />
              <stop offset="0.15" stop-color="rgba(255, 80, 60, 1)" />
              <stop offset="0.60" stop-color="rgba(255, 80, 60, 1)" />
              <stop offset="0.92" stop-color="rgba(255, 80, 60, 0)" />
              <stop offset="1" stop-color="rgba(255, 80, 60, 0)" />
            </linearGradient>
            <linearGradient
              id="linear-orange"
              x1="-42"
              y1="113.73"
              x2="844"
              y2="113.73"
              gradientUnits="userSpaceOnUse">
              <stop offset="0" stop-color="#999" />
              <stop offset="0.06" stop-color="#999" />
              <stop offset="0.15" stop-color="rgba(255, 153, 0, 1)" />
              <stop offset="0.60" stop-color="rgba(255, 153, 0, 1)" />
              <stop offset="0.92" stop-color="rgba(255, 153, 0, 0)" />
              <stop offset="1" stop-color="rgba(255, 153, 0, 0)" />
            </linearGradient>
            <linearGradient
              id="linear-yellow"
              x1="-42"
              y1="113.73"
              x2="844"
              y2="113.73"
              gradientUnits="userSpaceOnUse">
              <stop offset="0" stop-color="#999" />
              <stop offset="0.06" stop-color="#999" />
              <stop offset="0.15" stop-color="rgba(239, 250, 0, 1)" />
              <stop offset="0.60" stop-color="rgba(239, 250, 0, 1)" />
              <stop offset="0.92" stop-color="rgba(239, 250, 0, 0)" />
              <stop offset="1" stop-color="rgba(239, 250, 0, 0)" />
            </linearGradient>
            <linearGradient
              id="linear-green"
              x1="-42"
              y1="113.73"
              x2="844"
              y2="113.73"
              gradientUnits="userSpaceOnUse">
              <stop offset="0" stop-color="#999" />
              <stop offset="0.06" stop-color="#999" />
              <stop offset="0.15" stop-color="rgba(51, 190, 0, 1)" />
              <stop offset="0.60" stop-color="rgba(51, 190, 0, 1)" />
              <stop offset="0.92" stop-color="rgba(51, 190, 0, 0)" />
              <stop offset="1" stop-color="rgba(51, 190, 0, 0)" />
            </linearGradient>
            <linearGradient
              id="linear-blue"
              x1="-42"
              y1="113.73"
              x2="844"
              y2="113.73"
              gradientUnits="userSpaceOnUse">
              <stop offset="0" stop-color="#999" />
              <stop offset="0.06" stop-color="#999" />
              <stop offset="0.15" stop-color="rgba(112, 220, 255, 1)" />
              <stop offset="0.60" stop-color="rgba(112, 220, 255, 1)" />
              <stop offset="0.92" stop-color="rgba(112, 220, 255, 0)" />
              <stop offset="1" stop-color="rgba(112, 220, 255, 0)" />
            </linearGradient>
            <linearGradient
              id="linear-indigo"
              x1="-42"
              y1="113.73"
              x2="844"
              y2="113.73"
              gradientUnits="userSpaceOnUse">
              <stop offset="0" stop-color="#999" />
              <stop offset="0.06" stop-color="#999" />
              <stop offset="0.15" stop-color="rgba( 255, 151, 252, 1)" />
              <stop offset="0.60" stop-color="rgba( 255, 151, 252, 1)" />
              <stop offset="0.92" stop-color="rgba( 255, 151, 252, 0)" />
              <stop offset="1" stop-color="rgba( 255, 151, 252, 0)" />
            </linearGradient>
            <linearGradient
              id="linear-violet"
              x1="-42"
              y1="113.73"
              x2="844"
              y2="113.73"
              gradientUnits="userSpaceOnUse">
              <stop offset="0" stop-color="#999" />
              <stop offset="0.06" stop-color="#999" />
              <stop offset="0.15" stop-color="rgba( 148, 0, 211, 1)" />
              <stop offset="0.60" stop-color="rgba( 148, 0, 211, 1)" />
              <stop offset="0.92" stop-color="rgba( 148, 0, 211, 0)" />
              <stop offset="1" stop-color="rgba( 148, 0, 211, 0)" />
            </linearGradient>
          </defs>
          <title>Top decoration animation</title>

          <!-- <path
            class="path"
            id="bg-top-path-1"
            stroke="url(#linear-violet)"
            stroke-width="10"
            fill="none"
            stroke-linecap="round"
            d="M-37,86.18c12.18-.56,12.18,24.9,25.48,25.47,14.58.62,14.58-27.3,30.65-28,17.79-.81,17.79,30.1,37.6,31,22.18.94,22.18-33.68,47.19-34.83,28.42-1.3,28.42,38.05,61,39.44,37.71,1.6,37.71-43.95,81.89-46,52.46-2.4,52.46,51.69,115.76,54.39,77.91,3.32,77.91-63.25,176.12-67.74C666.34,54,666.34,140.53,839,147.88" />
          <path
            class="path"
            id="bg-top-path-2"
            stroke="url(#linear-indigo)"
            stroke-width="10"
            fill="none"
            stroke-linecap="round"
            d="M-37,76.18c12.18-.56,12.18,24.9,25.48,25.47,14.58.62,14.58-27.3,30.65-28,17.79-.81,17.79,30.1,37.6,31,22.18.94,22.18-33.68,47.19-34.83,28.42-1.3,28.42,38.05,61,39.44,37.71,1.6,37.71-43.95,81.89-46,52.46-2.4,52.46,51.69,115.76,54.39,77.91,3.32,77.91-63.25,176.12-67.74C666.34,44,666.34,130.53,839,137.88" />
          <path
            class="path"
            id="bg-top-path-3"
            stroke="url(#linear-blue)"
            stroke-width="10"
            fill="none"
            stroke-linecap="round"
            d="M-37,76.18c12.18-.56,12.18,24.9,25.48,25.47,14.58.62,14.58-27.3,30.65-28,17.79-.81,17.79,30.1,37.6,31,22.18.94,22.18-33.68,47.19-34.83,28.42-1.3,28.42,38.05,61,39.44,37.71,1.6,37.71-43.95,81.89-46,52.46-2.4,52.46,51.69,115.76,54.39,77.91,3.32,77.91-63.25,176.12-67.74C666.34,44,666.34,130.53,839,137.88" />
          <path
            class="path"
            id="bg-top-path-4"
            stroke="url(#linear-green)"
            stroke-width="10"
            fill="none"
            stroke-linecap="round"
            d="M-37,66.18c12.18-.56,12.18,24.9,25.48,25.47,14.58.62,14.58-27.3,30.65-28,17.79-.81,17.79,30.1,37.6,31,22.18.94,22.18-33.68,47.19-34.83,28.42-1.3,28.42,38.05,61,39.44,37.71,1.6,37.71-43.95,81.89-46,52.46-2.4,52.46,51.69,115.76,54.39,77.91,3.32,77.91-63.25,176.12-67.74C666.34,34,666.34,120.53,839,127.88" />
          <path
            class="path"
            id="bg-top-path-5"
            stroke="url(#linear-yellow)"
            stroke-width="10"
            fill="none"
            stroke-linecap="round"
            d="M-37,56.18c12.18-.56,12.18,24.9,25.48,25.47,14.58.62,14.58-27.3,30.65-28,17.79-.81,17.79,30.1,37.6,31,22.18.94,22.18-33.68,47.19-34.83,28.42-1.3,28.42,38.05,61,39.44,37.71,1.6,37.71-43.95,81.89-46,52.46-2.4,52.46,51.69,115.76,54.39,77.91,3.32,77.91-63.25,176.12-67.74C666.34,24,666.34,110.53,839,117.88" />
          <path
            class="path"
            id="bg-top-path-6"
            stroke="url(#linear-orange)"
            stroke-width="10"
            fill="none"
            stroke-linecap="round"
            d="M-37,46.18c12.18-.56,12.18,24.9,25.48,25.47,14.58.62,14.58-27.3,30.65-28,17.79-.81,17.79,30.1,37.6,31,22.18.94,22.18-33.68,47.19-34.83,28.42-1.3,28.42,38.05,61,39.44,37.71,1.6,37.71-43.95,81.89-46,52.46-2.4,52.46,51.69,115.76,54.39,77.91,3.32,77.91-63.25,176.12-67.74C666.34,14,666.34,100.53,839,107.88" />
          <path
            class="path"
            id="bg-top-path-7"
            stroke="url(#linear-red)"
            stroke-width="10"
            fill="none"
            stroke-linecap="round"
            d="M-37,36.18c12.18-.56,12.18,24.9,25.48,25.47,14.58.62,14.58-27.3,30.65-28,17.79-.81,17.79,30.1,37.6,31,22.18.94,22.18-33.68,47.19-34.83,28.42-1.3,28.42,38.05,61,39.44,37.71,1.6,37.71-43.95,81.89-46,52.46-2.4,52.46,51.69,115.76,54.39,77.91,3.32,77.91-63.25,176.12-67.74C666.34,4,666.34,90.53,839,97.88" />
             -->
          <line
            fill="none"
            stroke-width="10px"
            stroke="white"
            x1="6"
            y1="101"
            x2="6"
            y2="0" />
          <path
            class="path"
            id="bg-top-path-1"
            stroke="url(#linear-green)"
            stroke-width="10.5"
            fill="none"
            stroke-linecap="round"
            d="M5,64V17A12,12,0,0,1,17,5H838" />
          <path
            class="path"
            id="bg-top-path-2"
            stroke="url(#linear-blue)"
            stroke-width="10.5"
            fill="none"
            stroke-linecap="round"
            d="M5,74V27A12,12,0,0,1,17,15H838" />
          <path
            class="path"
            id="bg-top-path-3"
            stroke="url(#linear-indigo)"
            stroke-width="10.5"
            fill="none"
            stroke-linecap="round"
            d="M5,84V37A12,12,0,0,1,17,25H838" />
          <path
            class="path"
            id="bg-top-path-4"
            stroke="url(#linear-red)"
            stroke-width="10.5"
            fill="none"
            stroke-linecap="round"
            d="M5,94V47A12,12,0,0,1,17,35H838" />
          <path
            class="path"
            id="bg-top-path-5"
            stroke="url(#linear-orange)"
            stroke-width="10.5"
            fill="none"
            stroke-linecap="round"
            d="M5,104V57A12,12,0,0,1,17,45H838" />

          <path
            class="path"
            id="bg-top-path-6"
            stroke="url(#linear-yellow)"
            stroke-width="10.5"
            fill="none"
            stroke-linecap="round"
            d="M5,114V67A12,12,0,0,1,17,55H838" />

        </svg>