<svg data-id="footer-cat"
  xmlns="http://www.w3.org/2000/svg" viewBox="0 0 486.48 298.17">
  <path d="M92.09,162.36c-24.77,2.09-45.27-6.22-63.43-21.09-11.81-9.68-19.62-21.89-22.28-37.14C1.73,77.39.79,50.99,12.98,25.66c3.79-7.87,8.16-15.31,15.1-20.83,5.24-4.16,11.17-7.19,17.32-2.33,5.83,4.6,5.86,11.17,2.93,17.38-5.76,12.17-12.77,23.73-16.47,36.85-2.22,7.87-3.81,15.85-4.68,23.93-2.94,27.53,16.4,42.82,40.14,48.09,8.99,2,18.1,1.43,26.94-2.35,11.22-4.79,22.77-8.81,34.07-13.4,13.65-5.55,27.88-8.27,42.49-7.71,31.5,1.21,63.07,1.4,94.44,5.1,7.98.94,15.72-1.01,23.37-2.84,14.96-3.58,30.01-5.48,45.37-3.47,8.63,1.13,16.61-.55,24.25-4.75,9.11-5.01,19.19-8.19,27.55-14.68,10.03-7.79,16.23-17.3,15.38-30.62-.37-5.82-.14-11.71.24-17.55.42-6.38,3.38-7.77,8.34-3.96,3.21,2.46,5.85,5.01,10.59,4.82,3.4-.14,5.27,3.72,6.77,6.65,2.26,4.43,5.69,6.44,10.52,5.8,9.6-1.28,17.93,1.39,25.85,6.88,4.54,3.15,9.93,5.09,15.01,7.44,2.58,1.2,4.99,2.43,6.42,5.09,4.4,8.18-1.06,24.26-9.78,27.76-4.84,1.95-9.21,4.09-11.97,8.83-7.74,13.33-18.4,24.33-29.03,35.25-11.26,11.57-17.74,25.33-20.39,41-1.52,9.03,1.09,17.15,6.86,24.2,7.59,9.28,16.33,17.47,24.9,25.8,11.99,11.64,22.19,24.53,28.45,40.19,1.57,3.92,4.14,8.44.27,12.08-4.07,3.84-8.66,1.22-12.75-.82-6.24-3.13-11.61-7.68-15.76-13.08-8.19-10.66-19.36-17.15-30.76-23.26-15.95-8.55-31.62-17.52-45.78-28.84-5.59-4.47-10.21-4.3-15.3.76-13.12,13.03-20.15,29.17-24.24,46.77-1.52,6.52,1.56,11.79,6.14,16.41,3.23,3.26,6.73,6.9,3.81,12.01-3.14,5.5-8.46,3.85-13.02,2.82-17.68-3.96-23.18-11.45-22.3-29.76.67-13.97,1.35-27.94,2.13-41.91.36-6.48-1.78-8.46-8.58-6.86-24.56,5.77-49.37,6.71-74.13,1.24-10.99-2.43-20.5-1.5-29.91,5.82-12.08,9.39-26.41,15.18-40.26,21.62-9.8,4.56-10.56,9.44-3.05,17.41,3.38,3.59,7.35,6.28,12.04,7.81,4.14,1.35,7.01,4.05,8.8,7.93,2.88,6.25.93,11.52-5.81,12.97-11.59,2.49-22.29.43-30.48-9.06-9.19-10.64-17.35-22.03-22.93-34.98-2.83-6.58-6.51-8.37-13.04-5.38-12.77,5.85-26.17,8.05-40.19,6.29-5.93-.75-11,1.41-15.39,5.3-10.63,9.41-20.69,18.84-19.16,35.22.59,6.25-5.33,9.06-11.33,6.53-11.14-4.69-16.25-16.16-10.8-26.98,8.58-17.04,18.53-33.35,29.6-48.92,3.92-5.52,9.75-8.79,15.61-11.97,18.73-10.15,34.97-27.13,44.69-47.01Z"/>
</svg>