<?xml version="1.0" standalone="no"?>
<!DOCTYPE svg PUBLIC "-//W3C//DTD SVG 20010904//EN"
 "http://www.w3.org/TR/2001/REC-SVG-20010904/DTD/svg10.dtd">
<svg version="1.0" xmlns="http://www.w3.org/2000/svg"
 width="700.000000pt" height="700.000000pt" viewBox="0 0 700.000000 700.000000"
 preserveAspectRatio="xMidYMid meet">
<metadata>
Created by potrace 1.11, written by Peter Selinger 2001-2013
</metadata>
<g transform="translate(0.000000,700.000000) scale(0.100000,-0.100000)"
fill="#000000" stroke="none">
<path d="M3300 5735 c-206 -46 -370 -141 -548 -318 -254 -250 -470 -621 -779
-1332 -311 -716 -412 -935 -532 -1150 -265 -474 -520 -740 -820 -856 -93 -36
-211 -62 -256 -57 l-34 4 15 -34 c7 -19 48 -95 90 -170 248 -447 565 -815 959
-1113 501 -378 1059 -603 1700 -686 104 -13 209 -17 405 -17 284 0 425 12 672
60 903 175 1721 722 2233 1494 85 127 212 349 245 424 l17 41 -36 -3 c-106
-10 -361 88 -496 191 -338 259 -572 635 -980 1577 -334 771 -466 1038 -645
1305 -95 141 -148 207 -248 309 -156 159 -324 265 -502 317 -98 28 -360 36
-460 14z"/>
<path d="M291 2115 c0 -5 6 -21 14 -35 8 -14 14 -20 14 -15 0 6 -6 21 -14 35
-8 14 -14 21 -14 15z"/>
<path d="M6686 2085 c-9 -26 -7 -32 5 -12 6 10 9 21 6 23 -2 3 -7 -2 -11 -11z"/>
</g>
</svg>
