<?xml version="1.0" encoding="UTF-8"?>
<svg xmlns="http://www.w3.org/2000/svg" viewBox="0 0 234.35 197.7">
  <defs>
    <style>
      .cls-1 {
        fill: #ef2203;
      }

      .cls-2 {
        fill: #358020;
      }
    </style>
  </defs>
  <g id="G">
    <path class="cls-1" d="M172.43,74.89h46.87V.13h-7.93s.48,7.45-5.77,9.38-6.25-7.21-41.11-9.38-48.32,22.6-48.32,22.6c0,0-7.21,9.13-9.13,18.99s-2.64,81.97-2.64,81.97v32.69s1.2,24.52,26.68,34.86,49.76.72,49.76.72c0,0,10.34-3.61,18.99-14.66s10.41,15,10.41,15h10.57v-78.45c0-5.5,2.85-10.61,7.53-13.5l6.01-3.72v-7.05h-75.08v8.37s11.89.66,13.65,7.49,0,72.66,0,72.66c0,0-3.08,6.39-6.39,6.39h-11.89s-6.83-3.08-6.83-6.83V19.79s.33-9.53,7.93-10.79c3.62-.6,8.59-.22,8.59-.22,0,0,6.83,3.52,7.49,9.03s.61,57.09.61,57.09Z"/>
  </g>
  <g id="P">
    <path class="cls-2" d="M139.06,62.62C136.72.15,86.68,7.79,73.96,7.63c-12.05-.16-68.15-.02-73.96,0v8.09h10.9s8.26.83,8.26,6.77v157.87s-2.31,8.59-11.72,8.59H.33v8.75h86.7v-9.74h-8.26s-12.06-.17-12.06-6.94v-51.19h31.05s43.77-1.54,41.3-67.21ZM90.87,101.2c-2.86,21.8-12.77,19.38-12.77,19.38h-11.89V15.77l12.07-.17s2.69-.06,4.17.68c7.59,3.79,9.08,28.11,9.08,28.11,0,0,2.2,35.01-.66,56.81Z"/>
  </g>
</svg>