<svg fill="currentcolor"
  xmlns="http://www.w3.org/2000/svg" viewBox="0 0 486.04 446.75">
  <path d="M11.56,347.47v-11.73l24.53-7.47c2.25-.71,4.06-1.87,5.42-3.47,1.36-1.6,2.04-3.7,2.04-6.31V127.2c0-2.61-.71-4.74-2.13-6.4-1.42-1.66-3.2-2.73-5.33-3.2l-24.53-7.47v-11.56h105.78c17.3,0,33.04,2.28,47.2,6.84,14.16,4.56,25.45,11.88,33.87,21.96,8.41,10.08,12.62,23.11,12.62,39.11,0,16.95-3.64,31.64-10.93,44.09-7.29,12.44-17.24,21.99-29.87,28.62-12.62,6.64-26.93,9.96-42.93,9.96-5.69,0-12.42-1.42-20.18-4.27-7.76-2.84-14.19-5.98-19.29-9.42v-12.09c3.08,1.19,7.58,2.08,13.51,2.67,5.92.59,11.56.89,16.89.89,9.48,0,17.12-1.98,22.93-5.96,5.81-3.97,10.22-8.86,13.24-14.67,3.02-5.81,5.09-11.61,6.22-17.42,1.12-5.81,1.69-10.49,1.69-14.04,0-9.84-1.54-18.99-4.62-27.47-3.08-8.47-8.48-15.32-16.18-20.53-7.71-5.21-18.49-7.82-32.36-7.82h-19.56v199.47c0,2.73.77,4.92,2.31,6.58,1.54,1.66,3.38,2.73,5.51,3.2l26.84,7.47v11.73H11.56Z"/>
  <path d="M405.15,318.67v-55.82c0-2.61-.71-4.71-2.13-6.31-1.42-1.6-3.32-2.76-5.69-3.47l-28.8-7.47v-11.56h112.18v11.56l-22.58,7.47c-2.13.71-3.94,1.87-5.42,3.47-1.48,1.6-2.22,3.71-2.22,6.31v53.96c0,7.41.18,13.42.53,18.04-12.45,4.86-27.38,9.13-44.8,12.8-17.42,3.67-34.79,5.51-52.09,5.51-22.04,0-42.28-5.1-60.71-15.29-18.43-10.19-33.16-24.92-44.18-44.18-11.02-19.26-16.53-42.64-16.53-70.13,0-26.07,5.51-48.89,16.53-68.44,11.02-19.56,25.98-34.76,44.89-45.6,18.9-10.84,40.33-16.27,64.27-16.27,12.92,0,24.62.62,35.11,1.87,10.49,1.24,20.27,2.88,29.33,4.89,9.07,2.02,17.75,4.27,26.04,6.76v62.58h-15.64l-10.67-33.07c-.59-1.89-1.6-3.41-3.02-4.53-1.42-1.12-3.02-2.1-4.8-2.93-7.71-4.15-17.22-7.38-28.53-9.69-11.32-2.31-22.02-3.47-32.09-3.47-13.04,0-25.01,3.76-35.91,11.29-10.91,7.53-19.56,18.82-25.96,33.87-6.4,15.05-9.6,33.96-9.6,56.71s2.9,41.63,8.71,58.76c5.81,17.13,14.31,30.55,25.51,40.27,11.2,9.72,24.86,14.58,40.98,14.58,6.76,0,13.12-.71,19.11-2.13,5.98-1.42,11.44-3.11,16.36-5.07,4.92-1.96,8.86-3.7,11.82-5.24Z"/>
</svg>