<svg focusable="false" aria-hidden="true" class="rs-logo"
  xmlns="http://www.w3.org/2000/svg" viewBox="0 0 918.52 331.44">
  <defs>
    <linearGradient id="rs-gradient-vertical" x2="0" y2="1">
      <stop offset="0%" stop-color="var(--rs-colour-blue-dark,#1a3b59)" />
      <stop offset="60%" stop-color="var(--rs-colour-blue-dark, #1a3b59 )" />
      <stop offset="100%" stop-color="var(--rs-colour-blue-dark, #1a3b59 )" />
    </linearGradient>
  </defs>
  <style>
      .rs-logo path {
        stroke-width: 0px;
        fill: url(#rs-gradient-vertical);
      }

      .rs-logo circle {
        fill: gold;
      }

  </style>
  <g>
    <path d="M5.66,244.93c-1.19,0-2.26-.45-3.2-1.33-.95-.89-1.42-1.99-1.42-3.29v-115.34c0-1.3.47-2.4,1.42-3.29.95-.89,2.02-1.33,3.2-1.33h50.73c16.14,0,28.81,3.68,38,11.04,9.19,7.36,13.79,17.62,13.79,30.79,0,8.31-1.9,15.37-5.7,21.18-3.8,5.82-8.78,10.38-14.95,13.71l23.14,42.01c.36.71.53,1.37.53,1.96,0,1.07-.36,1.99-1.07,2.76-.71.77-1.6,1.16-2.67,1.16h-30.08c-2.26,0-3.98-.56-5.16-1.69-1.19-1.13-1.96-2.16-2.31-3.11l-17.8-36.67h-12.82v36.85c0,1.31-.45,2.4-1.33,3.29-.89.89-1.99,1.33-3.29,1.33H5.66ZM39.31,174.09h16.91c4.15,0,7.24-1.16,9.26-3.47,2.02-2.31,3.03-5.19,3.03-8.63s-.98-6.59-2.94-9.08c-1.96-2.49-5.07-3.74-9.35-3.74h-16.91v24.92Z"/>
    <path d="M129.73,244.93c-1.31,0-2.4-.45-3.29-1.33-.89-.89-1.33-1.99-1.33-3.29v-83.3c0-1.3.45-2.4,1.33-3.29.89-.89,1.99-1.33,3.29-1.33h26.34c1.3,0,2.43.44,3.38,1.33.95.89,1.42,1.99,1.42,3.29v83.3c0,1.31-.48,2.4-1.42,3.29-.95.89-2.08,1.33-3.38,1.33h-26.34ZM130.08,140.8c-1.31,0-2.4-.45-3.29-1.33-.89-.89-1.33-1.99-1.33-3.29v-18.69c0-1.3.45-2.43,1.33-3.38.89-.95,1.99-1.42,3.29-1.42h25.63c1.3,0,2.43.48,3.38,1.42.95.95,1.42,2.08,1.42,3.38v18.69c0,1.31-.48,2.4-1.42,3.29-.95.89-2.08,1.33-3.38,1.33h-25.63Z"/>
    <path d="M219.97,246.71c-8.07,0-14.95-.86-20.65-2.58-5.7-1.72-10.35-3.89-13.97-6.5-3.62-2.61-6.26-5.31-7.92-8.1-1.66-2.79-2.55-5.25-2.67-7.39-.12-1.3.27-2.4,1.16-3.29.89-.89,1.87-1.33,2.94-1.33h25.81c.12,0,.29.03.53.09.24.06.47.21.71.45,1.54.48,3,1.25,4.36,2.31,1.36,1.07,2.91,2.02,4.63,2.85,1.72.83,3.77,1.25,6.14,1.25,2.02,0,3.83-.45,5.43-1.33,1.6-.89,2.4-2.16,2.4-3.83,0-1.42-.44-2.67-1.33-3.74s-2.76-2.11-5.61-3.12c-2.85-1.01-7.42-2.11-13.71-3.29-5.82-1.18-11.12-2.94-15.93-5.25-4.81-2.31-8.6-5.43-11.39-9.34-2.79-3.92-4.18-8.72-4.18-14.42,0-4.86,1.6-9.55,4.81-14.06,3.2-4.51,7.98-8.22,14.33-11.12,6.35-2.91,14.15-4.36,23.41-4.36,7,0,13.2.83,18.6,2.49,5.4,1.66,9.97,3.74,13.71,6.23,3.74,2.49,6.59,5.16,8.54,8.01,1.96,2.85,3,5.4,3.11,7.65.12,1.31-.24,2.4-1.07,3.29-.83.89-1.78,1.33-2.85,1.33h-23.32c-.36,0-.74-.03-1.16-.09-.42-.06-.74-.21-.98-.45-1.66-.36-3.18-1.04-4.54-2.05-1.37-1.01-2.82-1.96-4.36-2.85-1.54-.89-3.5-1.33-5.87-1.33-2.02,0-3.65.48-4.9,1.42-1.25.95-1.87,2.2-1.87,3.74,0,1.31.41,2.49,1.25,3.56.83,1.07,2.73,2.08,5.7,3.03,2.96.95,7.65,1.96,14.06,3.03,8.3,1.31,14.95,3.47,19.94,6.5,4.98,3.03,8.54,6.56,10.68,10.59,2.14,4.04,3.2,8.07,3.2,12.1,0,6.05-1.81,11.33-5.43,15.84-3.62,4.51-8.96,7.98-16.02,10.41-7.06,2.43-15.64,3.65-25.72,3.65Z"/>
    <path d="M285.65,244.93c-1.31,0-2.4-.45-3.29-1.33-.89-.89-1.33-1.99-1.33-3.29v-83.3c0-1.3.45-2.4,1.33-3.29.89-.89,1.99-1.33,3.29-1.33h26.34c1.3,0,2.43.44,3.38,1.33.95.89,1.42,1.99,1.42,3.29v83.3c0,1.31-.48,2.4-1.42,3.29-.95.89-2.08,1.33-3.38,1.33h-26.34ZM286.01,140.8c-1.31,0-2.4-.45-3.29-1.33-.89-.89-1.33-1.99-1.33-3.29v-18.69c0-1.3.45-2.43,1.33-3.38.89-.95,1.99-1.42,3.29-1.42h25.63c1.3,0,2.43.48,3.38,1.42.95.95,1.42,2.08,1.42,3.38v18.69c0,1.31-.48,2.4-1.42,3.29-.95.89-2.08,1.33-3.38,1.33h-25.63Z"/>
    <path d="M339.76,244.93c-1.31,0-2.4-.45-3.29-1.33-.89-.89-1.33-1.99-1.33-3.29v-83.3c0-1.3.45-2.4,1.33-3.29.89-.89,1.99-1.33,3.29-1.33h25.81c1.3,0,2.4.44,3.29,1.33.89.89,1.33,1.99,1.33,3.29v6.41c3.08-3.56,7.18-6.59,12.28-9.08,5.1-2.49,10.92-3.74,17.44-3.74s12.22,1.49,17.44,4.45c5.22,2.97,9.43,7.42,12.64,13.35,3.2,5.94,4.81,13.41,4.81,22.43v49.48c0,1.31-.48,2.4-1.42,3.29-.95.89-2.08,1.33-3.38,1.33h-28.12c-1.31,0-2.4-.45-3.29-1.33-.89-.89-1.33-1.99-1.33-3.29v-48.24c0-4.39-1.07-7.77-3.2-10.15-2.14-2.37-5.16-3.56-9.08-3.56s-7,1.19-9.26,3.56c-2.26,2.38-3.38,5.76-3.38,10.15v48.24c0,1.31-.44,2.4-1.33,3.29s-1.99,1.33-3.29,1.33h-27.95Z"/>
    <path d="M501.03,284.09c-9.61,0-17.59-1.22-23.94-3.65-6.35-2.43-11.42-5.4-15.22-8.9-3.8-3.5-6.5-6.94-8.1-10.32-1.6-3.38-2.46-6.02-2.58-7.92-.12-1.31.29-2.4,1.25-3.29.95-.89,2.08-1.33,3.38-1.33h28.66c1.19,0,2.16.29,2.94.89.77.59,1.39,1.48,1.87,2.67.59,1.07,1.27,2.14,2.05,3.2.77,1.07,1.87,1.9,3.29,2.49,1.42.59,3.26.89,5.52.89,2.73,0,4.95-.48,6.68-1.42,1.72-.95,3.03-2.43,3.92-4.45.89-2.02,1.34-4.69,1.34-8.01v-11.93c-2.85,2.73-6.32,4.89-10.41,6.5-4.09,1.6-8.93,2.4-14.51,2.4s-11.01-.8-15.57-2.4c-4.57-1.6-8.43-4.06-11.57-7.39-3.15-3.32-5.64-7.53-7.48-12.64-1.84-5.1-2.88-11.21-3.11-18.33-.12-3.08-.12-6.17,0-9.26.24-6.64,1.25-12.55,3.03-17.71s4.27-9.46,7.48-12.91c3.2-3.44,7.09-6.08,11.66-7.92,4.57-1.84,9.76-2.76,15.57-2.76,6.17,0,11.51,1.16,16.02,3.47,4.51,2.31,8.19,5.31,11.04,8.99v-6.05c0-1.3.44-2.4,1.33-3.29.89-.89,1.99-1.33,3.29-1.33h25.81c1.3,0,2.4.44,3.29,1.33.89.89,1.33,1.99,1.33,3.29l.18,85.08c0,9.61-2.05,17.5-6.14,23.67-4.09,6.17-9.76,10.77-17,13.79-7.24,3.03-15.66,4.54-25.28,4.54ZM499.42,214.85c2.85,0,5.16-.59,6.94-1.78,1.78-1.18,3.12-2.76,4-4.72s1.45-4.18,1.69-6.67c.12-1.07.18-2.79.18-5.16s-.06-4.03-.18-4.98c-.24-2.49-.8-4.72-1.69-6.67s-2.22-3.53-4-4.72c-1.78-1.18-4.09-1.78-6.94-1.78-3.09,0-5.52.62-7.3,1.87s-3.06,2.97-3.83,5.16c-.77,2.2-1.28,4.72-1.51,7.57-.24,2.49-.24,4.92,0,7.3.24,2.85.74,5.37,1.51,7.56.77,2.2,2.05,3.92,3.83,5.16s4.21,1.87,7.3,1.87Z"/>
  </g>
  <g>
    <path d="M638.75,299.71c-12.46,0-22.81-1.75-31.06-5.25-8.25-3.5-14.42-8.07-18.51-13.71-4.09-5.63-6.26-11.6-6.5-17.89,0-1.07.36-1.96,1.07-2.67s1.6-1.07,2.67-1.07h28.3c1.66,0,2.96.27,3.92.8.95.53,1.96,1.28,3.03,2.22,1.07,1.31,2.31,2.52,3.74,3.65,1.42,1.13,3.26,2.02,5.52,2.67,2.25.65,4.86.98,7.83.98,5.46,0,9.67-.74,12.64-2.22,2.96-1.48,4.45-3.53,4.45-6.14,0-2.02-.8-3.68-2.4-4.98-1.6-1.3-4.3-2.49-8.1-3.56-3.8-1.07-8.96-2.19-15.49-3.38-9.14-1.54-17.03-3.83-23.67-6.85-6.65-3.03-11.72-7.12-15.22-12.28-3.5-5.16-5.25-11.54-5.25-19.13s2.16-14.54,6.5-20.47c4.33-5.93,10.38-10.56,18.16-13.88,7.77-3.32,16.82-4.98,27.14-4.98,8.54,0,16.11,1.13,22.7,3.38,6.59,2.26,12.13,5.19,16.64,8.81,4.51,3.62,7.95,7.51,10.32,11.66,2.37,4.16,3.62,8.13,3.74,11.93,0,1.07-.39,1.99-1.16,2.76s-1.63,1.16-2.58,1.16h-29.73c-1.42,0-2.61-.24-3.56-.71-.95-.47-1.9-1.25-2.85-2.31-.6-1.66-2.08-3.14-4.45-4.45-2.38-1.3-5.4-1.96-9.08-1.96-4.04,0-7.12.68-9.26,2.05-2.14,1.37-3.2,3.35-3.2,5.96,0,1.78.65,3.32,1.96,4.63,1.3,1.31,3.62,2.46,6.94,3.47,3.32,1.01,7.95,2.11,13.88,3.29,11.27,1.66,20.38,4.04,27.32,7.12,6.94,3.09,12.01,7.12,15.22,12.1,3.2,4.98,4.81,11.21,4.81,18.69,0,8.43-2.43,15.66-7.3,21.72-4.87,6.05-11.54,10.71-20.02,13.97-8.49,3.26-18.19,4.9-29.1,4.9Z"/>
    <path d="M713.33,297.93c-1.31,0-2.4-.45-3.29-1.33-.89-.89-1.33-1.99-1.33-3.29v-117.12c0-1.3.45-2.4,1.33-3.29.89-.89,1.99-1.33,3.29-1.33h25.81c1.3,0,2.4.45,3.29,1.33.89.89,1.33,1.99,1.33,3.29v58.74l20.29-26.52c.47-.59,1.13-1.25,1.96-1.96.83-.71,2.02-1.07,3.56-1.07h29.9c1.18,0,2.16.39,2.94,1.16.77.77,1.16,1.75,1.16,2.94,0,.48-.09,1.01-.27,1.6-.18.6-.45,1.01-.8,1.25l-28.3,34.71,32.75,44.14c.59.95.89,1.84.89,2.67,0,1.19-.39,2.17-1.16,2.94s-1.75,1.16-2.94,1.16h-30.97c-1.78,0-3.06-.38-3.83-1.16-.77-.77-1.45-1.39-2.05-1.87l-23.14-32.04v30.44c0,1.31-.45,2.4-1.33,3.29-.89.89-1.99,1.33-3.29,1.33h-25.81Z"/>
    <path d="M835.79,331.75c-1.07,0-1.99-.36-2.76-1.07-.77-.71-1.16-1.6-1.16-2.67,0-.24.03-.53.09-.89.06-.36.15-.77.27-1.25l14.24-33.64-34.35-80.99c-.24-.71-.36-1.3-.36-1.78.24-1.07.74-2.02,1.51-2.85.77-.83,1.69-1.25,2.76-1.25h25.1c1.78,0,3.05.44,3.83,1.33.77.89,1.33,1.75,1.69,2.58l17.44,46.28,17.98-46.28c.47-.95,1.13-1.84,1.96-2.67.83-.83,2.08-1.25,3.74-1.25h24.92c.95,0,1.84.39,2.67,1.16.83.77,1.25,1.63,1.25,2.58,0,.71-.12,1.42-.36,2.14l-50.2,116.59c-.48.95-1.16,1.84-2.05,2.67-.89.83-2.17,1.25-3.83,1.25h-24.39Z"/>
  </g>
  <g data-id="rs-sun-cloud">
    <circle data-id="rs-sun" cx="846.26" cy="109" r="27"/>
    <path data-id="rs-cloud" d="M804.22,82.25c-3.28-2.53-7.4-4.03-11.88-4.03-10.54,0-19.12,8.33-19.38,18.71-10.88,4.04-18.63,14.45-18.63,26.63,0,14.4,10.8,26.3,24.82,28.18v.26h99.29v-.05c13.84-.8,24.82-12.17,24.82-26.09s-10.21-24.48-23.35-25.96c.05-.81.09-1.64.09-2.47,0-20.8-17.71-37.66-39.56-37.66-16.17,0-30.08,9.24-36.21,22.47"/>
  </g>
</svg>