<svg xmlns="http://www.w3.org/2000/svg" viewBox="0 0 652.75 251.39">
    <path d="M41.32 174.29H10.34v44.46H1.26V112.11H35.9c11.38 0 20.26 2.76 26.66 8.27 6.4 5.51 9.59 13.22 9.59 23.12 0 6.83-2 12.85-6.01 18.07-4 5.22-9.38 8.83-16.11 10.83l26.66 45.41v.95H67.1L41.32 174.3Zm-30.98-7.62h27.61c7.57 0 13.65-2.15 18.24-6.46 4.59-4.3 6.88-9.88 6.88-16.73 0-7.53-2.39-13.37-7.18-17.53-4.79-4.16-11.5-6.24-20.14-6.24H10.34v46.95ZM94.13 116.61c0-1.65.54-3.05 1.61-4.19 1.07-1.14 2.54-1.71 4.39-1.71s3.33.57 4.43 1.71 1.65 2.53 1.65 4.19-.55 3.03-1.65 4.15c-1.1 1.12-2.58 1.67-4.43 1.67s-3.32-.56-4.39-1.67c-1.07-1.12-1.61-2.5-1.61-4.15Zm10.33 102.13h-8.79v-79.25h8.79v79.25ZM175.72 198.6c0-4.35-1.75-7.84-5.24-10.47-3.49-2.64-8.75-4.7-15.78-6.19-7.03-1.49-12.49-3.2-16.37-5.13-3.88-1.93-6.76-4.28-8.64-7.07-1.88-2.78-2.82-6.15-2.82-10.11 0-6.25 2.61-11.41 7.84-15.49 5.22-4.08 11.91-6.12 20.07-6.12 8.84 0 15.93 2.19 21.28 6.56 5.35 4.37 8.02 10.07 8.02 17.1h-8.79c0-4.64-1.94-8.5-5.82-11.57s-8.78-4.61-14.69-4.61-10.39 1.28-13.88 3.85c-3.49 2.56-5.24 5.9-5.24 10s1.45 7.02 4.36 9.19c2.9 2.17 8.2 4.16 15.89 5.97 7.69 1.81 13.45 3.74 17.29 5.79 3.83 2.05 6.68 4.52 8.53 7.4 1.85 2.88 2.78 6.37 2.78 10.47 0 6.69-2.7 12.04-8.09 16.04-5.4 4-12.44 6.01-21.13 6.01-9.23 0-16.71-2.23-22.45-6.7-5.74-4.47-8.61-10.12-8.61-16.96h8.79c.34 5.13 2.5 9.12 6.48 11.98 3.98 2.86 9.24 4.28 15.78 4.28 6.1 0 11.03-1.34 14.79-4.03 3.76-2.68 5.64-6.08 5.64-10.18ZM203.7 116.61c0-1.65.54-3.05 1.61-4.19 1.07-1.14 2.54-1.71 4.39-1.71s3.33.57 4.43 1.71 1.65 2.53 1.65 4.19-.55 3.03-1.65 4.15c-1.1 1.12-2.58 1.67-4.43 1.67s-3.32-.56-4.39-1.67c-1.07-1.12-1.61-2.5-1.61-4.15Zm10.33 102.13h-8.79v-79.25h8.79v79.25ZM246.18 139.5l.29 13.55c2.98-4.88 6.69-8.61 11.13-11.17 4.44-2.56 9.35-3.85 14.72-3.85 8.5 0 14.82 2.39 18.97 7.18 4.15 4.79 6.25 11.96 6.3 21.53v52h-8.72v-52.08c-.05-7.08-1.55-12.35-4.5-15.82-2.96-3.47-7.68-5.2-14.17-5.2-5.42 0-10.22 1.7-14.39 5.09-4.17 3.39-7.26 7.97-9.27 13.73v54.27h-8.72v-79.25h8.35ZM316.71 178.39c0-12.4 2.75-22.23 8.24-29.48s12.95-10.88 22.38-10.88c10.79 0 18.99 4.3 24.61 12.89l.44-11.43h8.2v77.64c0 10.2-2.86 18.29-8.57 24.24-5.71 5.96-13.45 8.94-23.22 8.94-5.52 0-10.78-1.23-15.78-3.7-5.01-2.47-8.95-5.75-11.83-9.85l4.91-5.27c6.2 7.62 13.57 11.43 22.12 11.43 7.32 0 13.04-2.16 17.14-6.48s6.23-10.32 6.37-17.98v-9.96c-5.62 7.81-13.79 11.72-24.54 11.72-9.18 0-16.55-3.66-22.12-10.99s-8.35-17.21-8.35-29.66v-1.17Zm8.86 1.54c0 10.11 2.03 18.08 6.08 23.91 4.05 5.84 9.77 8.75 17.14 8.75 10.79 0 18.43-4.83 22.92-14.5v-36.84c-2.05-5.08-5.01-8.95-8.86-11.61-3.86-2.66-8.5-3.99-13.92-3.99-7.37 0-13.11 2.89-17.21 8.68s-6.15 14.32-6.15 25.6Z"/>
    <path d="M484.83 161.05c0-5.91-2.08-10.58-6.23-14.03-4.15-3.44-11.74-6.71-22.78-9.81-11.04-3.1-19.09-6.48-24.17-10.14-7.23-5.17-10.84-11.96-10.84-20.36s3.36-14.78 10.07-19.89c6.71-5.1 15.29-7.65 25.74-7.65 7.08 0 13.41 1.37 19.01 4.1 5.59 2.74 9.92 6.54 13 11.43 3.08 4.88 4.61 10.33 4.61 16.33h-9.08c0-7.3-2.49-13.16-7.47-17.59-4.98-4.43-11.67-6.65-20.07-6.65s-14.65 1.82-19.48 5.47c-4.83 3.64-7.25 8.4-7.25 14.27 0 5.43 2.17 9.86 6.52 13.28s11.3 6.44 20.87 9.06 16.82 5.33 21.75 8.14c4.93 2.81 8.64 6.17 11.13 10.07 2.49 3.91 3.74 8.52 3.74 13.84 0 8.4-3.36 15.14-10.07 20.21-6.71 5.08-15.56 7.62-26.55 7.62-7.52 0-14.42-1.34-20.69-4.03-6.27-2.68-11.04-6.45-14.28-11.28-3.25-4.83-4.87-10.38-4.87-16.63h9.01c0 7.52 2.81 13.45 8.42 17.8 5.61 4.35 13.08 6.52 22.41 6.52 8.3 0 14.97-1.83 20-5.49 5.03-3.66 7.54-8.52 7.54-14.58ZM530.1 147.35l-10.04 9.67v30.25h-8.79V74.77h8.79v72l8.28-8.94 30.32-29.81h11.06l-33.62 33.4 36.55 45.85h-10.47l-32.08-39.92ZM609.86 174.67 633 108.02h9.45l-33.84 92.72-1.76 4.1c-4.35 9.62-11.06 14.43-20.14 14.43-2.1 0-4.35-.34-6.74-1.03l-.07-7.25 4.54.44c4.29 0 7.77-1.06 10.44-3.19 2.66-2.12 4.92-5.77 6.77-10.95l3.88-10.69-29.88-78.59h9.59l24.61 66.65Z"/>
    <path id="rs-logo-cloud" d="M584.38 19.6a12.554 12.554 0 0 0-7.72-2.62c-6.85 0-12.43 5.41-12.59 12.16-7.07 2.63-12.1 9.38-12.1 17.31 0 9.35 7.02 17.09 16.13 18.31v.17h64.53v-.03c9-.52 16.13-7.91 16.13-16.95s-6.64-15.91-15.17-16.87c.04-.53.05-1.07.05-1.61C633.64 15.96 622.13 5 607.93 5c-10.51 0-19.54 6-23.53 14.6"/>
</svg>