<?xml version="1.0" encoding="utf-8"?>
<!-- Generator: Adobe Illustrator 23.0.6, SVG Export Plug-In . SVG Version: 6.00 Build 0)  -->
<svg version="1.1" id="Layer_1" xmlns="http://www.w3.org/2000/svg" xmlns:xlink="http://www.w3.org/1999/xlink" x="0px" y="0px"
	 width="1819px" height="470.5px" viewBox="0 0 1819 470.5" style="enable-background:new 0 0 1819 470.5;" xml:space="preserve">
<style type="text/css">
	.st0{fill:none;stroke:url(#SVGID_1_);stroke-width:10;stroke-linecap:round;stroke-linejoin:round;stroke-miterlimit:10;}
	.st1{clip-path:url(#SVGID_3_);}
</style>
<g>
	<linearGradient id="SVGID_1_" gradientUnits="userSpaceOnUse" x1="334.5" y1="271.5" x2="334.5" y2="470.5">
		<stop  offset="0.0573" style="stop-color:#FFFFFF"/>
		<stop  offset="1" style="stop-color:#FFFFFF;stop-opacity:0"/>
	</linearGradient>
	<line class="st0" x1="334.5" y1="276.5" x2="334.5" y2="465.5"/>
</g>
<g>
	<g>
		<defs>
			<path id="SVGID_2_" d="M5,5v231c0,0,42,5,89-14c35.25-14.25,57.56-31.88,66.52-39.8c10.09-8.93,22.48-14.97,35.81-16.88
				c28.26-4.05,73.33,6.17,125.67,79.68c0,0,3.26,9.41,16,1c97-64,130-80,216-57c67.69,18.1,93,51,214,33c98.54-14.66,105-55,228-55
				c127.58,0,230.66,38.85,279,29c54-11,91-102,200-104c110.09-2.02,339-87,339-87H5z"/>
		</defs>
		<clipPath id="SVGID_3_">
			<use xlink:href="#SVGID_2_"  style="overflow:visible;"/>
		</clipPath>
		<g class="st1">
		</g>
	</g>
</g>
<g>
</g>
<g>
</g>
<g>
</g>
<g>
</g>
<g>
</g>
<g>
</g>
<g>
</g>
<g>
</g>
<g>
</g>
<g>
</g>
<g>
</g>
<g>
</g>
<g>
</g>
<g>
</g>
<g>
</g>
</svg>
