<svg id="Layer_1" data-name="Layer 1" xmlns="http://www.w3.org/2000/svg" xmlns:xlink="http://www.w3.org/1999/xlink" viewBox="0 0 1819 470.5">
  <defs>
    <style>
      .cls-1 {
        fill: #f700ed;
      }

      .cls-2 {
        fill: url(#linear-gradient);
      }

      .cls-3 {
        fill: none;
        stroke-miterlimit: 10;
        stroke-width: 10px;
        stroke: url(#linear-gradient-2);
      }
    </style>
    <linearGradient id="linear-gradient" x1="909.5" y1="270.49" x2="909.5" y2="6" gradientUnits="userSpaceOnUse">
      <stop offset="0" stop-color="#fff"/>
      <stop offset="1" stop-opacity="0"/>
    </linearGradient>
    <linearGradient id="linear-gradient-2" x1="330" y1="302" x2="330" y2="253" gradientUnits="userSpaceOnUse">
      <stop offset="0" stop-color="#fff"/>
      <stop offset="1" stop-color="#fff" stop-opacity="0"/>
    </linearGradient>
  </defs>
  <title>the-grey-line-rainbow-top</title>
  <path class="cls-1" d="M5,5V236s42,5,89-14c35.25-14.25,57.56-31.87,66.52-39.8a69,69,0,0,1,35.81-16.88c28.25-4,73.33,26.17,125.67,99.68,0,0,3.26,9.41,16,1,97-64,130-100,216-77,67.69,18.1,93,51,214,33,98.54-14.66,105-55,228-55,127.58,0,230.66,38.85,279,29,54-11,91-102,200-104,110.09-2,339-87,339-87Z"/>
  <path class="cls-2" d="M5,6V237s42,5,89-14c35.25-14.25,57.56-31.87,66.52-39.8a69,69,0,0,1,35.81-16.88c28.25-4,73.33,26.17,125.67,99.68,0,0,3.26,9.41,16,1,97-64,130-100,216-77,67.69,18.1,93,51,214,33,98.54-14.66,105-55,228-55,127.58,0,230.66,38.85,279,29,54-11,91-102,200-104,110.09-2,339-87,339-87Z"/>
  <line class="cls-3" x1="330" y1="253" x2="330" y2="302"/>
</svg>
